# Blender v2.78 (sub 0) OBJ File: 'draconic_left_leg.blend11'
# www.blender.org
mtllib custom_left_leg.mtl
o Cube_Cube.000
v 2.800000 -0.500000 1.999971
v -1.799931 -0.500000 2.999971
v -1.799931 8.500000 2.999970
v -1.799931 8.500000 -0.800030
v 2.800000 8.500000 1.999969
v -1.799931 -0.500000 -0.800029
v 1.800069 -0.500000 -0.800029
v 1.800069 8.500000 0.001969
v 2.400069 8.500000 0.001969
v 1.800069 8.500000 -0.800031
v -1.799931 -0.500000 0.001971
v -2.400000 -0.500000 0.001971
v 2.400000 -0.500000 0.001971
v 1.800069 -0.500000 0.001971
v -1.799931 8.500000 0.001970
v 1.800069 8.500000 2.999969
v 1.800069 -0.500000 2.999971
v -2.399931 8.500000 0.001970
v -1.799931 -0.500000 1.999971
v 1.800069 -0.500000 1.999971
v -1.799931 8.500000 1.999970
v -2.600000 8.500000 1.999970
v 1.800069 8.500000 1.999969
v -2.600000 -0.500000 1.999971
vt 0.0542 0.9306
vt 0.0542 0.9722
vt 0.0000 0.9306
vt 0.3109 0.9444
vt 0.3109 0.9861
vt 0.2567 0.9444
vt 0.8732 0.0000
vt 0.8066 0.6250
vt 0.8066 0.0000
vt 0.3109 0.6528
vt 0.3109 0.6944
vt 0.2567 0.6944
vt 0.0542 0.6806
vt 0.0000 0.6806
vt 0.6081 0.0000
vt 0.6081 0.6250
vt 0.3648 0.6250
vt 0.3648 0.0000
vt 0.0542 0.6389
vt 0.0676 0.6250
vt 0.0676 0.0000
vt 0.3108 0.0000
vt 0.3108 0.6250
vt 0.5135 0.6944
vt 0.5135 0.9444
vt 0.4459 0.9444
vt 0.4459 0.6944
vt 0.2567 0.6806
vt 0.2567 0.9306
vt 0.1892 0.9306
vt 0.1892 0.6806
vt 0.7397 0.0000
vt 0.7397 0.6250
vt 0.6081 0.6250
vt 0.6081 0.0000
vt 0.8066 0.6250
vt 0.8066 0.0000
vt 0.1892 0.6250
vt 0.4459 0.6250
vt 1.0000 0.0000
vt 1.0000 0.6250
vt 0.8732 0.6250
vt 0.4459 1.0000
vt 0.1892 1.0000
vt 0.0000 0.6250
vt 0.0000 0.0000
vt 0.3648 0.0000
vt 0.3648 0.6250
vn 0.0000 1.0000 0.0000
vn 0.0000 -1.0000 0.0000
vn -0.8007 -0.0000 -0.5991
vn -0.0000 -0.0000 -1.0000
vn 0.0000 0.0000 1.0000
vn 0.9805 -0.0000 -0.1963
vn 0.8008 -0.0000 -0.5990
vn -0.9950 0.0000 -0.0996
vn -0.8007 0.0000 -0.5990
vn 0.8007 -0.0000 -0.5990
vn 0.7071 0.0000 0.7071
vn -0.7808 0.0000 0.6247
usemtl None.002
s off
f 8/1/1 9/2/1 10/3/1
f 11/4/2 12/5/2 6/6/2
f 12/7/3 4/8/3 6/9/3
f 13/10/2 14/11/2 7/12/2
f 15/13/1 8/1/1 10/3/1 4/14/1
f 6/15/4 4/16/4 10/17/4 7/18/4
f 18/19/1 15/13/1 4/14/1
f 14/11/2 11/4/2 6/6/2 7/12/2
f 17/20/5 16/21/5 3/22/5 2/23/5
f 17/24/2 2/25/2 19/26/2 20/27/2
f 3/28/1 16/29/1 23/30/1 21/31/1
f 13/32/6 9/33/6 5/34/6 1/35/6
f 10/36/7 13/32/7 7/37/7
f 20/27/2 19/26/2 11/4/2 14/11/2
f 22/38/1 21/31/1 15/13/1 18/19/1
f 21/31/1 23/30/1 8/1/1 15/13/1
f 1/39/2 20/27/2 14/11/2 13/10/2
f 24/40/8 22/41/8 18/42/8 12/7/8
f 19/26/2 24/43/2 12/5/2 11/4/2
f 23/30/1 5/44/1 9/2/1 8/1/1
f 12/7/9 18/42/9 4/8/9
f 10/36/10 9/33/10 13/32/10
f 19/26/2 2/25/2 24/43/2
f 1/45/11 5/46/11 16/21/11 17/20/11
f 20/27/2 1/39/2 17/24/2
f 23/30/1 16/29/1 5/44/1
f 2/23/12 3/22/12 22/47/12 24/48/12
f 21/31/1 22/38/1 3/28/1
