# Blender v2.78 (sub 0) OBJ File: 'draconic_right_leg.blend'
# www.blender.org
mtllib multi_right_leg.mtl
o Cube_Cube.002
v 1.822751 -0.499999 0.032000
v 2.422752 -0.499999 0.032000
v 1.822751 -0.500000 0.834000
v -1.777249 8.500000 0.032000
v -2.377318 8.500000 0.032000
v -1.777249 8.500000 0.834000
v -1.777249 -0.500000 0.833999
v 2.422683 8.500000 0.032001
v 1.822751 8.500000 0.032001
v 1.822751 8.500000 0.834001
v -1.777249 -0.499999 0.031999
v -2.377249 -0.499999 0.031999
v 1.822752 8.500001 -2.965999
v 1.822752 -0.499999 -2.966000
v -1.777248 -0.499999 -2.966001
v -1.777248 8.500001 -2.966000
v -1.777248 8.500000 -1.965999
v 1.822752 8.500000 -1.965999
v 1.822752 -0.499999 -1.966000
v -1.777248 -0.499999 -1.966001
v 2.822683 -0.499999 -1.966000
v 2.822683 8.500000 -1.965999
v -2.577317 -0.499999 -1.966001
v -2.577317 8.500000 -1.965999
vt 0.0542 0.9306
vt 0.0542 0.9722
vt 0.0000 0.9306
vt 0.3109 0.9444
vt 0.3109 0.9861
vt 0.2567 0.9444
vt 0.9334 0.6250
vt 1.0000 0.0000
vt 1.0000 0.6250
vt 0.3109 0.6528
vt 0.3109 0.6944
vt 0.2567 0.6944
vt 0.0542 0.6806
vt 0.0000 0.6806
vt 0.6081 0.0000
vt 0.6081 0.6250
vt 0.3648 0.6250
vt 0.3648 0.0000
vt 0.0542 0.6389
vt 0.2973 0.0000
vt 0.2973 0.6250
vt 0.0541 0.6250
vt 0.0541 0.0000
vt 0.5135 0.6944
vt 0.5135 0.9444
vt 0.4459 0.9444
vt 0.4459 0.6944
vt 0.2567 0.6806
vt 0.2567 0.9306
vt 0.1892 0.9306
vt 0.1892 0.6806
vt 0.7397 0.0000
vt 0.7397 0.6250
vt 0.6081 0.6250
vt 0.6081 0.0000
vt 0.8066 0.6250
vt 0.8066 0.0000
vt 0.1892 0.6250
vt 0.4459 0.6250
vt 0.8066 0.6250
vt 0.8066 0.0000
vt 0.9334 0.0000
vt 0.4459 1.0000
vt 0.1892 1.0000
vt 0.3648 0.0000
vt 0.3648 0.6250
vt 0.0000 0.6250
vt 0.0000 0.0000
vn 0.0000 -1.0000 -0.0000
vn 0.0000 1.0000 -0.0000
vn -0.8007 -0.0000 0.5991
vn -0.8007 -0.0000 0.5990
vn -0.0000 -0.0000 1.0000
vn 0.0000 0.0000 -1.0000
vn 0.9805 0.0000 0.1963
vn 0.8007 0.0000 0.5990
vn 0.8008 -0.0000 0.5990
vn -0.9950 -0.0000 0.0996
vn 0.7071 0.0000 -0.7071
vn -0.7808 0.0000 -0.6247
usemtl None.003
s 1
f 1/1/1 2/2/1 3/3/1
f 4/4/2 5/5/2 6/6/2
f 5/7/3 7/8/4 6/9/3
f 8/10/2 9/11/2 10/12/2
f 11/13/1 1/1/1 3/3/1 7/14/1
f 6/15/5 7/16/5 3/17/5 10/18/5
f 12/19/1 11/13/1 7/14/1
f 9/11/2 4/4/2 6/6/2 10/12/2
f 13/20/6 14/21/6 15/22/6 16/23/6
f 13/24/2 16/25/2 17/26/2 18/27/2
f 15/28/1 14/29/1 19/30/1 20/31/1
f 8/32/7 2/33/7 21/34/7 22/35/7
f 3/36/8 8/32/8 10/37/9
f 18/27/2 17/26/2 4/4/2 9/11/2
f 23/38/1 20/31/1 11/13/1 12/19/1
f 20/31/1 19/30/1 1/1/1 11/13/1
f 22/39/2 18/27/2 9/11/2 8/10/2
f 24/40/10 23/41/10 12/42/10 5/7/10
f 17/26/2 24/43/2 5/5/2 4/4/2
f 19/30/1 21/44/1 2/2/1 1/1/1
f 5/7/3 12/42/4 7/8/4
f 3/36/8 2/33/8 8/32/8
f 17/26/2 16/25/2 24/43/2
f 22/45/11 21/46/11 14/21/11 13/20/11
f 18/27/2 22/39/2 13/24/2
f 19/30/1 14/29/1 21/44/1
f 16/23/12 15/22/12 23/47/12 24/48/12
f 20/31/1 23/38/1 15/28/1
