# Blender v2.78 (sub 0) OBJ File: 'draconic_left_arm.blend'
# www.blender.org
mtllib multi_left_arm.mtl
o Cube.003
v -2.700000 0.700000 4.000000
v -2.700000 0.700000 0.200000
v 1.200000 0.700000 4.000000
v 1.200000 0.700000 0.200000
v -2.700000 12.500000 4.000000
v -2.700000 12.500000 0.200000
v 1.200000 12.500000 0.200000
v 1.200000 12.500000 4.000000
v -2.700000 6.500000 4.000000
v 1.200000 6.500000 4.000000
v -2.700000 0.700000 4.000000
v 1.200000 0.700000 4.000000
v 1.200000 6.500000 4.000000
v -2.700000 7.500000 4.000000
v 1.200000 7.500000 4.000000
v -3.500000 11.800000 4.000000
v 2.000000 11.800000 4.000000
v -3.500000 8.500000 4.000000
v 2.000000 8.500000 4.000000
v -2.700000 12.500000 4.000000
v 1.200000 12.500000 4.000000
v -2.700000 6.500000 0.200000
v 1.200000 6.500000 0.200000
v -2.700000 0.700000 0.200000
v 1.200000 0.700000 0.200000
v -2.700000 7.500000 0.200000
v 1.200000 7.500000 0.200000
v -2.200000 6.000000 -0.500000
v 0.700000 6.000000 -0.500000
v -2.200000 0.700000 0.200000
v 0.700000 0.700000 0.200000
v -2.700000 12.500000 0.200000
v 1.200000 12.500000 0.200000
v -2.700000 8.500000 -0.500000
v -2.700000 11.799999 -0.500000
v 1.200000 11.800000 -0.500000
v 1.200000 8.500000 -0.500000
v -2.700000 6.500000 4.000000
v -2.700000 6.500000 0.200000
v -2.700000 0.700000 4.000000
v -2.700000 0.700000 0.200000
v -2.700000 7.500000 4.000000
v -2.700000 7.500000 0.200000
v -2.200000 6.000000 -0.500000
v -3.500000 6.000000 3.500000
v -3.500000 6.000000 0.700000
v -2.700000 0.700000 3.500000
v -2.700000 0.700000 0.700000
v -3.500000 11.800000 4.000000
v -3.500000 8.500000 4.000000
v -2.700000 12.500000 4.000000
v -2.700000 12.500000 0.200000
v -2.700000 8.500000 -0.500000
v -2.700000 11.799999 -0.500000
v -3.500000 11.800000 0.200000
v -3.500000 8.500000 0.200000
v 1.200000 6.500000 4.000000
v 1.200000 6.500000 0.200000
v 1.200000 0.700000 4.000000
v 1.200000 0.700000 0.200000
v 1.200000 6.500000 0.200000
v 1.200000 7.500000 0.200000
v 1.200000 7.500000 4.000000
v 0.700000 6.000000 -0.500000
v 2.000000 6.000000 3.500000
v 2.000000 6.000000 0.700000
v 1.200000 0.700000 3.500000
v 1.200000 0.700000 0.700000
v 2.000000 11.800000 4.000000
v 2.000000 8.500000 4.000000
v 1.200000 12.500000 0.200000
v 1.200000 12.500000 4.000000
v 1.200000 11.800000 -0.500000
v 1.200000 8.500000 -0.500000
v 2.000000 11.800000 0.200000
v 2.000000 8.500000 0.200000
v 1.200000 6.500000 4.000000
v 1.200000 6.500000 0.200000
v 1.200000 6.500000 4.000000
v 1.200000 6.500000 0.200000
vt 0.5637 0.6551
vt 0.7267 0.6551
vt 0.7267 0.8139
vt 0.5637 0.8139
vt 0.4853 0.6547
vt 0.4853 0.8135
vt 0.3223 0.8135
vt 0.3223 0.6547
vt 0.4853 0.3621
vt 0.3223 0.3621
vt 0.3223 0.3203
vt 0.4853 0.3203
vt 0.2889 0.4039
vt 0.5188 0.4039
vt 0.5188 0.5419
vt 0.2889 0.5419
vt 0.4853 0.5711
vt 0.3223 0.5711
vt 0.4853 0.3203
vt 0.3223 0.0779
vt 0.4853 0.0779
vt 0.0723 0.3203
vt 0.2353 0.3203
vt 0.2144 0.2995
vt 0.0932 0.2995
vt 0.2144 0.0779
vt 0.0932 0.0779
vt 0.0723 0.3621
vt 0.2353 0.3621
vt 0.2353 0.0779
vt 0.2353 0.4039
vt 0.0723 0.4039
vt 0.0723 0.5419
vt 0.2353 0.5419
vt 0.2353 0.5711
vt 0.0723 0.5711
vt 0.0723 0.0779
vt 0.5898 0.3612
vt 0.5898 0.3194
vt 0.7486 0.3194
vt 0.7486 0.3612
vt 0.6107 0.2985
vt 0.7277 0.2985
vt 0.7486 0.0770
vt 0.5606 0.2985
vt 0.5898 0.0770
vt 0.5606 0.4030
vt 0.5898 0.4030
vt 0.5898 0.5409
vt 0.5606 0.5409
vt 0.5898 0.5701
vt 0.7486 0.5409
vt 0.7486 0.5701
vt 0.7486 0.4030
vt 0.6107 0.0770
vt 0.7277 0.0770
vt 0.8006 0.2995
vt 0.7797 0.3203
vt 0.7797 0.0779
vt 0.9385 0.3203
vt 0.9385 0.3621
vt 0.7797 0.3621
vt 0.8006 0.0779
vt 0.9176 0.0779
vt 0.9385 0.0779
vt 0.9176 0.2995
vt 0.9678 0.2995
vt 0.9385 0.3203
vt 0.9678 0.4039
vt 0.9385 0.4039
vt 0.9678 0.5419
vt 0.9385 0.5711
vt 0.9385 0.5419
vt 0.7797 0.5711
vt 0.7797 0.5419
vt 0.7797 0.4039
vn 0.0000 -1.0000 0.0000
vn 0.0000 1.0000 0.0000
vn 0.0000 0.0000 1.0000
vn 0.0000 0.8137 -0.5812
vn 0.0000 -0.1309 -0.9914
vn 0.0000 0.0000 -1.0000
vn -0.0000 0.7071 -0.7071
vn 0.0000 -0.5735 -0.8192
vn -1.0000 0.0000 0.0000
vn -0.5300 0.8480 0.0000
vn -0.5300 0.0000 0.8480
vn -0.8137 0.0000 -0.5812
vn -0.6585 0.0000 -0.7526
vn -0.6585 0.7526 0.0000
vn -0.7809 -0.6247 0.0000
vn -0.5262 0.6013 -0.6013
vn -0.5826 -0.4661 -0.6658
vn -0.5300 0.0000 -0.8480
vn -0.9888 -0.1493 0.0000
vn 0.5300 0.0000 0.8480
vn 1.0000 0.0000 0.0000
vn 0.9888 -0.1493 0.0000
vn 0.5300 0.8480 0.0000
vn 0.5300 0.0000 -0.8480
vn 0.8137 0.0000 -0.5812
vn 0.5826 -0.4661 -0.6658
vn 0.5262 0.6013 -0.6013
vn 0.6585 0.0000 -0.7526
vn 0.6585 0.7526 0.0000
vn 0.7809 -0.6247 0.0000
usemtl None
s off
f 2/1/1 4/2/1 3/3/1 1/4/1
f 8/5/2 7/6/2 6/7/2 5/8/2
f 15/9/3 14/10/3 9/11/3 10/12/3
f 18/13/3 19/14/3 17/15/3 16/16/3
f 14/10/3 15/9/3 19/14/3 18/13/3
f 16/16/3 17/15/3 21/17/3 20/18/3
f 13/19/3 9/11/3 11/20/3 12/21/3
f 22/22/4 23/23/4 29/24/4 28/25/4
f 28/25/5 29/24/5 31/26/5 30/27/5
f 22/22/6 26/28/6 27/29/6 23/23/6
f 25/30/5 31/26/5 29/24/5
f 37/31/6 34/32/6 35/33/6 36/34/6
f 33/35/7 36/34/7 35/33/7 32/36/7
f 27/29/8 26/28/8 34/32/8 37/31/8
f 30/27/5 24/37/5 28/25/5
f 43/38/9 39/39/9 38/40/9 42/41/9
f 38/40/10 39/39/10 46/42/10 45/43/10
f 38/40/11 45/43/11 40/44/11
f 39/39/12 44/45/12 41/46/12
f 53/47/13 56/48/13 55/49/13 54/50/13
f 52/51/14 55/49/14 49/52/14 51/53/14
f 43/38/15 42/41/15 50/54/15 56/48/15
f 54/50/16 55/49/16 52/51/16
f 53/47/17 43/38/17 56/48/17
f 50/54/9 49/52/9 55/49/9 56/48/9
f 39/39/18 41/46/18 46/42/18
f 41/46/19 48/55/19 46/42/19
f 47/56/19 45/43/19 46/42/19 48/55/19
f 40/44/19 45/43/19 47/56/19
f 65/57/20 57/58/20 59/59/20
f 58/60/21 62/61/21 63/62/21 57/58/21
f 59/59/22 67/63/22 65/57/22
f 68/64/22 60/65/22 66/66/22
f 65/57/22 67/63/22 68/64/22 66/66/22
f 57/58/23 65/57/23 66/66/23 58/60/23
f 66/66/24 60/65/24 58/60/24
f 64/67/25 61/68/25 60/65/25
f 74/69/26 76/70/26 62/61/26
f 73/71/27 71/72/27 75/73/27
f 74/69/28 73/71/28 75/73/28 76/70/28
f 71/72/29 72/74/29 69/75/29 75/73/29
f 63/62/30 62/61/30 76/70/30 70/76/30
f 70/76/21 76/70/21 75/73/21 69/75/21
l 78 80
l 77 79
