# Blender v2.78 (sub 0) OBJ File: 'rig.blend'
# www.blender.org
mtllib multi_right_arm.mtl
o right_arm
v 0.125135 -0.778456 0.505876
v -0.145135 -0.778456 0.505876
v -0.145135 -0.778457 0.242536
v 0.125135 -0.778457 0.242536
v -0.145135 0.021547 0.242536
v -0.145135 0.021547 0.505876
v 0.125135 0.021547 0.505876
v 0.125135 0.021547 0.242536
v -0.145135 -0.324953 0.242536
v 0.125135 -0.324953 0.242536
v 0.125135 -0.394253 0.242536
v -0.145135 -0.394253 0.242536
v 0.180575 -0.255653 0.242536
v -0.200575 -0.255653 0.242536
v -0.200575 -0.026963 0.242536
v 0.180575 -0.026963 0.242536
v -0.145135 0.021547 0.242536
v 0.125135 0.021547 0.242536
v -0.145135 -0.394253 0.242536
v 0.125135 -0.778457 0.242536
v -0.145135 -0.778457 0.242536
v 0.125135 -0.394253 0.505876
v -0.145135 -0.394253 0.505876
v -0.110485 -0.428903 0.554386
v 0.090485 -0.428903 0.554386
v -0.110485 -0.778456 0.505876
v 0.090485 -0.778456 0.505876
v 0.125135 -0.324953 0.505876
v -0.145135 -0.324953 0.505876
v -0.145135 -0.778456 0.505876
v -0.145135 -0.255653 0.554386
v 0.125135 -0.255653 0.554386
v 0.125135 -0.026963 0.554386
v -0.145135 -0.026963 0.554386
v -0.145135 0.021547 0.505876
v 0.125135 0.021547 0.505876
v 0.125135 -0.778456 0.505876
v 0.125135 -0.324953 0.505876
v 0.125135 -0.394253 0.505876
v 0.125135 -0.394253 0.242536
v 0.125135 -0.324953 0.242536
v 0.180575 -0.428903 0.471226
v 0.180575 -0.428903 0.277186
v 0.125135 -0.778457 0.242536
v 0.090485 -0.428903 0.554386
v 0.125135 -0.778456 0.505876
v 0.125135 -0.255653 0.554386
v 0.180575 -0.255653 0.505876
v 0.180575 -0.026963 0.505876
v 0.125135 -0.026963 0.554386
v 0.125135 0.021547 0.505876
v 0.180575 -0.026963 0.242536
v 0.125135 0.021547 0.242536
v 0.180575 -0.255653 0.242536
v 0.125135 -0.778457 0.471226
v 0.125135 -0.778457 0.277186
v -0.200575 -0.428903 0.277186
v -0.145135 -0.394253 0.242536
v -0.145135 -0.778457 0.242536
v -0.145135 -0.394253 0.505876
v -0.145135 -0.324953 0.505876
v -0.145135 -0.324953 0.242536
v -0.145135 -0.778457 0.277186
v -0.145135 -0.778457 0.471226
v -0.145135 -0.778456 0.505876
v -0.200575 -0.428903 0.471226
v -0.110485 -0.428903 0.554386
v -0.145135 -0.394253 0.505876
v -0.145135 -0.255653 0.554386
v -0.200575 -0.255653 0.505876
v -0.145135 -0.026963 0.554386
v -0.145135 0.021547 0.505876
v -0.200575 -0.026963 0.505876
v -0.145135 0.021547 0.242536
v -0.200575 -0.026963 0.242536
v -0.200575 -0.255653 0.242536
v -0.145135 -0.394253 0.242536
v -0.145135 -0.394253 0.242536
v -0.145135 -0.394253 0.505876
v -0.145135 -0.394253 0.505876
vt 0.5637 0.6551
vt 0.7267 0.6551
vt 0.7267 0.8139
vt 0.5637 0.8139
vt 0.4853 0.6547
vt 0.4853 0.8135
vt 0.3223 0.8135
vt 0.3223 0.6547
vt 0.4853 0.3621
vt 0.3223 0.3621
vt 0.3223 0.3203
vt 0.4853 0.3203
vt 0.2889 0.4039
vt 0.5188 0.4039
vt 0.5188 0.5419
vt 0.2889 0.5419
vt 0.4853 0.5711
vt 0.3223 0.5711
vt 0.4853 0.3203
vt 0.3223 0.0779
vt 0.4853 0.0779
vt 0.0723 0.3203
vt 0.2353 0.3203
vt 0.2144 0.2995
vt 0.0932 0.2995
vt 0.2144 0.0779
vt 0.0932 0.0779
vt 0.0723 0.3621
vt 0.2353 0.3621
vt 0.2353 0.0779
vt 0.2353 0.4039
vt 0.0723 0.4039
vt 0.0723 0.5419
vt 0.2353 0.5419
vt 0.2353 0.5711
vt 0.0723 0.5711
vt 0.0723 0.0779
vt 0.5898 0.3612
vt 0.5898 0.3194
vt 0.7486 0.3194
vt 0.7486 0.3612
vt 0.6107 0.2985
vt 0.7277 0.2985
vt 0.7486 0.0770
vt 0.5606 0.2985
vt 0.5898 0.0770
vt 0.5606 0.4030
vt 0.5898 0.4030
vt 0.5898 0.5409
vt 0.5606 0.5409
vt 0.5898 0.5701
vt 0.7486 0.5409
vt 0.7486 0.5701
vt 0.7486 0.4030
vt 0.6107 0.0770
vt 0.7277 0.0770
vt 0.8006 0.2995
vt 0.7797 0.3203
vt 0.7797 0.0779
vt 0.9385 0.3203
vt 0.9385 0.3621
vt 0.7797 0.3621
vt 0.8006 0.0779
vt 0.9176 0.0779
vt 0.9385 0.0779
vt 0.9176 0.2995
vt 0.9678 0.2995
vt 0.9385 0.3203
vt 0.9678 0.4039
vt 0.9385 0.4039
vt 0.9678 0.5419
vt 0.9385 0.5711
vt 0.9385 0.5419
vt 0.7797 0.5711
vt 0.7797 0.5419
vt 0.7797 0.4039
vn -0.0000 -1.0000 0.0000
vn 0.0000 1.0000 0.0000
vn 0.0000 -0.0000 -1.0000
vn 0.0000 0.8137 0.5812
vn 0.0000 -0.1375 0.9905
vn -0.0000 0.0000 1.0000
vn 0.0000 0.7071 0.7071
vn 0.0000 -0.5735 0.8192
vn 1.0000 0.0000 0.0000
vn 0.5300 0.8480 0.0000
vn 0.5300 -0.0000 -0.8480
vn 0.8137 0.0000 0.5812
vn 0.6585 0.0000 0.7526
vn 0.6585 0.7526 0.0000
vn 0.7809 -0.6247 0.0000
vn 0.5262 0.6013 0.6013
vn 0.5826 -0.4661 0.6658
vn 0.5300 0.0000 0.8480
vn 0.9877 -0.1566 0.0000
vn -0.5300 -0.0000 -0.8480
vn -1.0000 0.0000 0.0000
vn -0.9877 -0.1566 0.0000
vn -0.5300 0.8480 0.0000
vn -0.5300 -0.0000 0.8480
vn -0.8137 -0.0000 0.5812
vn -0.5826 -0.4661 0.6658
vn -0.5262 0.6013 0.6013
vn -0.6585 -0.0000 0.7526
vn -0.6585 0.7526 0.0000
vn -0.7809 -0.6247 0.0000
usemtl right_arm
s 1
f 1/1/1 2/2/1 3/3/1 4/4/1
f 5/5/2 6/6/2 7/7/2 8/8/2
f 9/9/3 10/10/3 11/11/3 12/12/3
f 13/13/3 14/14/3 15/15/3 16/16/3
f 10/10/3 9/9/3 14/14/3 13/13/3
f 16/16/3 15/15/3 17/17/3 18/18/3
f 19/19/3 11/11/3 20/20/3 21/21/3
f 22/22/4 23/23/4 24/24/4 25/25/4
f 25/25/5 24/24/5 26/26/5 27/27/5
f 22/22/6 28/28/6 29/29/6 23/23/6
f 30/30/5 26/26/5 24/24/5
f 31/31/6 32/32/6 33/33/6 34/34/6
f 35/35/7 34/34/7 33/33/7 36/36/7
f 29/29/8 28/28/8 32/32/8 31/31/8
f 27/27/5 37/37/5 25/25/5
f 38/38/9 39/39/9 40/40/9 41/41/9
f 40/40/10 39/39/10 42/42/10 43/43/10
f 40/40/11 43/43/11 44/44/11
f 39/39/12 45/45/12 46/46/12
f 47/47/13 48/48/13 49/49/13 50/50/13
f 51/51/14 49/49/14 52/52/14 53/53/14
f 38/38/15 41/41/15 54/54/15 48/48/15
f 50/50/16 49/49/16 51/51/16
f 47/47/17 38/38/17 48/48/17
f 54/54/9 52/52/9 49/49/9 48/48/9
f 39/39/18 46/46/18 42/42/18
f 46/46/19 55/55/19 42/42/19
f 56/56/19 43/43/19 42/42/19 55/55/19
f 44/44/19 43/43/19 56/56/19
f 57/57/20 58/58/20 59/59/20
f 60/60/21 61/61/21 62/62/21 58/58/21
f 59/59/22 63/63/22 57/57/22
f 64/64/22 65/65/22 66/66/22
f 57/57/22 63/63/22 64/64/22 66/66/22
f 58/58/23 57/57/23 66/66/23 60/60/23
f 66/66/24 65/65/24 60/60/24
f 67/67/25 68/68/25 65/65/25
f 69/69/26 70/70/26 61/61/26
f 71/71/27 72/72/27 73/73/27
f 69/69/28 71/71/28 73/73/28 70/70/28
f 72/72/29 74/74/29 75/75/29 73/73/29
f 62/62/30 61/61/30 70/70/30 76/76/30
f 76/76/21 70/70/21 73/73/21 75/75/21
l 79 80
l 77 78
