# Blender v2.78 (sub 0) OBJ File: 'rig.blend'
# www.blender.org
mtllib multi_right_foot.mtl
o right_foot
v -0.122111 -1.539993 0.233633
v 0.093869 -1.532842 0.313432
v -0.139192 -1.532842 0.280203
v 0.167700 -1.539993 0.233633
v 0.204495 -1.498627 0.299142
v -0.143489 -1.365744 0.255682
v 0.093869 -1.382290 0.284989
v 0.113047 -1.365744 0.255682
v 0.204495 -1.464413 0.299142
v 0.289351 -1.463961 0.233633
v -0.173406 -1.399653 0.270699
v -0.125883 -1.382290 0.280203
v 0.211338 -1.472967 0.299142
v 0.296955 -1.473465 0.233633
v 0.211338 -1.489646 0.299142
v 0.296955 -1.491998 0.233633
v 0.299155 -1.482785 0.233633
v 0.289351 -1.501977 0.233633
v -0.122111 -1.539993 0.013140
v -0.173405 -1.498627 -0.023925
v -0.139191 -1.532842 -0.033429
v -0.214694 -1.393879 0.013140
v -0.187091 -1.464413 -0.023925
v -0.229901 -1.463961 0.013140
v -0.214694 -1.501977 0.013140
v -0.187092 -1.464413 0.270699
v -0.214694 -1.393879 0.233633
v -0.229901 -1.463961 0.233633
v -0.214694 -1.501977 0.233633
v -0.173406 -1.498627 0.270699
v 0.289351 -1.501977 0.013140
v 0.296955 -1.491998 0.013140
v 0.299155 -1.482785 0.013140
v 0.296955 -1.473465 0.013140
v 0.289351 -1.463961 0.013140
v -0.143499 -1.365743 -0.008909
v 0.113047 -1.365743 -0.008909
v 0.167700 -1.539993 0.013140
v 0.093869 -1.532842 -0.066693
v 0.204496 -1.498627 -0.052437
v 0.093869 -1.382290 -0.038181
v 0.204496 -1.464413 -0.052437
v -0.173405 -1.399653 -0.023925
v -0.125890 -1.382290 -0.033429
v 0.211339 -1.472966 -0.052437
v 0.211339 -1.489646 -0.052437
vt 0.0903 0.0866
vt 0.0000 0.2982
vt 0.0376 0.0706
vt 0.0903 0.3696
vt 0.0162 0.4096
vt 0.5045 0.3905
vt 0.4464 0.1817
vt 0.5045 0.1820
vt 0.4304 0.0828
vt 0.5045 0.0000
vt 0.4626 0.4443
vt 0.4518 0.3960
vt 0.5121 0.4936
vt 0.4989 0.5768
vt 0.5013 0.4861
vt 0.4800 0.5767
vt 0.4804 0.4860
vt 0.4908 0.4839
vt 0.4691 0.4934
vt 0.4698 0.5834
vt 0.0730 0.5006
vt 0.0730 0.5734
vt 0.0365 0.5372
vt 0.9889 0.0145
vt 0.9075 0.0377
vt 0.9096 0.0000
vt 0.6980 0.5203
vt 0.6840 0.4839
vt 0.7240 0.4839
vt 0.5094 0.9623
vt 0.5909 0.9855
vt 0.5116 1.0000
vt 0.6840 0.7731
vt 0.6980 0.7367
vt 0.7240 0.7731
vt 0.0365 0.5006
vt 0.0365 0.5734
vt 0.0000 0.5368
vt 0.3400 0.4922
vt 0.3400 0.5006
vt 0.0903 0.5006
vt 0.0903 0.4922
vt 0.7336 0.4839
vt 0.7444 0.4839
vt 0.7444 0.7003
vt 0.7336 0.7003
vt 0.7568 0.4839
vt 0.7568 0.7003
vt 0.7542 0.3905
vt 0.7542 0.4839
vt 0.5045 0.4839
vt 0.7542 0.0000
vt 0.7542 0.1820
vt 0.3400 0.3696
vt 0.3400 0.0866
vt 0.4304 0.2982
vt 0.3927 0.0706
vt 0.4142 0.4096
vt 0.8123 0.1817
vt 0.8284 0.0828
vt 0.7961 0.4443
vt 0.8069 0.3960
vt 0.8969 0.4232
vt 0.9101 0.5064
vt 0.8994 0.5139
vt 0.8780 0.4233
vt 0.8888 0.5161
vt 0.8784 0.5140
vt 0.8671 0.5066
vt 0.8679 0.4166
vt 0.6535 0.7367
vt 0.6535 0.5203
vt 0.6020 0.7367
vt 0.6020 0.5203
vt 0.0903 0.0000
vt 0.3400 0.0000
vt 0.4304 0.6927
vt 0.5085 0.5836
vt 0.6020 0.6903
vt 0.9066 0.4164
vt 0.8284 0.3073
vt 1.0000 0.3097
vt 0.8297 0.0837
vt 1.0000 0.0959
vt 0.9807 0.0507
vt 0.8688 0.0512
vt 0.6020 0.9041
vt 0.4316 0.9163
vt 0.5827 0.9493
vt 0.4707 0.9488
vt 0.3819 0.0407
vt 0.0484 0.0407
vt 0.7240 0.4839
vt 0.7240 0.7003
vn -0.1504 -0.9841 0.0948
vn 0.0838 -0.9817 0.1710
vn -0.0206 -0.9893 0.1444
vn 0.1887 -0.9697 0.1552
vn 0.2929 -0.8741 0.3875
vn -0.2388 0.9044 0.3535
vn 0.1755 0.8018 0.5713
vn 0.2726 0.9117 0.3074
vn 0.4820 0.6010 0.6376
vn 0.6327 0.6938 0.3439
vn -0.4251 0.6527 0.6271
vn -0.1369 0.7727 0.6198
vn 0.5882 0.2572 0.7668
vn 0.5940 0.1675 0.7868
vn 0.5854 -0.2394 0.7746
vn 0.5905 -0.1638 0.7902
vn 0.5979 0.0000 0.8015
vn 0.5455 -0.4156 0.7278
vn -0.6806 -0.7193 0.1392
vn -0.6493 0.1388 -0.7478
vn -0.4701 -0.0345 -0.8819
vn -0.6541 -0.0475 -0.7549
vn -0.6347 -0.2539 -0.7299
vn -0.4924 -0.1970 -0.8478
vn -0.4701 -0.0345 0.8819
vn -0.6493 0.1388 0.7478
vn -0.6541 -0.0475 0.7549
vn -0.6347 -0.2539 0.7299
vn -0.4924 -0.1970 0.8478
vn -0.6806 -0.7193 -0.1392
vn 0.7954 -0.6060 -0.0000
vn 0.9036 -0.4284 -0.0000
vn 1.0000 -0.0013 0.0000
vn 0.8990 0.4379 0.0000
vn 0.6328 0.6938 -0.3437
vn -0.2388 0.9044 -0.3535
vn -0.4051 0.9003 -0.1593
vn -0.4051 0.9003 0.1593
vn 0.2725 0.9117 -0.3075
vn 0.1887 -0.9697 -0.1551
vn 0.2958 -0.9465 -0.1288
vn 0.2958 -0.9465 0.1288
vn -0.1504 -0.9841 -0.0948
vn 0.0838 -0.9817 -0.1710
vn -0.0206 -0.9893 -0.1444
vn 0.2928 -0.8743 -0.3872
vn 0.1752 0.8016 -0.5717
vn 0.4821 0.6012 -0.6373
vn -0.4251 0.6527 -0.6271
vn -0.1369 0.7728 -0.6198
vn 0.5885 0.2573 -0.7664
vn 0.5944 0.1676 -0.7865
vn 0.5857 -0.2396 -0.7743
vn 0.5983 0.0000 -0.8012
vn 0.5909 -0.1639 -0.7899
vn 0.5458 -0.4158 -0.7275
vn -0.9285 -0.3714 0.0000
vn -0.9773 0.2120 0.0000
vn -0.3748 -0.9128 0.1620
vn -0.3748 -0.9128 -0.1621
vn -0.0223 0.1328 0.9909
vn 0.0553 0.1177 0.9915
vn -0.0090 0.1856 0.9826
vn 0.1015 0.0381 0.9941
vn 0.1313 -0.0292 0.9909
vn 0.1653 -0.1260 0.9782
vn 0.0549 0.1178 -0.9915
vn -0.0225 0.1331 -0.9909
vn -0.0091 0.1861 -0.9825
vn 0.1013 0.0380 -0.9941
vn 0.1310 -0.0291 -0.9910
vn 0.1649 -0.1257 -0.9783
vn -0.1742 0.0019 -0.9847
vn -0.1408 0.0524 -0.9886
vn -0.1911 0.0209 -0.9814
vn -0.1408 0.0523 0.9887
vn -0.1741 0.0019 0.9847
vn -0.1911 0.0209 0.9814
vn -0.3388 -0.8252 -0.4520
vn -0.6509 0.1376 -0.7466
vn -0.6510 0.1376 0.7465
vn -0.3388 -0.8252 0.4520
usemtl right_foot
s 1
f 1/1/1 2/2/2 3/3/3
f 4/4/4 5/5/5 2/2/2
f 6/6/6 7/7/7 8/8/8
f 8/8/8 9/9/9 10/10/10
f 6/6/6 11/11/11 12/12/12
f 10/13/10 13/14/13 14/15/14
f 14/15/14 15/16/15 16/17/16 17/18/17
f 18/19/18 15/16/15 5/20/18
f 19/21/19 20/22/19 21/23/19
f 22/24/20 23/25/21 24/26/22
f 25/27/23 23/28/21 20/29/24
f 26/30/25 27/31/26 28/32/27
f 26/33/25 29/34/28 30/35/29
f 30/36/30 1/37/30 3/38/30
f 31/39/31 32/40/32 16/41/32 18/42/31
f 33/43/33 34/44/34 14/45/34 17/46/33
f 34/44/34 35/47/35 10/48/10 14/45/34
f 36/49/36 22/50/37 27/51/38 6/6/6
f 35/52/35 37/53/39 8/8/8 10/10/10
f 37/53/39 36/49/36 6/6/6 8/8/8
f 38/54/40 31/39/41 18/42/42 4/4/4
f 19/55/43 38/54/40 4/4/4 1/1/1
f 39/56/44 19/55/43 21/57/45
f 40/58/46 38/54/40 39/56/44
f 41/59/47 36/49/36 37/53/39
f 42/60/48 37/53/39 35/52/35
f 43/61/49 36/49/36 44/62/50
f 45/63/51 35/64/35 34/65/52
f 46/66/53 34/65/52 33/67/54 32/68/55
f 46/66/53 31/69/56 40/70/56
f 29/34/57 28/71/57 24/72/57 25/27/57
f 28/71/58 27/73/58 22/74/58 24/72/58
f 1/1/1 29/75/59 25/76/60 19/55/43
f 2/77/61 9/78/62 7/79/63
f 13/14/64 9/78/62 2/77/61
f 15/16/65 13/14/64 2/77/61
f 5/20/66 15/16/65 2/77/61
f 42/80/67 39/81/68 41/82/69
f 45/63/70 39/81/68 42/80/67
f 46/66/71 39/81/68 45/63/70
f 40/70/72 39/81/68 46/66/71
f 21/83/73 44/84/74 39/81/68
f 44/84/74 41/82/69 39/81/68
f 44/84/74 21/83/73 43/85/75
f 23/25/21 43/85/75 21/83/73
f 20/86/24 23/25/21 21/83/73
f 7/79/63 12/87/76 2/77/61
f 2/77/61 12/87/76 3/88/77
f 12/87/76 11/89/78 3/88/77
f 11/89/78 26/30/25 3/88/77
f 3/88/77 26/30/25 30/90/29
f 1/1/1 4/4/4 2/2/2
f 4/4/4 18/42/42 5/5/5
f 6/6/6 12/12/12 7/7/7
f 8/8/8 7/7/7 9/9/9
f 6/6/6 27/51/38 11/11/11
f 10/13/10 9/78/9 13/14/13
f 14/15/14 13/14/13 15/16/15
f 18/19/18 16/17/16 15/16/15
f 19/55/43 25/76/60 20/91/79
f 22/24/20 43/85/80 23/25/21
f 25/27/23 24/72/22 23/28/21
f 26/30/25 11/89/81 27/31/26
f 26/33/25 28/71/27 29/34/28
f 30/92/82 29/75/59 1/1/1
f 39/56/44 38/54/40 19/55/43
f 40/58/46 31/39/41 38/54/40
f 41/59/47 44/62/50 36/49/36
f 42/60/48 41/59/47 37/53/39
f 43/61/49 22/50/37 36/49/36
f 45/63/51 42/80/48 35/64/35
f 46/66/53 45/63/51 34/65/52
f 46/66/53 32/68/55 31/69/56
f 32/93/32 33/43/33 17/46/33 16/94/32
