# Blender v2.78 (sub 0) OBJ File: 'Empty.blend'
# www.blender.org
mtllib infinite_barrel.mtl
o Cube.002
v 0.950000 0.050000 1.000000
v 0.950000 0.950000 1.000000
v 0.950000 0.950000 0.950000
v 0.950000 0.050000 0.950000
v 0.050000 0.050000 1.000000
v 0.050000 0.950000 1.000000
v 0.000000 1.000000 1.000000
v 0.000000 -0.000000 1.000000
v 0.050000 0.050000 0.950000
v 0.050000 0.950000 0.950000
v 0.950000 0.950000 1.000000
v 1.000000 1.000000 1.000000
v 1.000000 -0.000000 1.000000
v 0.900000 0.900000 0.950000
v 0.900000 0.100000 0.950000
v 0.100000 0.100000 0.950000
v 0.100000 0.900000 0.950000
v 0.750000 0.250000 0.800000
v 0.250000 0.250000 0.800000
v 0.750000 0.750000 0.800000
v 0.250000 0.750000 0.800000
v 1.000000 1.000000 0.000000
v 1.000000 0.000000 0.000000
v 0.950000 0.050000 0.000000
v 0.950000 0.950000 0.000000
v 0.050000 0.950000 0.050000
v 0.050000 0.050000 0.050000
v 0.050000 0.050000 0.000000
v 0.050000 0.950000 0.000000
v 0.950000 0.950000 0.050000
v 0.950000 0.050000 0.050000
v 0.900000 0.100000 0.050000
v 0.900000 0.900000 0.050000
v 0.100000 0.900000 0.050000
v 0.100000 0.100000 0.050000
v 0.750000 0.750000 0.200000
v 0.250000 0.750000 0.200000
v 0.750000 0.250000 0.200000
v 0.250000 0.250000 0.200000
v 0.000000 0.000000 0.000000
v 0.000000 1.000000 0.000000
v 0.050000 1.000000 0.050000
v 0.050000 1.000000 0.950000
v 0.950000 1.000000 0.950000
v 0.900000 0.950000 0.100000
v 0.900000 0.950000 0.900000
v 0.100000 0.950000 0.900000
v 0.100000 0.950000 0.100000
v 0.750000 0.800000 0.750000
v 0.250000 0.800000 0.750000
v 0.750000 0.800000 0.250000
v 0.250000 0.800000 0.250000
v 0.950000 1.000000 0.050000
v 0.050000 -0.000000 0.950000
v 0.050000 -0.000000 0.050000
v 0.950000 -0.000000 0.950000
v 0.950000 -0.000000 0.050000
v 0.900000 0.050000 0.900000
v 0.900000 0.050000 0.100000
v 0.100000 0.050000 0.100000
v 0.100000 0.050000 0.900000
v 0.750000 0.200000 0.250000
v 0.250000 0.200000 0.250000
v 0.750000 0.200000 0.750000
v 0.250000 0.200000 0.750000
v 0.000000 0.050000 0.050000
v 0.000000 0.050000 0.950000
v 0.000000 0.950000 0.950000
v 0.000000 0.950000 0.050000
v 0.050000 0.100000 0.900000
v 0.050000 0.100000 0.100000
v 0.050000 0.900000 0.100000
v 0.050000 0.900000 0.900000
v 0.200000 0.250000 0.250000
v 0.200000 0.750000 0.250000
v 0.200000 0.250000 0.750000
v 0.200000 0.750000 0.750000
v 1.000062 0.950000 0.049875
v 1.000062 0.050000 0.049875
v 1.000062 0.050000 0.049875
v 1.000062 0.950000 0.049875
v 1.000000 0.950000 0.950000
v 1.000000 0.050000 0.950000
v 1.000062 0.050000 0.049875
v 0.950063 0.900000 0.099875
v 0.950063 0.100000 0.099875
v 0.950000 0.100000 0.900000
v 0.950000 0.900000 0.900000
v 0.800063 0.250000 0.249875
v 0.800000 0.250000 0.750000
v 0.800063 0.750000 0.249875
v 0.800063 0.750000 0.749875
v 0.950000 0.050000 1.000000
v 0.950000 0.950000 1.000000
v 0.950000 0.950000 0.950000
v 0.950000 0.050000 0.950000
v 0.050000 0.050000 1.000000
v 0.050000 0.950000 1.000000
v 0.050000 0.050000 0.950000
v 0.050000 0.950000 0.950000
v 0.950000 0.050000 0.000000
v 0.950000 0.950000 0.000000
v 0.050000 0.950000 0.050000
v 0.050000 0.050000 0.050000
v 0.050000 0.050000 0.000000
v 0.050000 0.950000 0.000000
v 0.950000 0.950000 0.050000
v 0.950000 0.050000 0.050000
v 0.050000 1.000000 0.050000
v 0.050000 1.000000 0.950000
v 0.950000 1.000000 0.950000
v 0.950000 1.000000 0.050000
v 0.050000 -0.000000 0.950000
v 0.050000 -0.000000 0.050000
v 0.950000 -0.000000 0.950000
v 0.950000 -0.000000 0.050000
v 0.000000 0.050000 0.050000
v 0.000000 0.050000 0.950000
v 0.000000 0.950000 0.950000
v 0.000000 0.950000 0.050000
v 1.000062 0.950000 0.049875
v 1.000062 0.050000 0.049875
v 1.000000 0.950000 0.950000
v 1.000000 0.050000 0.950000
v 0.750000 1.000000 0.750000
v 0.750000 1.000000 0.250000
v 0.250000 1.000000 0.750000
v 0.250000 1.000000 0.250000
v 0.750000 -0.000000 0.750000
v 0.250000 -0.000000 0.750000
v 0.750000 -0.000000 0.250000
v 0.250000 -0.000000 0.250000
v 1.000063 0.249987 0.249888
v 1.000063 0.749987 0.249888
v 1.000063 0.749987 0.749888
v 1.000000 0.249987 0.750013
v -0.000000 0.250000 0.750000
v -0.000000 0.750000 0.750000
v -0.000000 0.750000 0.250000
v -0.000000 0.250000 0.250000
v 0.750000 0.750000 1.000000
v 0.250000 0.750000 1.000000
v 0.250000 0.250000 1.000000
v 0.750000 0.250000 1.000000
v 0.750000 0.250000 0.000000
v 0.250000 0.250000 0.000000
v 0.750000 0.750000 0.000000
v 0.250000 0.750000 0.000000
vt 0.0500 0.0500
vt 0.0500 0.9500
vt 0.0000 1.0000
vt 0.0000 0.0000
vt 0.0500 0.9500
vt 0.0500 0.9500
vt 0.0000 0.9500
vt 0.0000 0.9500
vt 0.0000 1.0000
vt 1.0000 0.0000
vt 0.9500 0.0500
vt 0.9050 0.0950
vt 0.9050 0.9050
vt 0.8600 0.8600
vt 0.8600 0.1400
vt 0.1400 0.1400
vt 0.1400 0.8600
vt 0.0950 0.9050
vt 0.0950 0.0950
vt 0.7337 0.2663
vt 0.2702 0.2663
vt 0.7337 0.7298
vt 0.2702 0.7298
vt 0.2735 0.8827
vt 0.2735 0.8714
vt 0.2735 0.8714
vt 0.2735 0.8827
vt 1.0000 1.0000
vt 0.9500 0.9500
vt 0.0000 1.0000
vt 0.0000 0.0000
vt 0.0500 0.0500
vt 0.0500 0.9500
vt 0.0950 0.9050
vt 0.0950 0.0950
vt 0.1400 0.1400
vt 0.1400 0.8600
vt 0.8600 0.8600
vt 0.8600 0.1400
vt 0.9050 0.0950
vt 0.9050 0.9050
vt 0.2702 0.7298
vt 0.7337 0.7298
vt 0.2702 0.2663
vt 0.7337 0.2663
vt 0.2735 0.8714
vt 0.2851 0.8714
vt 0.2851 0.8714
vt 0.2735 0.8714
vt 0.9500 0.9500
vt 0.9500 0.0500
vt 1.0000 0.0000
vt 1.0000 1.0000
vt 0.0000 0.0000
vt 1.0000 0.0000
vt 0.9500 0.0500
vt 0.0500 0.0500
vt 0.9050 0.0950
vt 0.9050 0.9050
vt 0.8600 0.8600
vt 0.8600 0.1400
vt 0.1400 0.1400
vt 0.1400 0.8600
vt 0.0950 0.9050
vt 0.0950 0.0950
vt 0.7337 0.2663
vt 0.2702 0.2663
vt 0.7337 0.7298
vt 0.2702 0.7298
vt 0.2851 0.8714
vt 0.2851 0.8827
vt 0.2851 0.8827
vt 0.2851 0.8714
vt 1.0000 1.0000
vt 0.9500 0.9500
vt 0.0500 0.9500
vt 0.0000 1.0000
vt 0.0500 0.9500
vt 0.9500 0.9500
vt 1.0000 1.0000
vt 0.0000 1.0000
vt 0.0000 0.0000
vt 1.0000 0.0000
vt 0.9500 0.0500
vt 0.0500 0.0500
vt 0.9050 0.0950
vt 0.9050 0.9050
vt 0.8600 0.8600
vt 0.8600 0.1400
vt 0.1400 0.1400
vt 0.1400 0.8600
vt 0.0950 0.9050
vt 0.0950 0.0950
vt 0.7337 0.2663
vt 0.2702 0.2663
vt 0.7337 0.7298
vt 0.2702 0.7298
vt 0.2735 0.8827
vt 0.2735 0.8714
vt 0.2735 0.8714
vt 0.2735 0.8827
vt 0.1400 0.1400
vt 0.8600 0.1400
vt 0.8600 0.8600
vt 0.1400 0.8600
vt 0.7337 0.2663
vt 0.7337 0.7298
vt 0.2702 0.2663
vt 0.2702 0.7298
vt 0.2851 0.8714
vt 0.2735 0.8714
vt 0.2735 0.8714
vt 0.2851 0.8714
vt 0.0500 0.0500
vt 0.9500 0.0500
vt 0.9500 0.9500
vt 0.0500 0.9500
vt 0.9501 0.9500
vt 0.9501 0.0500
vt 0.9501 0.0500
vt 0.9500 0.9500
vt 0.9500 0.0500
vt 0.9501 0.9500
vt 0.0500 0.9500
vt 0.0500 0.0500
vt 0.9501 0.0500
vt 0.0500 0.0500
vt 0.0000 0.0000
vt 0.8601 0.8600
vt 0.8601 0.1400
vt 0.1400 0.1400
vt 0.1400 0.8600
vt 0.0950 0.9050
vt 0.0950 0.0950
vt 0.7338 0.2663
vt 0.2702 0.2663
vt 0.7338 0.7298
vt 0.2703 0.7298
vt 0.2851 0.8714
vt 0.2851 0.8827
vt 0.2851 0.8827
vt 0.2851 0.8714
vt 0.2750 0.0625
vt 0.7250 0.0625
vt 0.7250 0.0375
vt 0.2750 0.0375
vt 0.0725 0.9275
vt 0.9275 0.9275
vt 0.9275 0.9750
vt 0.0725 0.9750
vt 0.2750 0.0625
vt 0.7250 0.0625
vt 0.7250 0.0375
vt 0.2750 0.0375
vt 0.0725 0.9275
vt 0.9275 0.9275
vt 0.9275 0.9750
vt 0.0725 0.9750
vt 0.9275 0.0725
vt 0.0725 0.0725
vt 0.0725 0.0250
vt 0.9275 0.0250
vt 0.9275 0.0725
vt 0.9275 0.0250
vt 0.9275 0.0250
vt 0.0725 0.0250
vt 0.0725 0.0725
vt 0.9275 0.0725
vt 0.0725 0.0250
vt 0.0725 0.0725
vt 0.9750 0.0725
vt 0.9750 0.9275
vt 0.0725 0.9275
vt 0.9275 0.9275
vt 0.9275 0.9750
vt 0.0725 0.9750
vt 0.0625 0.7250
vt 0.0625 0.2750
vt 0.0375 0.2750
vt 0.0375 0.7250
vt 0.2750 0.0625
vt 0.7250 0.0625
vt 0.2750 0.0375
vt 0.0250 0.9275
vt 0.0250 0.0725
vt 0.0725 0.0725
vt 0.9275 0.0725
vt 0.9275 0.0250
vt 0.0725 0.0250
vt 0.0725 0.0250
vt 0.9275 0.0250
vt 0.0250 0.0725
vt 0.0250 0.9275
vt 0.0725 0.9275
vt 0.0250 0.0725
vt 0.0250 0.9275
vt 0.0250 0.9275
vt 0.0250 0.0725
vt 0.0250 0.0725
vt 0.0250 0.9275
vt 0.0625 0.2750
vt 0.0625 0.7250
vt 0.0375 0.7250
vt 0.0375 0.2750
vt 0.9750 0.9275
vt 0.9750 0.0725
vt 0.9750 0.0724
vt 0.0625 0.7250
vt 0.0625 0.2749
vt 0.0375 0.7250
vt 0.2785 0.7225
vt 0.2785 0.2736
vt 0.7274 0.2736
vt 0.7274 0.7225
vt 0.2735 0.8827
vt 0.2735 0.8714
vt 0.2735 0.8714
vt 0.2735 0.8827
vt 0.2785 0.7225
vt 0.2785 0.2736
vt 0.7274 0.2736
vt 0.7274 0.7225
vt 0.2851 0.8714
vt 0.2851 0.8827
vt 0.2851 0.8827
vt 0.2851 0.8714
vt 0.2786 0.7225
vt 0.2785 0.2736
vt 0.7275 0.2736
vt 0.7275 0.7225
vt 0.2735 0.8714
vt 0.2735 0.8714
vt 0.2735 0.8827
vt 0.2735 0.8827
vt 0.2785 0.7225
vt 0.7274 0.7225
vt 0.7274 0.2736
vt 0.2785 0.2736
vt 0.2851 0.8827
vt 0.2851 0.8827
vt 0.2735 0.8827
vt 0.2735 0.8827
vt 0.2785 0.7225
vt 0.2785 0.2736
vt 0.7274 0.2736
vt 0.7274 0.7225
vt 0.2851 0.8827
vt 0.2851 0.8827
vt 0.2851 0.8714
vt 0.2851 0.8714
vt 0.7274 0.2736
vt 0.7274 0.7225
vt 0.2785 0.7225
vt 0.2785 0.2736
vt 0.2851 0.8827
vt 0.2735 0.8827
vt 0.2735 0.8827
vt 0.2851 0.8827
vn 0.0000 -0.0000 1.0000
vn 0.0000 -1.0000 0.0000
vn 0.5773 -0.5775 0.5773
vn 0.7071 0.0002 0.7071
vn -0.5774 0.5773 0.5774
vn -0.5774 -0.5774 0.5774
vn 0.0000 0.7071 0.7071
vn -0.7071 -0.0000 0.7071
vn 0.0000 -0.7071 0.7071
vn 0.7071 -0.0000 0.7071
vn -0.7071 0.7071 0.0000
vn -0.7071 -0.7071 -0.0000
vn 0.0000 0.0000 -1.0000
vn 0.0000 0.7071 -0.7071
vn -0.0000 -0.7071 -0.7071
vn -0.5774 -0.5774 -0.5774
vn -0.5774 0.5774 -0.5774
vn -0.7071 0.0000 -0.7071
vn 0.7071 0.0000 -0.7071
vn 0.7071 -0.7071 -0.0000
vn -0.0000 1.0000 0.0000
vn 0.7071 0.7071 0.0000
vn -1.0000 0.0000 0.0000
vn 1.0000 -0.0003 -0.0006
vn 1.0000 0.0000 -0.0012
vn 0.0025 -0.0000 1.0000
vn 1.0000 0.0006 0.0000
vn 1.0000 -0.0006 0.0000
vn 1.0000 0.0003 -0.0006
vn 1.0000 -0.0003 0.0000
vn 1.0000 0.0003 0.0000
vn 0.7071 0.7071 0.0001
vn 0.7072 -0.7070 0.0000
vn 0.7073 -0.0001 -0.7069
vn 0.0001 0.7071 -0.7071
vn 1.0000 0.0000 0.0000
vn -0.8165 -0.4082 -0.4082
vn -0.8165 0.4082 -0.4082
vn 0.4082 -0.4082 -0.8165
vn -0.7062 -0.0000 0.7080
vn -0.8159 -0.4091 0.4085
vn -0.7065 0.7077 0.0000
vn 0.0018 -0.7065 0.7077
vn 1.0000 -0.0001 0.0001
vn -0.0001 -0.7070 0.7072
vn 0.0000 0.7072 0.7070
usemtl None
f 5/1/1 6/2/1 7/3/1 8/4/1
f 10/5/2 3/6/2 11/7/2 6/8/2
f 6/8/1 11/7/1 12/9/1 7/3/1
f 8/4/1 13/10/1 1/11/1 5/1/1
f 4/12/3 3/13/4 14/14/1 15/15/1
f 16/16/1 17/17/1 10/18/5 9/19/6
f 16/16/7 15/15/7 18/20/7 19/21/7
f 15/15/8 14/14/8 20/22/8 18/20/8
f 14/14/9 17/17/9 21/23/9 20/22/9
f 17/17/10 16/16/10 19/21/10 21/23/10
f 17/17/1 14/14/1 3/13/4 10/18/5
f 9/19/6 4/12/3 15/15/1 16/16/1
f 21/24/11 19/25/12 143/26/12 142/27/11
f 13/10/1 12/28/1 2/29/1 1/11/1
f 6/2/1 2/29/1 12/28/1 7/3/1
f 22/30/13 23/31/13 24/32/13 25/33/13
f 30/34/14 31/35/15 32/36/13 33/37/13
f 34/38/13 35/39/13 27/40/16 26/41/17
f 34/38/15 33/37/15 36/42/15 37/43/15
f 33/37/18 32/36/18 38/44/18 36/42/18
f 32/36/14 35/39/14 39/45/14 38/44/14
f 35/39/19 34/38/19 37/43/19 39/45/19
f 35/39/13 32/36/13 31/35/15 27/40/16
f 26/41/17 30/34/14 33/37/13 34/38/13
f 38/46/20 39/47/12 146/48/12 145/49/20
f 29/50/13 28/51/13 40/52/13 41/53/13
f 28/51/13 24/32/13 23/31/13 40/52/13
f 41/53/13 22/30/13 25/33/13 29/50/13
f 7/54/21 12/55/21 44/56/21 43/57/21
f 3/58/21 30/59/14 45/60/21 46/61/21
f 47/62/21 48/63/21 26/64/17 10/65/5
f 47/62/14 46/61/14 49/66/14 50/67/14
f 46/61/11 45/60/11 51/68/11 49/66/11
f 45/60/7 48/63/7 52/69/7 51/68/7
f 48/63/22 47/62/22 50/67/22 52/69/22
f 48/63/21 45/60/21 30/59/14 26/64/17
f 10/65/5 3/58/21 46/61/21 47/62/21
f 49/70/10 51/71/19 126/72/19 125/73/10
f 12/55/21 22/74/21 53/75/21 44/56/21
f 43/57/21 42/76/21 41/77/21 7/54/21
f 42/76/21 53/75/21 22/74/21 41/77/21
f 54/78/2 56/79/2 13/80/2 8/81/2
f 40/82/2 23/83/2 57/84/2 55/85/2
f 31/86/15 4/87/3 58/88/2 59/89/2
f 60/90/2 61/91/2 9/92/6 27/93/16
f 60/90/9 59/89/9 62/94/9 63/95/9
f 59/89/12 58/88/12 64/96/12 62/94/12
f 58/88/15 61/91/15 65/97/15 64/96/15
f 61/91/20 60/90/20 63/95/20 65/97/20
f 61/91/2 58/88/2 4/87/3 9/92/6
f 27/93/16 31/86/15 59/89/2 60/90/2
f 65/98/8 63/99/18 132/100/18 130/101/8
f 23/83/2 13/80/2 56/79/2 57/84/2
f 55/85/2 54/78/2 8/81/2 40/82/2
f 27/40/16 9/19/6 70/102/23 71/103/23
f 72/104/23 73/105/23 10/18/5 26/41/17
f 72/104/8 71/103/8 74/106/8 75/107/8
f 71/103/11 70/102/11 76/108/11 74/106/11
f 70/102/18 73/105/18 77/109/18 76/108/18
f 73/105/12 72/104/12 75/107/12 77/109/12
f 73/105/23 70/102/23 9/19/6 10/18/5
f 26/41/17 27/40/16 71/103/23 72/104/23
f 74/110/15 76/111/9 137/112/9 140/113/15
f 40/52/23 8/4/23 67/114/23 66/115/23
f 69/116/23 68/117/23 7/3/23 41/53/23
f 68/117/23 67/114/23 8/4/23 7/3/23
f 41/53/23 40/52/23 66/115/23 69/116/23
f 23/83/24 22/74/25 78/118/25 79/119/24
f 80/120/26 78/118/26 30/121/26 31/122/26
f 3/6/2 30/121/2 81/123/2 82/124/2
f 82/124/27 81/123/27 22/74/27 12/9/27
f 83/125/21 84/126/21 31/122/21 4/127/21
f 13/128/28 23/83/24 84/126/24 83/125/28
f 31/86/24 30/59/29 85/129/29 86/130/24
f 87/131/30 88/132/31 3/133/4 4/134/3
f 87/131/32 86/130/32 89/135/32 90/136/32
f 86/130/10 85/129/10 91/137/10 89/135/10
f 85/129/33 88/132/33 92/138/33 91/137/33
f 88/132/34 87/131/34 90/136/34 92/138/34
f 88/132/31 85/129/29 30/59/29 3/133/4
f 4/134/3 31/86/24 86/130/24 87/131/30
f 89/139/15 91/140/35 134/141/35 133/142/15
f 23/83/24 22/74/25 78/118/25 84/126/24
f 84/126/26 78/118/26 30/121/26 31/122/26
f 83/125/36 82/124/36 12/9/36 13/128/36
f 82/124/27 78/118/27 22/74/27 12/9/27
f 13/128/28 23/83/24 79/119/24 83/125/28
f 93/143/23 94/144/23 95/145/37 96/146/38
f 99/147/19 100/148/39 98/149/20 97/150/36
f 97/151/21 93/152/21 96/153/14 99/154/14
f 100/155/39 95/156/15 94/157/2 98/158/20
f 103/159/10 104/160/10 105/161/36 106/162/36
f 104/160/7 108/163/7 101/164/21 105/161/21
f 102/165/23 101/166/23 108/167/40 107/168/41
f 106/169/2 102/165/2 107/168/9 103/170/9
f 100/148/20 103/159/20 109/171/36 110/172/36
f 103/173/9 107/174/9 112/175/1 109/176/1
f 111/177/23 112/178/23 107/179/41 95/180/37
f 110/181/13 111/182/13 95/145/15 100/183/39
f 104/160/22 99/147/22 113/184/36 114/185/36
f 99/186/14 96/187/14 115/188/13 113/189/13
f 114/190/1 116/191/1 108/163/7 104/160/7
f 116/192/23 115/193/23 96/194/38 108/167/42
f 117/195/21 118/196/21 99/147/22 104/160/22
f 103/170/20 100/155/20 119/197/2 120/198/2
f 100/155/39 99/186/19 118/199/13 119/197/13
f 120/200/1 117/195/1 104/160/10 103/173/10
f 122/201/26 121/202/43 107/203/41 108/204/40
f 96/187/38 95/156/37 123/205/15 124/206/14
f 95/156/37 107/168/41 121/207/43 123/205/15
f 124/208/14 122/209/21 108/204/42 96/210/38
f 128/211/21 127/212/21 125/213/21 126/214/21
f 52/215/18 50/216/8 127/217/8 128/218/18
f 50/216/8 49/70/10 125/73/10 127/217/8
f 51/71/19 52/215/18 128/218/18 126/72/19
f 130/219/2 132/220/2 131/221/2 129/222/2
f 62/223/19 64/224/10 129/225/10 131/226/19
f 63/99/18 62/223/19 131/226/19 132/100/18
f 64/224/10 65/98/8 130/101/8 129/225/10
f 135/227/44 136/228/44 133/229/44 134/230/44
f 90/231/45 89/139/15 133/142/15 136/232/45
f 92/233/46 90/231/45 136/232/45 135/234/46
f 91/140/35 92/233/46 135/234/46 134/141/35
f 138/235/23 139/236/23 140/237/23 137/238/23
f 75/239/14 74/110/15 140/113/15 139/240/14
f 77/241/7 75/239/14 139/240/14 138/242/7
f 76/111/9 77/241/7 138/242/7 137/112/9
f 142/243/1 143/244/1 144/245/1 141/246/1
f 20/247/22 21/24/11 142/27/11 141/248/22
f 18/249/20 20/247/22 141/248/22 144/250/20
f 19/25/12 18/249/20 144/250/20 143/26/12
f 146/251/13 148/252/13 147/253/13 145/254/13
f 37/255/11 36/256/22 147/257/22 148/258/11
f 36/256/22 38/46/20 145/49/20 147/257/22
f 39/47/12 37/255/11 148/258/11 146/48/12
