# Blender v2.78 (sub 0) OBJ File: 'Chasis_tool_001.blend'
# www.blender.org
mtllib linkingcard.mtl
o Cube.002_Cube.008
v 0.879461 0.777228 0.483460
v 0.879461 0.782772 0.483460
v 0.788383 0.771617 0.480380
v 0.791617 0.791617 0.489620
v 0.788383 0.788383 0.480380
v 0.773000 0.798000 0.480000
v 0.880539 0.776150 0.486540
v 0.880539 0.783850 0.486540
v 0.791617 0.768383 0.489620
v 0.773000 0.762000 0.480000
v 0.737000 0.762000 0.480000
v 0.780000 0.755000 0.500000
v 0.730000 0.755000 0.500000
v 0.737000 0.798000 0.480000
v 0.780000 0.805000 0.500000
v 0.730000 0.805000 0.500000
v 0.432000 0.803000 0.524286
v 0.430500 0.800000 0.524286
v 0.435000 0.804500 0.524286
v 0.432000 0.557000 0.524286
v 0.435000 0.555500 0.524286
v 0.430500 0.560000 0.524286
v 0.430000 0.565000 0.524286
v 0.430000 0.795000 0.524286
v 0.778000 0.803000 0.524286
v 0.779500 0.800000 0.524286
v 0.775000 0.804500 0.524286
v 0.778000 0.557000 0.524286
v 0.775000 0.555500 0.524286
v 0.779500 0.560000 0.524286
v 0.770000 0.805000 0.524286
v 0.440000 0.805000 0.524286
v 0.780000 0.565000 0.524286
v 0.780000 0.795000 0.524286
v 0.770000 0.555000 0.524286
v 0.440000 0.555000 0.524286
v 0.430500 0.800000 0.549286
v 0.432000 0.557000 0.549286
v 0.430000 0.565000 0.549286
v 0.779500 0.800000 0.549286
v 0.440000 0.805000 0.549286
v 0.780000 0.565000 0.549286
v 0.440000 0.555000 0.549286
v 0.435000 0.804500 0.549286
v 0.395000 0.839975 0.515000
v 0.385000 0.824975 0.515000
v 0.410000 0.849975 0.524286
v 0.395000 0.519475 0.515000
v 0.410000 0.511000 0.515000
v 0.380000 0.555000 0.515000
v 0.385000 0.533975 0.524286
v 0.815000 0.840000 0.524286
v 0.825000 0.825000 0.524286
v 0.800000 0.850000 0.524286
v 0.815000 0.840000 0.515000
v 0.825000 0.825000 0.515000
v 0.800000 0.850000 0.515000
v 0.815000 0.519500 0.524286
v 0.800000 0.507500 0.515000
v 0.825000 0.534000 0.515000
v 0.430000 0.855000 0.515000
v 0.780000 0.855000 0.515000
v 0.830000 0.555000 0.515000
v 0.830000 0.805000 0.515000
v 0.780000 0.505000 0.515000
v 0.405000 0.830000 0.500000
v 0.395000 0.815000 0.500000
v 0.415000 0.840000 0.500000
v 0.400000 0.834975 0.505000
v 0.390000 0.819975 0.505000
v 0.412500 0.845000 0.505000
v 0.410000 0.849975 0.515000
v 0.405000 0.530000 0.500000
v 0.415000 0.520000 0.500000
v 0.395000 0.540000 0.500000
v 0.390000 0.555000 0.500000
v 0.390000 0.805000 0.500000
v 0.400000 0.525000 0.505000
v 0.412500 0.516000 0.505000
v 0.390000 0.536975 0.505000
v 0.385000 0.555000 0.505000
v 0.385000 0.805000 0.505000
v 0.385000 0.533975 0.515000
v 0.380000 0.805000 0.515000
v 0.805000 0.832000 0.500000
v 0.815000 0.817500 0.500000
v 0.790000 0.842000 0.500000
v 0.780000 0.845000 0.500000
v 0.810000 0.835000 0.505000
v 0.820000 0.820000 0.505000
v 0.795000 0.845000 0.505000
v 0.805000 0.527000 0.500000
v 0.790000 0.518500 0.500000
v 0.815000 0.540000 0.500000
v 0.430000 0.845000 0.500000
v 0.820000 0.555000 0.500000
v 0.820000 0.805000 0.500000
v 0.430000 0.515000 0.500000
v 0.780000 0.515000 0.500000
v 0.810000 0.523500 0.505000
v 0.795000 0.513000 0.505000
v 0.820000 0.537000 0.505000
v 0.430000 0.849000 0.505000
v 0.780000 0.850000 0.505000
v 0.825000 0.555000 0.505000
v 0.825000 0.805000 0.505000
v 0.430000 0.510000 0.505000
v 0.780000 0.510000 0.505000
v 0.815000 0.519500 0.515000
v 0.430000 0.505000 0.515000
v 0.432000 0.803000 0.549286
v 0.435000 0.555500 0.549286
v 0.430500 0.560000 0.549286
v 0.430000 0.795000 0.549286
v 0.778000 0.803000 0.549286
v 0.775000 0.804500 0.549286
v 0.778000 0.557000 0.549286
v 0.775000 0.555500 0.549286
v 0.770000 0.805000 0.549286
v 0.780000 0.795000 0.549286
v 0.770000 0.555000 0.549286
v 0.779500 0.560000 0.549286
v 0.405000 0.830000 0.539286
v 0.395000 0.815000 0.539286
v 0.415000 0.840000 0.539286
v 0.400000 0.834975 0.534286
v 0.390000 0.819975 0.534286
v 0.412500 0.845000 0.534286
v 0.395000 0.839975 0.524286
v 0.385000 0.824975 0.524286
v 0.405000 0.530000 0.539286
v 0.415000 0.520000 0.539286
v 0.395000 0.540000 0.539286
v 0.390000 0.555000 0.539286
v 0.390000 0.805000 0.539286
v 0.400000 0.525000 0.534286
v 0.412500 0.516000 0.534286
v 0.390000 0.536975 0.534286
v 0.385000 0.555000 0.534286
v 0.385000 0.805000 0.534286
v 0.395000 0.519475 0.524286
v 0.410000 0.511000 0.524286
v 0.380000 0.555000 0.524286
v 0.380000 0.805000 0.524286
v 0.805000 0.832000 0.539286
v 0.815000 0.817500 0.539286
v 0.790000 0.842000 0.539286
v 0.810000 0.835000 0.534286
v 0.820000 0.820000 0.534286
v 0.795000 0.845000 0.534286
v 0.805000 0.527000 0.539286
v 0.790000 0.518500 0.539286
v 0.815000 0.540000 0.539286
v 0.780000 0.845000 0.539286
v 0.430000 0.845000 0.539286
v 0.820000 0.555000 0.539286
v 0.820000 0.805000 0.539286
v 0.780000 0.515000 0.539286
v 0.430000 0.515000 0.539286
v 0.810000 0.523500 0.534286
v 0.795000 0.513000 0.534286
v 0.820000 0.537000 0.534286
v 0.780000 0.850000 0.534286
v 0.430000 0.849000 0.534286
v 0.825000 0.555000 0.534286
v 0.825000 0.805000 0.534286
v 0.780000 0.510000 0.534286
v 0.430000 0.510000 0.534286
v 0.800000 0.507500 0.524286
v 0.825000 0.534000 0.524286
v 0.780000 0.855000 0.524286
v 0.430000 0.855000 0.524286
v 0.830000 0.555000 0.524286
v 0.830000 0.805000 0.524286
v 0.780000 0.505000 0.524286
v 0.430000 0.505000 0.524286
vt 0.8913 0.5034
vt 0.8913 0.0206
vt 0.9251 0.0206
vt 0.9251 0.5034
vt 0.9589 0.3715
vt 0.9589 0.3679
vt 0.9927 0.3679
vt 0.9927 0.3715
vt 0.8913 0.5105
vt 0.9251 0.5105
vt 0.8576 0.3553
vt 0.8576 0.3628
vt 0.8238 0.3628
vt 0.8238 0.3553
vt 0.9589 0.3744
vt 0.9927 0.3744
vt 0.8913 0.5142
vt 0.9251 0.5142
vt 0.8576 0.0188
vt 0.8238 0.0188
vt 0.8576 0.3744
vt 0.8576 0.5240
vt 0.8238 0.5240
vt 0.8238 0.3744
vt 0.9589 0.0117
vt 0.9589 0.0080
vt 0.9927 0.0080
vt 0.9927 0.0117
vt 0.8576 0.0117
vt 0.8238 0.0117
vt 0.8576 0.3715
vt 0.8238 0.3715
vt 0.9589 0.0188
vt 0.9927 0.0188
vt 0.8576 0.0080
vt 0.8238 0.0080
vt 0.8576 0.3679
vt 0.8238 0.3679
vt 0.9589 0.3553
vt 0.9927 0.3553
vt 0.8913 0.0131
vt 0.8913 0.0080
vt 0.9251 0.0080
vt 0.9251 0.0131
vt 0.9589 0.3628
vt 0.9927 0.3628
vt 0.4521 0.0233
vt 0.4657 0.0080
vt 0.7765 0.0080
vt 0.8730 0.8985
vt 0.9132 0.8985
vt 0.9132 0.9118
vt 0.8730 0.9118
vt 0.7253 0.7322
vt 0.7253 0.7190
vt 0.7656 0.7190
vt 0.7656 0.7322
vt 0.9132 0.9218
vt 0.8730 0.9218
vt 0.7253 0.7090
vt 0.7656 0.7090
vt 0.8730 0.7326
vt 0.9132 0.7326
vt 0.8730 0.7186
vt 0.9132 0.7186
vt 0.7991 0.9778
vt 0.7991 0.9645
vt 0.8394 0.9645
vt 0.8394 0.9778
vt 0.8394 0.9878
vt 0.7991 0.9878
vt 0.8730 0.7090
vt 0.9132 0.7090
vt 0.9468 0.8985
vt 0.9871 0.8985
vt 0.9871 0.9118
vt 0.9468 0.9118
vt 0.7656 0.9646
vt 0.7656 0.9778
vt 0.7253 0.9778
vt 0.7253 0.9646
vt 0.9871 0.9218
vt 0.9468 0.9218
vt 0.7656 0.9878
vt 0.7253 0.9878
vt 0.7991 0.7322
vt 0.8394 0.7322
vt 0.9468 0.7326
vt 0.9871 0.7326
vt 0.9468 0.7186
vt 0.9871 0.7186
vt 0.8394 0.7189
vt 0.7991 0.7189
vt 0.7991 0.7090
vt 0.8394 0.7090
vt 0.9468 0.7090
vt 0.9871 0.7090
vt 0.4560 0.5968
vt 0.4772 0.6036
vt 0.4694 0.6137
vt 0.4544 0.6080
vt 0.4558 0.9325
vt 0.1199 0.9330
vt 0.1203 0.9262
vt 0.4552 0.9263
vt 0.1154 0.6081
vt 0.4539 0.6148
vt 0.1159 0.6150
vt 0.0830 0.6389
vt 0.0785 0.6529
vt 0.0717 0.6526
vt 0.0766 0.6353
vt 0.0862 0.6221
vt 0.0923 0.6267
vt 0.1007 0.6117
vt 0.1064 0.6183
vt 0.0873 0.9017
vt 0.0809 0.9051
vt 0.0758 0.8908
vt 0.0825 0.8903
vt 0.0969 0.9149
vt 0.0910 0.9192
vt 0.1055 0.9286
vt 0.1110 0.9238
vt 0.4930 0.8891
vt 0.4920 0.6527
vt 0.4988 0.6523
vt 0.4997 0.8897
vt 0.4883 0.8986
vt 0.4946 0.9042
vt 0.4647 0.9221
vt 0.4702 0.9283
vt 0.4847 0.9186
vt 0.4789 0.9127
vt 0.4930 0.6138
vt 0.4838 0.6219
vt 0.4636 0.6189
vt 0.4777 0.6265
vt 0.4936 0.6350
vt 0.4871 0.6387
vt 0.1188 0.9440
vt 0.0982 0.9385
vt 0.0825 0.9280
vt 0.0714 0.9128
vt 0.0649 0.8924
vt 0.0605 0.6514
vt 0.5037 0.6293
vt 0.5099 0.6509
vt 0.5107 0.8912
vt 0.5044 0.9119
vt 0.4933 0.9273
vt 0.4778 0.9381
vt 0.4570 0.9442
vt 0.0665 0.6298
vt 0.0769 0.6142
vt 0.0931 0.6013
vt 0.1141 0.5968
vt 0.0583 0.0174
vt 0.2889 0.0176
vt 0.2897 0.0223
vt 0.0590 0.0220
vt 0.0590 0.4238
vt 0.0697 0.3864
vt 0.2819 0.3866
vt 0.2897 0.4241
vt 0.0610 0.0640
vt 0.0253 0.0500
vt 0.0332 0.0360
vt 0.0623 0.0612
vt 0.2819 0.0596
vt 0.0697 0.0594
vt 0.0651 0.0598
vt 0.0452 0.0267
vt 0.0605 0.0687
vt 0.0221 0.0594
vt 0.0605 0.3771
vt 0.0221 0.3864
vt 0.0452 0.4191
vt 0.0651 0.3859
vt 0.0332 0.4098
vt 0.0623 0.3845
vt 0.2912 0.3773
vt 0.2912 0.0689
vt 0.3266 0.0597
vt 0.3266 0.3867
vt 0.2907 0.0643
vt 0.3238 0.0503
vt 0.2893 0.0615
vt 0.3146 0.0363
vt 0.2866 0.0601
vt 0.3012 0.0270
vt 0.2889 0.4288
vt 0.0583 0.4285
vt 0.3305 0.0597
vt 0.3295 0.3868
vt 0.0168 0.3864
vt 0.0168 0.0594
vt 0.0417 0.0220
vt 0.0195 0.0454
vt 0.0292 0.0314
vt 0.3028 0.0223
vt 0.3166 0.0317
vt 0.3259 0.0457
vt 0.2989 0.4194
vt 0.3028 0.4241
vt 0.3128 0.4101
vt 0.3166 0.4148
vt 0.3220 0.3961
vt 0.3258 0.4008
vt 0.0417 0.4238
vt 0.0263 0.3976
vt 0.0223 0.4005
vt 0.0292 0.4145
vt 0.2866 0.3862
vt 0.2893 0.3848
vt 0.2907 0.3820
vt 0.0610 0.3817
vt 0.2875 0.0130
vt 0.3059 0.0177
vt 0.3198 0.0271
vt 0.3290 0.0411
vt 0.3336 0.0598
vt 0.3336 0.3868
vt 0.3290 0.4055
vt 0.3197 0.4195
vt 0.3059 0.4289
vt 0.2875 0.4335
vt 0.0568 0.4333
vt 0.0374 0.4286
vt 0.0240 0.4192
vt 0.0162 0.4052
vt 0.0107 0.3865
vt 0.0107 0.0595
vt 0.0130 0.0408
vt 0.0241 0.0268
vt 0.0374 0.0174
vt 0.0568 0.0128
vt 0.7832 0.0088
vt 0.7893 0.0157
vt 0.7873 0.0111
vt 0.7900 0.0233
vt 0.7900 0.5287
vt 0.4521 0.5287
vt 0.7893 0.5364
vt 0.7873 0.5410
vt 0.7832 0.5433
vt 0.7765 0.5440
vt 0.4657 0.5440
vt 0.4589 0.5433
vt 0.4549 0.5410
vt 0.4528 0.5364
vt 0.4528 0.0157
vt 0.4549 0.0111
vt 0.4589 0.0088
vt 0.6363 0.7372
vt 0.6387 0.7387
vt 0.6330 0.8064
vt 0.6322 0.8059
vt 0.6005 0.7632
vt 0.5836 0.7632
vt 0.5893 0.6933
vt 0.5949 0.6933
vt 0.6241 0.7372
vt 0.6282 0.8059
vt 0.6274 0.8064
vt 0.6102 0.7731
vt 0.5739 0.7731
vt 0.6433 0.7261
vt 0.6484 0.7294
vt 0.6121 0.7294
vt 0.6171 0.7261
vt 0.6218 0.7387
vt 0.6433 0.7001
vt 0.6171 0.7001
vt 0.6484 0.6933
vt 0.6815 0.7001
vt 0.6553 0.7001
vt 0.6502 0.6933
vt 0.6866 0.6933
vt 0.5357 0.8085
vt 0.5357 0.7731
vt 0.5721 0.7731
vt 0.5721 0.8085
vt 0.6553 0.7261
vt 0.6502 0.7294
vn -0.0000 1.0000 0.0000
vn 0.4472 -0.8944 0.0000
vn 0.0995 0.9950 0.0000
vn -0.9950 -0.0995 0.0000
vn 0.0995 -0.9950 -0.0000
vn 0.4472 0.8944 0.0000
vn -1.0000 -0.0000 0.0000
vn 0.0000 -1.0000 0.0000
vn 0.8944 0.4472 0.0000
vn -0.9950 0.0995 0.0000
vn -0.0995 -0.9950 0.0000
vn 0.9950 0.0995 0.0000
vn -0.8944 0.4472 0.0000
vn -0.4472 -0.8944 0.0000
vn 1.0000 0.0000 0.0000
vn -0.4472 0.8944 0.0000
vn -0.8944 -0.4472 0.0000
vn 0.9950 -0.0995 0.0000
vn -0.0995 0.9950 0.0000
vn 0.0000 0.0000 1.0000
vn 0.8944 -0.4472 0.0000
vn -0.9701 0.2428 0.0000
vn -0.2437 0.9699 -0.0000
vn -0.8321 0.5547 0.0000
vn -0.5547 0.8320 0.0000
vn -0.9729 -0.2314 0.0000
vn -0.2873 -0.9578 0.0000
vn -0.4919 -0.8706 0.0000
vn -0.8232 -0.5677 0.0000
vn 0.9701 0.2425 0.0000
vn 0.2425 0.9701 0.0000
vn 0.8321 0.5547 0.0000
vn 0.5547 0.8321 0.0000
vn 0.9728 -0.2316 0.0000
vn 0.1240 -0.9923 0.0000
vn 0.6247 -0.7809 0.0000
vn 0.8232 -0.5677 0.0000
vn -0.2710 -0.8470 -0.4574
vn -0.0011 0.7433 -0.6690
vn 0.0000 -0.7071 -0.7071
vn 0.6620 -0.2006 -0.7222
vn 0.5136 -0.3876 -0.7655
vn 0.3270 -0.5162 -0.7916
vn 0.1658 -0.6376 -0.7523
vn 0.6562 0.2386 -0.7159
vn 0.5468 0.3707 -0.7507
vn 0.3818 0.5727 -0.7254
vn 0.2249 0.7029 -0.6748
vn -0.7071 -0.0000 -0.7071
vn -0.6204 0.2484 -0.7439
vn -0.1950 0.7043 -0.6826
vn -0.4166 0.4681 -0.7793
vn -0.4873 0.3249 -0.8106
vn -0.4506 -0.7092 -0.5422
vn -0.2345 -0.6927 -0.6820
vn -0.4189 -0.4960 -0.7606
vn -0.4554 -0.4144 -0.7880
vn -0.6618 -0.2004 -0.7224
vn 0.7071 0.0000 -0.7071
vn 0.2408 0.8427 -0.4815
vn 0.4558 0.6838 -0.5698
vn 0.6838 0.4558 -0.5698
vn 0.8427 0.2408 -0.4815
vn 0.8944 0.0000 -0.4472
vn -0.6672 -0.5040 -0.5484
vn -0.8589 -0.2200 -0.4625
vn -0.8944 -0.0000 -0.4472
vn -0.8426 0.2411 -0.4816
vn -0.6838 0.4558 -0.5698
vn -0.4994 0.6858 -0.5293
vn -0.2039 0.8473 -0.4904
vn -0.0013 0.8762 -0.4819
vn 0.8589 -0.2202 -0.4625
vn 0.6946 -0.4961 -0.5209
vn 0.4962 -0.6615 -0.5623
vn 0.1356 -0.8629 -0.4869
vn 0.0000 -0.8944 -0.4472
vn 0.7071 0.0000 0.7071
vn -0.2425 0.0000 0.9701
vn 0.1192 -0.2146 0.9694
vn 0.2425 0.0000 0.9701
vn 0.2318 -0.0637 0.9707
vn 0.1971 -0.1417 0.9701
vn 0.0619 -0.2320 0.9707
vn 0.0000 -0.2425 0.9701
vn -0.2318 -0.0637 0.9707
vn -0.1861 -0.1647 0.9686
vn -0.0000 0.2425 0.9701
vn 0.0544 0.2330 0.9709
vn 0.1327 0.2077 0.9692
vn 0.2081 0.1368 0.9685
vn 0.2306 0.0725 0.9703
vn -0.7071 -0.0000 0.7071
vn -0.0011 0.7433 0.6690
vn 0.0000 -0.7071 0.7071
vn 0.6620 -0.2006 0.7222
vn 0.3270 -0.5162 0.7916
vn 0.5136 -0.3876 0.7655
vn 0.1658 -0.6376 0.7523
vn 0.6562 0.2386 0.7159
vn 0.5468 0.3707 0.7507
vn 0.3818 0.5727 0.7254
vn 0.2249 0.7029 0.6748
vn -0.6204 0.2484 0.7439
vn -0.4873 0.3249 0.8106
vn -0.4166 0.4681 0.7793
vn -0.1950 0.7043 0.6826
vn -0.6618 -0.2004 0.7224
vn -0.2345 -0.6927 0.6821
vn -0.4189 -0.4960 0.7606
vn -0.4554 -0.4144 0.7880
vn -0.2291 0.0840 0.9698
vn -0.2164 0.1382 0.9665
vn -0.1647 0.1861 0.9686
vn -0.0637 0.2318 0.9707
vn -0.1647 -0.1861 0.9686
vn -0.0637 -0.2318 0.9707
vn 0.8427 0.2408 0.4815
vn 0.6838 0.4558 0.5698
vn 0.4558 0.6838 0.5698
vn 0.2408 0.8427 0.4815
vn -0.0013 0.8762 0.4819
vn -0.2039 0.8473 0.4904
vn -0.4994 0.6858 0.5293
vn -0.6838 0.4558 0.5698
vn -0.8426 0.2411 0.4816
vn -0.8944 -0.0000 0.4472
vn -0.8589 -0.2200 0.4625
vn -0.6672 -0.5040 0.5484
vn -0.4506 -0.7092 0.5422
vn -0.2710 -0.8470 0.4574
vn 0.0000 -0.8944 0.4472
vn 0.1356 -0.8629 0.4869
vn 0.4962 -0.6615 0.5623
vn 0.6946 -0.4961 0.5209
vn 0.8589 -0.2202 0.4625
vn 0.8944 0.0000 0.4472
vn -0.0000 0.0000 -1.0000
vn 0.0001 0.0000 1.0000
vn 0.3172 0.8550 -0.4103
vn 0.2981 0.8636 -0.4066
vn 0.0694 0.9338 -0.3511
vn 0.0346 0.0000 0.9994
vn 0.0285 0.0000 -0.9996
vn 0.0338 0.0000 -0.9994
vn 0.9439 0.0000 -0.3303
vn 0.6663 0.0000 0.7457
vn 0.4850 0.7585 -0.4352
vn 0.4850 -0.7585 -0.4352
vn 0.3172 -0.8550 -0.4103
vn 0.2981 -0.8636 -0.4066
vn 0.0694 -0.9338 -0.3511
vn 0.0097 0.0000 -1.0000
vn 0.0000 0.9439 -0.3304
vn -0.9439 0.0000 -0.3303
vn 0.0000 -0.9439 -0.3304
usemtl None
s off
f 43/1/1 121/2/1 35/3/1 36/4/1
f 44/5/2 111/6/2 17/7/2 19/8/2
f 112/9/3 43/1/3 36/4/3 21/10/3
f 120/11/4 40/12/4 26/13/4 34/14/4
f 41/15/5 44/5/5 19/8/5 32/16/5
f 38/17/6 112/9/6 21/10/6 20/18/6
f 42/19/7 120/11/7 34/14/7 33/20/7
f 119/21/8 41/22/8 32/23/8 31/24/8
f 113/25/9 38/26/9 20/27/9 22/28/9
f 122/29/10 42/19/10 33/20/10 30/30/10
f 116/31/11 119/21/11 31/24/11 27/32/11
f 39/33/12 113/25/12 22/28/12 23/34/12
f 117/35/13 122/29/13 30/30/13 28/36/13
f 115/37/14 116/31/14 27/32/14 25/38/14
f 114/39/15 39/33/15 23/34/15 24/40/15
f 118/41/16 117/42/16 28/43/16 29/44/16
f 40/12/17 115/37/17 25/38/17 26/13/17
f 37/45/18 114/39/18 24/40/18 18/46/18
f 121/2/19 118/41/19 29/44/19 35/3/19
f 35/47/20 33/48/20 34/49/20
f 111/6/21 37/45/21 18/46/21 17/7/21
f 84/50/22 144/51/22 130/52/22 46/53/22
f 61/54/23 72/55/23 47/56/23 172/57/23
f 129/58/24 45/59/24 46/53/24 130/52/24
f 47/56/25 72/55/25 45/60/25 129/61/25
f 50/62/7 143/63/7 144/51/7 84/50/7
f 50/62/26 83/64/26 51/65/26 143/63/26
f 49/66/27 110/67/27 176/68/27 142/69/27
f 141/70/28 48/71/28 49/66/28 142/69/28
f 51/65/29 83/64/29 48/72/29 141/73/29
f 174/74/30 64/75/30 56/76/30 53/77/30
f 171/78/31 54/79/31 57/80/31 62/81/31
f 55/82/32 52/83/32 53/77/32 56/76/32
f 57/80/33 54/79/33 52/84/33 55/85/33
f 176/68/8 110/67/8 65/86/8 175/87/8
f 173/88/15 63/89/15 64/75/15 174/74/15
f 173/88/34 170/90/34 60/91/34 63/89/34
f 169/92/35 175/87/35 65/86/35 59/93/35
f 109/94/36 58/95/36 169/92/36 59/93/36
f 60/91/37 170/90/37 58/96/37 109/97/37
f 61/54/1 172/57/1 171/78/1 62/81/1
f 110/98/38 49/99/38 79/100/38 107/101/38
f 103/102/39 104/103/39 88/104/39 95/105/39
f 108/106/40 107/101/40 98/107/40 99/108/40
f 94/109/41 96/110/41 105/111/41 102/112/41
f 102/112/42 100/113/42 92/114/42 94/109/42
f 101/115/43 93/116/43 92/114/43 100/113/43
f 99/108/44 93/116/44 101/115/44 108/106/44
f 86/117/45 90/118/45 106/119/45 97/120/45
f 90/118/46 86/117/46 85/121/46 89/122/46
f 91/123/47 89/122/47 85/121/47 87/124/47
f 91/123/48 87/124/48 88/104/48 104/103/48
f 77/125/49 76/126/49 81/127/49 82/128/49
f 67/129/50 77/125/50 82/128/50 70/130/50
f 95/105/51 68/131/51 71/132/51 103/102/51
f 69/133/52 71/132/52 68/131/52 66/134/52
f 66/134/53 67/129/53 70/130/53 69/133/53
f 49/99/54 48/135/54 78/136/54 79/100/54
f 98/107/55 107/101/55 79/100/55 74/137/55
f 73/138/56 74/137/56 79/100/56 78/136/56
f 78/136/57 80/139/57 75/140/57 73/138/57
f 81/127/58 76/126/58 75/140/58 80/139/58
f 96/110/59 97/120/59 106/119/59 105/111/59
f 62/141/60 57/142/60 91/123/60 104/103/60
f 57/142/61 55/143/61 89/122/61 91/123/61
f 55/143/62 56/144/62 90/118/62 89/122/62
f 64/145/63 106/119/63 90/118/63 56/144/63
f 64/145/64 63/146/64 105/111/64 106/119/64
f 48/135/65 83/147/65 80/139/65 78/136/65
f 50/148/66 81/127/66 80/139/66 83/147/66
f 84/149/67 82/128/67 81/127/67 50/148/67
f 84/149/68 46/150/68 70/130/68 82/128/68
f 46/150/69 45/151/69 69/133/69 70/130/69
f 45/151/70 72/152/70 71/132/70 69/133/70
f 61/153/71 103/102/71 71/132/71 72/152/71
f 104/103/72 103/102/72 61/153/72 62/141/72
f 63/146/73 60/154/73 102/112/73 105/111/73
f 60/154/74 109/155/74 100/113/74 102/112/74
f 109/155/75 59/156/75 101/115/75 100/113/75
f 59/156/76 65/157/76 108/106/76 101/115/76
f 108/106/77 65/157/77 110/98/77 107/101/77
f 165/158/78 166/159/78 157/160/78 156/161/78
f 134/162/79 39/163/79 114/164/79 135/165/79
f 118/166/80 152/167/80 151/168/80 117/169/80
f 120/170/81 42/171/81 156/161/81 157/160/81
f 42/171/82 122/172/82 153/173/82 156/161/82
f 122/172/83 117/169/83 151/168/83 153/173/83
f 152/167/84 118/166/84 121/174/84 158/175/84
f 158/175/85 121/174/85 43/176/85 159/177/85
f 134/162/86 133/178/86 113/179/86 39/163/86
f 113/179/87 133/178/87 131/180/87 38/181/87
f 41/182/88 119/183/88 154/184/88 155/185/88
f 119/183/89 116/186/89 147/187/89 154/184/89
f 116/186/90 115/188/90 145/189/90 147/187/90
f 145/189/91 115/188/91 40/190/91 146/191/91
f 120/170/92 157/160/92 146/191/92 40/190/92
f 134/162/93 135/165/93 140/192/93 139/193/93
f 163/194/94 164/195/94 155/185/94 154/184/94
f 168/196/95 167/197/95 158/175/95 159/177/95
f 165/158/96 156/161/96 153/173/96 162/198/96
f 151/168/97 152/167/97 161/199/97 160/200/97
f 160/200/98 162/198/98 153/173/98 151/168/98
f 152/167/99 158/175/99 167/197/99 161/199/99
f 146/191/100 157/160/100 166/159/100 149/201/100
f 145/189/101 146/191/101 149/201/101 148/202/101
f 148/202/102 150/203/102 147/187/102 145/189/102
f 154/184/103 147/187/103 150/203/103 163/194/103
f 124/204/104 127/205/104 140/192/104 135/165/104
f 123/206/105 126/207/105 127/205/105 124/204/105
f 123/206/106 125/208/106 128/209/106 126/207/106
f 155/185/107 164/195/107 128/209/107 125/208/107
f 133/178/108 134/162/108 139/193/108 138/210/108
f 159/177/109 132/211/109 137/212/109 168/196/109
f 137/212/110 132/211/110 131/180/110 136/213/110
f 138/210/111 136/213/111 131/180/111 133/178/111
f 135/165/112 114/164/112 37/214/112 124/204/112
f 124/204/113 37/214/113 111/215/113 123/206/113
f 123/206/114 111/215/114 44/216/114 125/208/114
f 155/185/115 125/208/115 44/216/115 41/182/115
f 38/181/116 131/180/116 132/211/116 112/217/116
f 43/176/117 112/217/117 132/211/117 159/177/117
f 166/159/118 174/218/118 53/219/118 149/201/118
f 149/201/119 53/219/119 52/220/119 148/202/119
f 148/202/120 52/220/120 54/221/120 150/203/120
f 150/203/121 54/221/121 171/222/121 163/194/121
f 163/194/122 171/222/122 172/223/122 164/195/122
f 164/195/123 172/223/123 47/224/123 128/209/123
f 128/209/124 47/224/124 129/225/124 126/207/124
f 126/207/125 129/225/125 130/226/125 127/205/125
f 127/205/126 130/226/126 144/227/126 140/192/126
f 140/192/127 144/227/127 143/228/127 139/193/127
f 139/193/128 143/228/128 51/229/128 138/210/128
f 138/210/129 51/229/129 141/230/129 136/213/129
f 136/213/130 141/230/130 142/231/130 137/212/130
f 137/212/131 142/231/131 176/232/131 168/196/131
f 168/196/132 176/232/132 175/233/132 167/197/132
f 167/197/133 175/233/133 169/234/133 161/199/133
f 161/199/134 169/234/134 58/235/134 160/200/134
f 160/200/135 58/235/135 170/236/135 162/198/135
f 162/198/136 170/236/136 173/237/136 165/158/136
f 165/158/137 173/237/137 174/218/137 166/159/137
f 98/107/138 77/125/138 95/105/138
f 66/134/138 68/131/138 95/105/138
f 95/105/138 88/104/138 99/108/138
f 87/124/138 85/121/138 86/117/138
f 86/117/138 88/104/138 87/124/138
f 96/110/138 94/109/138 93/116/138
f 92/114/138 93/116/138 94/109/138
f 99/108/138 98/107/138 95/105/138
f 73/138/138 75/140/138 76/126/138
f 98/107/138 74/137/138 73/138/138
f 96/110/138 93/116/138 99/108/138
f 86/117/138 97/120/138 88/104/138
f 66/134/138 95/105/138 67/129/138
f 77/125/138 67/129/138 95/105/138
f 73/138/138 76/126/138 98/107/138
f 96/110/138 99/108/138 88/104/138
f 88/104/138 97/120/138 96/110/138
f 76/126/138 77/125/138 98/107/138
f 34/49/20 26/238/20 27/239/20
f 25/240/20 27/239/20 26/238/20
f 31/241/20 32/242/20 36/243/20
f 19/244/20 17/245/20 18/246/20
f 18/246/20 24/247/20 32/242/20
f 23/248/20 22/249/20 36/243/20
f 20/250/139 21/251/139 22/249/139
f 36/243/20 35/47/20 31/241/20
f 29/252/20 28/253/20 30/254/20
f 30/254/20 33/48/20 29/252/20
f 34/49/20 27/239/20 31/241/20
f 32/242/20 19/244/20 18/246/20
f 24/247/20 23/248/20 32/242/20
f 21/251/20 36/243/20 22/249/20
f 29/252/20 33/48/20 35/47/20
f 34/49/20 31/241/20 35/47/20
f 23/248/20 36/243/20 32/242/20
s 1
f 5/255/140 4/256/141 8/257/142 2/258/142
f 4/259/143 9/260/143 7/261/143 8/262/143
f 3/263/144 5/255/144 2/258/145 1/264/145
f 1/264/146 2/258/146 8/257/146 7/265/146
f 15/266/147 12/267/147 9/260/147 4/259/147
f 6/268/148 15/269/148 4/256/141 5/255/140
f 12/270/149 10/271/149 3/263/150 9/272/151
f 9/272/151 3/263/150 1/264/152 7/265/152
f 10/271/153 6/268/153 5/255/144 3/263/144
f 14/273/138 6/268/153 10/271/153 11/274/138
f 16/275/154 15/269/154 6/268/154 14/273/154
f 14/276/155 11/277/155 13/278/155 16/279/155
f 13/280/20 12/281/20 15/282/20 16/283/20
f 11/277/156 10/284/156 12/285/156 13/278/156
