# Blender v2.78 (sub 0) OBJ File: 'boxframe_001_unjoined.blend'
# www.blender.org
mtllib box.mtl
o Cube.013_Cube.037
v 0.950000 0.950000 -1.000000
v 1.000000 0.950000 -1.000000
v 0.950000 0.000000 -1.000000
v 1.000000 0.000000 -1.000000
v 0.000000 0.050000 -0.950000
v 0.000000 0.950000 -0.950000
v 0.000000 0.050000 -1.000000
v 0.000000 0.950000 -1.000000
v 0.050000 0.050000 -0.950000
v 0.050000 0.950000 -0.950000
v 0.050000 0.050000 -1.000000
v 0.050000 0.950000 -1.000000
v 0.950000 0.050000 -0.000000
v 0.950000 0.950000 -0.000000
v 1.000000 0.050000 -0.000000
v 1.000000 0.950000 -0.000000
v 0.950000 0.050000 0.000000
v 0.950000 0.950000 0.000000
v 0.950000 0.050000 -0.050000
v 0.950000 0.950000 -0.050000
v 1.000000 0.050000 0.000000
v 1.000000 0.950000 0.000000
v 1.000000 0.050000 -0.050000
v 1.000000 0.950000 -0.050000
v 0.950000 0.950000 -0.000000
v 1.000000 0.950000 -0.000000
v 0.950000 0.950000 -0.950000
v 1.000000 0.950000 -0.950000
v 0.000000 0.050000 0.000000
v 0.000000 0.950000 0.000000
v 0.050000 0.050000 0.000000
v 0.050000 0.950000 0.000000
v 0.000000 0.050000 0.000000
v 0.000000 0.950000 0.000000
v 0.000000 0.050000 -0.050000
v 0.000000 0.950000 -0.050000
v 0.050000 0.050000 0.000000
v 0.050000 0.950000 0.000000
v 0.050000 0.050000 -0.050000
v 0.050000 0.950000 -0.050000
v 0.950000 0.050000 -0.950000
v 0.950000 0.950000 -0.950000
v 1.000000 0.050000 -0.950000
v 1.000000 0.950000 -0.950000
v 0.950000 0.050000 -0.950000
v 0.950000 0.950000 -0.950000
v 0.950000 0.050000 -1.000000
v 0.950000 0.950000 -1.000000
v 1.000000 0.050000 -0.950000
v 1.000000 0.950000 -0.950000
v 1.000000 0.050000 -1.000000
v 1.000000 0.950000 -1.000000
v 0.000000 0.000000 -0.000000
v 0.000000 0.050000 -0.002955
v 0.000000 0.000000 -1.000000
v 0.000000 0.050000 -1.000000
v 0.050000 0.000000 -0.000000
v 0.050000 0.050000 -0.000000
v 0.050000 0.000000 -1.000000
v 0.050000 0.050000 -1.000000
v 0.950000 0.000000 -0.000000
v 0.950000 0.050000 -0.002955
v 0.950000 0.000000 -1.000000
v 0.950000 0.050000 -1.000000
v 1.000000 0.000000 -0.000000
v 1.000000 0.050000 -0.000000
v 1.000000 0.000000 -1.000000
v 1.000000 0.050000 -1.000000
v 0.950000 0.950000 -0.000000
v 0.950000 1.000000 -0.002955
v 0.950000 0.950000 -1.000000
v 0.950000 1.000000 -1.000000
v 1.000000 0.950000 -0.000000
v 1.000000 1.000000 -0.000000
v 1.000000 0.950000 -1.000000
v 1.000000 1.000000 -1.000000
v 0.000000 0.000000 -1.000000
v 0.050000 0.000000 -1.000000
v 0.000000 0.950000 -0.000000
v 0.000000 1.000000 -0.002955
v 0.000000 0.950000 -1.000000
v 0.000000 1.000000 -1.000000
v 0.050000 0.950000 -0.000000
v 0.050000 1.000000 -0.000000
v 0.050000 0.950000 -1.000000
v 0.050000 1.000000 -1.000000
v 0.050000 1.000000 0.000000
v 0.950000 1.000000 0.000000
v 0.050000 1.000000 -0.050000
v 0.950000 1.000000 -0.050000
v 0.050000 0.950000 0.000000
v 0.950000 0.950000 0.000000
v 0.050000 0.950000 -0.050000
v 0.950000 0.950000 -0.050000
v 0.050000 1.000000 -0.950000
v 0.950000 1.000000 -0.950000
v 0.050000 1.000000 -1.000000
v 0.950000 1.000000 -1.000000
v 0.050000 0.950000 -0.950000
v 0.950000 0.950000 -0.950000
v 0.050000 0.950000 -1.000000
v 0.950000 0.950000 -1.000000
v 0.050000 0.050000 -0.950000
v 0.950000 0.050000 -0.950000
v 0.050000 0.050000 -1.000000
v 0.950000 0.050000 -1.000000
v 0.050000 0.000000 -0.950000
v 0.950000 0.000000 -0.950000
v 0.050000 0.000000 -1.000000
v 0.950000 0.000000 -1.000000
v 0.050000 0.050000 0.000000
v 0.950000 0.050000 0.000000
v 0.050000 0.050000 -0.050000
v 0.950000 0.050000 -0.050000
v 0.050000 0.000000 0.000000
v 0.950000 0.000000 0.000000
v 0.050000 0.000000 -0.050000
v 0.950000 0.000000 -0.050000
vt 0.5429 1.0000
vt 0.5429 0.5000
vt 0.5714 0.5000
vt 0.5714 1.0000
vt 0.8571 0.5000
vt 0.8571 0.0000
vt 0.8857 0.0000
vt 0.8857 0.5000
vt 0.4571 1.0000
vt 0.4571 0.5000
vt 0.4857 0.5000
vt 0.4857 1.0000
vt 0.8000 0.5000
vt 0.8000 1.0000
vt 0.7714 1.0000
vt 0.7714 0.5000
vt 0.2286 0.5833
vt 0.2571 0.5833
vt 0.2571 0.6111
vt 0.2286 0.6111
vt 0.4286 0.5833
vt 0.4000 0.5833
vt 0.4000 0.5556
vt 0.4286 0.5556
vt 0.8286 1.0000
vt 0.8286 0.5000
vt 0.8571 0.5000
vt 0.8571 1.0000
vt 0.7143 0.5000
vt 0.7143 0.0000
vt 0.7429 0.0000
vt 0.7429 0.5000
vt 0.9714 0.5000
vt 0.9714 0.0000
vt 1.0000 0.0000
vt 1.0000 0.5000
vt 0.9429 0.0000
vt 0.9429 0.5000
vt 0.9143 0.5000
vt 0.9143 0.0000
vt 0.3714 0.5833
vt 0.3714 0.5556
vt 0.4000 0.5556
vt 0.4000 0.5833
vt 0.4571 0.5556
vt 0.4571 0.5833
vt 0.4286 0.5833
vt 0.4286 0.5556
vt 0.6857 1.0000
vt 0.6857 0.5000
vt 0.7143 0.5000
vt 0.7143 1.0000
vt 0.6571 0.5000
vt 0.6571 0.0000
vt 0.6857 0.0000
vt 0.6857 0.5000
vt 0.8857 0.5000
vt 0.8857 0.0000
vt 0.9143 0.0000
vt 0.9143 0.5000
vt 0.9714 0.0000
vt 0.9714 0.5000
vt 0.9429 0.5000
vt 0.9429 0.0000
vt 0.3429 0.5833
vt 0.3429 0.5556
vt 0.3714 0.5556
vt 0.3714 0.5833
vt 0.3143 0.5556
vt 0.3143 0.5833
vt 0.2857 0.5833
vt 0.2857 0.5556
vt 0.6000 1.0000
vt 0.6000 0.5000
vt 0.6286 0.5000
vt 0.6286 1.0000
vt 0.6286 1.0000
vt 0.6286 0.5000
vt 0.6571 0.5000
vt 0.6571 1.0000
vt 0.8286 0.5000
vt 0.8286 0.0000
vt 0.8571 0.0000
vt 0.8571 0.5000
vt 0.4857 1.0000
vt 0.4857 0.5000
vt 0.5143 0.5000
vt 0.5143 1.0000
vt 0.2571 0.5833
vt 0.2857 0.5833
vt 0.2857 0.6111
vt 0.2571 0.6111
vt 0.2286 0.6111
vt 0.2000 0.6111
vt 0.2000 0.5833
vt 0.2286 0.5833
vt 0.2857 0.5556
vt 0.2571 0.5539
vt 0.2571 0.0000
vt 0.2857 0.0000
vt 0.2857 0.6111
vt 0.2857 0.5833
vt 0.3143 0.5833
vt 0.3143 0.6111
vt 0.2286 0.0000
vt 0.2571 0.0000
vt 0.2571 0.5556
vt 0.2286 0.5556
vt 0.0858 0.5833
vt 0.0572 0.5833
vt 0.0572 0.5556
vt 0.0858 0.5556
vt 0.2000 0.5556
vt 0.1714 0.5556
vt 0.1714 0.0000
vt 0.2000 0.0000
vt 0.3429 0.5556
vt 0.3143 0.5556
vt 0.3143 0.0016
vt 0.3429 0.0000
vt 0.3143 0.5556
vt 0.2857 0.5539
vt 0.2857 0.0000
vt 0.3143 0.0000
vt 0.3429 0.6111
vt 0.3429 0.5833
vt 0.3714 0.5833
vt 0.3714 0.6111
vt 0.2000 0.0000
vt 0.2286 0.0000
vt 0.2286 0.5556
vt 0.2000 0.5556
vt 0.1143 0.5833
vt 0.0858 0.5833
vt 0.0858 0.5556
vt 0.1143 0.5556
vt 0.4571 0.5556
vt 0.4286 0.5556
vt 0.4286 0.0000
vt 0.4571 0.0000
vt 0.4000 0.5556
vt 0.3714 0.5556
vt 0.3714 0.0016
vt 0.4000 0.0000
vt 0.0286 0.0000
vt 0.0571 0.0016
vt 0.0571 0.5556
vt 0.0286 0.5556
vt 0.1143 0.5833
vt 0.1143 0.5556
vt 0.1429 0.5556
vt 0.1429 0.5833
vt 0.0286 0.5556
vt 0.0000 0.5556
vt 0.0000 0.0000
vt 0.0286 0.0000
vt 0.0286 0.5556
vt 0.0286 0.5833
vt 0.0000 0.5833
vt 0.0000 0.5556
vt 0.4286 0.5556
vt 0.4000 0.5556
vt 0.4000 0.0000
vt 0.4286 0.0000
vt 0.1143 0.0016
vt 0.1429 0.0000
vt 0.0571 0.0000
vt 0.0857 0.0016
vt 0.0857 0.5556
vt 0.0571 0.5556
vt 0.1429 0.6111
vt 0.1429 0.5833
vt 0.1715 0.5833
vt 0.1715 0.6111
vt 0.0857 0.0000
vt 0.1143 0.0000
vt 0.1143 0.5556
vt 0.0857 0.5556
vt 0.0572 0.5833
vt 0.0286 0.5833
vt 0.0286 0.5556
vt 0.0572 0.5556
vt 0.1714 0.5556
vt 0.1429 0.5556
vt 0.1429 0.0000
vt 0.1714 0.0000
vt 0.3714 0.5556
vt 0.3429 0.5556
vt 0.3429 0.0016
vt 0.3714 0.0000
vt 0.6857 0.5000
vt 0.6857 0.0000
vt 0.7143 0.0000
vt 0.7143 0.5000
vt 0.6000 0.0000
vt 0.6000 0.5000
vt 0.5714 0.5000
vt 0.5714 0.0000
vt 0.6286 0.5000
vt 0.6286 0.0000
vt 0.6571 0.0000
vt 0.6571 0.5000
vt 0.8000 1.0000
vt 0.8000 0.5000
vt 0.8286 0.5000
vt 0.8286 1.0000
vt 0.3143 0.5556
vt 0.3429 0.5556
vt 0.3429 0.5833
vt 0.3143 0.5833
vt 0.4000 0.5833
vt 0.4000 0.6111
vt 0.3714 0.6111
vt 0.3714 0.5833
vt 0.5143 0.0000
vt 0.5143 0.5000
vt 0.4857 0.5000
vt 0.4857 0.0000
vt 0.5143 1.0000
vt 0.5143 0.5000
vt 0.5429 0.5000
vt 0.5429 1.0000
vt 0.5714 0.0000
vt 0.5714 0.5000
vt 0.5429 0.5000
vt 0.5429 0.0000
vt 0.6000 0.5000
vt 0.6000 1.0000
vt 0.5714 1.0000
vt 0.5714 0.5000
vt 0.1143 0.5833
vt 0.1429 0.5833
vt 0.1429 0.6111
vt 0.1143 0.6111
vt 0.3429 0.6111
vt 0.3143 0.6111
vt 0.3143 0.5833
vt 0.3429 0.5833
vt 0.5429 0.0000
vt 0.5429 0.5000
vt 0.5143 0.5000
vt 0.5143 0.0000
vt 0.7429 0.5000
vt 0.7429 0.0000
vt 0.7714 0.0000
vt 0.7714 0.5000
vt 0.4857 0.0000
vt 0.4857 0.5000
vt 0.4571 0.5000
vt 0.4571 0.0000
vt 0.6571 1.0000
vt 0.6571 0.5000
vt 0.6857 0.5000
vt 0.6857 1.0000
vt 0.1429 0.5833
vt 0.1429 0.5556
vt 0.1715 0.5556
vt 0.1715 0.5833
vt 0.2857 0.5556
vt 0.2857 0.5833
vt 0.2571 0.5833
vt 0.2571 0.5556
vt 0.7714 0.5000
vt 0.7714 0.0000
vt 0.8000 0.0000
vt 0.8000 0.5000
vt 0.8286 0.0000
vt 0.8286 0.5000
vt 0.6000 0.5000
vt 0.6000 0.0000
vt 0.6286 0.0000
vt 0.6286 0.5000
vt 0.7429 0.5000
vt 0.7429 1.0000
vt 0.7143 1.0000
vt 0.7143 0.5000
vt 0.2000 0.5833
vt 0.2000 0.5556
vt 0.2286 0.5556
vt 0.2286 0.5833
vt 0.2571 0.5556
vt 0.2571 0.5833
vt 0.2286 0.5833
vt 0.2286 0.5556
vn -1.0000 0.0000 0.0000
vn 0.0000 0.0000 -1.0000
vn 1.0000 0.0000 0.0000
vn 0.0000 0.0000 1.0000
vn 0.0000 -1.0000 0.0000
vn 0.0000 1.0000 0.0000
vn -0.0295 0.0295 0.9991
usemtl None
s off
f 5/1/1 6/2/1 8/3/1 7/4/1
f 7/5/2 8/6/2 12/7/2 11/8/2
f 11/9/3 12/10/3 10/11/3 9/12/3
f 9/13/4 10/14/4 6/15/4 5/16/4
f 7/17/5 11/18/5 9/19/5 5/20/5
f 12/21/6 8/22/6 6/23/6 10/24/6
f 15/25/4 16/26/4 14/27/4 13/28/4
f 17/29/1 18/30/1 20/31/1 19/32/1
f 19/33/2 20/34/2 24/35/2 23/36/2
f 23/37/3 24/38/3 22/39/3 21/40/3
f 19/41/5 23/42/5 21/43/5 17/44/5
f 24/45/6 20/46/6 18/47/6 22/48/6
f 31/49/4 32/50/4 30/51/4 29/52/4
f 33/53/1 34/54/1 36/55/1 35/56/1
f 35/57/2 36/58/2 40/59/2 39/60/2
f 39/61/3 40/62/3 38/63/3 37/64/3
f 35/65/5 39/66/5 37/67/5 33/68/5
f 40/69/6 36/70/6 34/71/6 38/72/6
f 43/73/4 44/74/4 42/75/4 41/76/4
f 45/77/1 46/78/1 48/79/1 47/80/1
f 47/81/2 48/82/2 52/83/2 51/84/2
f 51/85/3 52/86/3 50/87/3 49/88/3
f 47/89/5 51/90/5 49/91/5 45/92/5
f 52/93/6 48/94/6 46/95/6 50/96/6
f 53/97/1 54/98/1 56/99/1 55/100/1
f 55/101/2 56/102/2 60/103/2 59/104/2
f 59/105/3 60/106/3 58/107/3 57/108/3
f 57/109/7 58/110/7 54/111/7 53/112/7
f 55/113/5 59/114/5 57/115/5 53/116/5
f 60/117/6 56/118/6 54/119/6 58/120/6
f 61/121/1 62/122/1 64/123/1 63/124/1
f 63/125/2 64/126/2 68/127/2 67/128/2
f 67/129/3 68/130/3 66/131/3 65/132/3
f 65/133/7 66/134/7 62/135/7 61/136/7
f 63/137/5 67/138/5 65/139/5 61/140/5
f 68/141/6 64/142/6 62/143/6 66/144/6
f 69/145/1 70/146/1 72/147/1 71/148/1
f 71/149/2 72/150/2 76/151/2 75/152/2
f 75/153/3 76/154/3 74/155/3 73/156/3
f 73/157/7 74/158/7 70/159/7 69/160/7
f 71/161/5 75/162/5 73/163/5 69/164/5
f 76/151/6 72/150/6 70/165/6 74/166/6
f 79/167/1 80/168/1 82/169/1 81/170/1
f 81/171/2 82/172/2 86/173/2 85/174/2
f 85/175/3 86/176/3 84/177/3 83/178/3
f 83/179/7 84/180/7 80/181/7 79/182/7
f 81/183/5 85/184/5 83/185/5 79/186/5
f 86/187/6 82/188/6 80/189/6 84/190/6
f 87/191/6 88/192/6 90/193/6 89/194/6
f 89/195/2 90/196/2 94/197/2 93/198/2
f 93/199/5 94/200/5 92/201/5 91/202/5
f 91/203/4 92/204/4 88/205/4 87/206/4
f 89/207/1 93/208/1 91/209/1 87/210/1
f 94/211/3 90/212/3 88/213/3 92/214/3
f 95/215/6 96/216/6 98/217/6 97/218/6
f 97/219/2 98/220/2 102/221/2 101/222/2
f 101/223/5 102/224/5 100/225/5 99/226/5
f 99/227/4 100/228/4 96/229/4 95/230/4
f 97/231/1 101/232/1 99/233/1 95/234/1
f 102/235/3 98/236/3 96/237/3 100/238/3
f 103/239/6 104/240/6 106/241/6 105/242/6
f 105/243/2 106/244/2 110/245/2 109/246/2
f 109/247/5 110/248/5 108/249/5 107/250/5
f 107/251/4 108/252/4 104/253/4 103/254/4
f 105/255/1 109/256/1 107/257/1 103/258/1
f 110/259/3 106/260/3 104/261/3 108/262/3
f 111/263/6 112/264/6 114/265/6 113/266/6
f 113/266/2 114/265/2 118/267/2 117/268/2
f 117/269/5 118/270/5 116/271/5 115/272/5
f 115/273/4 116/274/4 112/275/4 111/276/4
f 113/277/1 117/278/1 115/279/1 111/280/1
f 118/281/3 114/282/3 112/283/3 116/284/3
l 2 1
l 4 3
l 26 25
l 28 27
l 78 77
