mtllib collector.mtl
o collector
v 0.000000 0.000000 1.000000
v 0.000000 1.000000 1.000000
v 0.000000 0.000000 0.000000
v 0.000000 1.000000 0.000000
v 1.000000 0.000000 1.000000
v 1.000000 1.000000 1.000000
v 1.000000 0.000000 0.000000
v 1.000000 1.000000 0.000000
v 1.000000 0.100000 0.900000
v 1.000000 0.900000 0.900000
v 1.000000 0.100000 0.100000
v 1.000000 0.900000 0.100000
v 0.900000 0.200000 0.800000
v 0.900000 0.800000 0.800000
v 0.900000 0.200000 0.200000
v 0.900000 0.800000 0.200000
vt 0.6667 0.3333
vt 0.3333 0.3333
vt 0.3333 0.0000
vt 0.6667 0.0000
vt 0.3333 0.3333
vt 0.0000 0.3333
vt 0.0000 0.0000
vt 0.3333 0.0000
vt 1.0000 0.3320
vt 0.6680 0.3320
vt 0.7033 0.2969
vt 0.9649 0.2969
vt 0.0000 0.6667
vt 0.0000 0.3333
vt 0.3333 0.6667
vt 0.0000 1.0000
vt 0.0000 0.6667
vt 0.3333 0.6667
vt 0.3333 1.0000
vt 0.6679 0.3321
vt 0.6679 0.6640
vt 0.3361 0.6639
vt 0.3364 0.3322
vt 0.7333 0.2667
vt 0.9333 0.2667
vt 0.6680 0.0000
vt 0.7031 0.0352
vt 1.0000 0.0000
vt 0.9648 0.0352
vt 0.7333 0.0667
vt 0.9333 0.0667
vn -1.0000 0.0000 0.0000
vn 0.0000 0.0000 -1.0000
vn 1.0000 0.0000 0.0000
vn 0.0000 0.0000 1.0000
vn 0.0000 -1.0000 0.0000
vn 0.0000 1.0000 0.0000
vn 0.7071 -0.0000 -0.7071
vn 0.7071 0.7071 0.0000
vn 0.7071 -0.7071 0.0000
vn 0.7071 0.0000 0.7071
usemtl None
s off
f 1/1/1 2/2/1 4/3/1 3/4/1
f 3/5/2 4/6/2 8/7/2 7/8/2
f 6/9/3 5/10/3 9/11/3 10/12/3
f 5/13/4 6/14/4 2/2/4 1/15/4
f 3/16/5 7/17/5 5/18/5 1/19/5
f 8/20/6 4/21/6 2/22/6 6/23/6
f 10/12/7 9/11/7 13/24/7 14/25/7
f 5/10/3 7/26/3 11/27/3 9/11/3
f 8/28/3 6/9/3 10/12/3 12/29/3
f 7/26/3 8/28/3 12/29/3 11/27/3
f 15/30/3 16/31/3 14/25/3 13/24/3
f 9/11/8 11/27/8 15/30/8 13/24/8
f 12/29/9 10/12/9 14/25/9 16/31/9
f 11/27/10 12/29/10 16/31/10 15/30/10
