# Blender v2.78 (sub 0) OBJ File: 'energy_extractor.blend'
# www.blender.org
mtllib energy_extractor.mtl
o Cube.002
v 0.956501 0.891280 0.108510
v 0.923892 0.858671 0.141119
v 0.923892 0.858671 0.858525
v 0.956501 0.891280 0.891134
v 0.923892 0.141265 0.858525
v 0.956501 0.108655 0.891134
v 0.923892 0.141265 0.141119
v 0.956501 0.108655 0.108510
v 0.999980 0.152134 0.847655
v 0.999980 0.152134 0.151989
v 0.999980 0.282572 0.282426
v 0.999980 0.282572 0.717218
v 0.999980 0.717363 0.717218
v 0.956501 0.336921 0.662869
v 0.956501 0.663014 0.662869
v 0.999980 0.847801 0.151989
v 0.999980 0.847801 0.847655
v 0.999980 0.717363 0.282426
v 0.956501 0.663014 0.336775
v 0.956501 0.336921 0.336775
v 0.902152 0.119525 0.119379
v 0.902152 0.880410 0.119379
v 0.902152 0.880410 0.880265
v 0.902152 0.119525 0.880265
v 0.043438 0.108654 0.108510
v 0.076047 0.141263 0.141119
v 0.076047 0.141264 0.858525
v 0.043438 0.108654 0.891135
v 0.076047 0.858670 0.858525
v 0.043438 0.891279 0.891135
v 0.076047 0.858670 0.141119
v 0.043438 0.891279 0.108510
v -0.000041 0.847800 0.847655
v -0.000041 0.847800 0.151989
v -0.000041 0.717362 0.282426
v -0.000041 0.717362 0.717218
v -0.000041 0.282571 0.717218
v 0.043438 0.663013 0.662869
v 0.043438 0.336920 0.662869
v -0.000041 0.152133 0.151989
v -0.000041 0.152133 0.847655
v -0.000041 0.282571 0.282426
v 0.043438 0.336920 0.336775
v 0.043438 0.663013 0.336775
v 0.097787 0.880409 0.119379
v 0.097787 0.119524 0.119379
v 0.097787 0.119525 0.880265
v 0.097787 0.880410 0.880265
v 0.108657 0.891280 0.043291
v 0.141267 0.858671 0.075900
v 0.858673 0.858671 0.075900
v 0.891282 0.891280 0.043291
v 0.858673 0.141265 0.075900
v 0.891282 0.108655 0.043291
v 0.141267 0.141265 0.075900
v 0.108657 0.108655 0.043291
v 0.847803 0.152134 -0.000189
v 0.152136 0.152134 -0.000189
v 0.282574 0.282572 -0.000189
v 0.717366 0.282572 -0.000189
v 0.717366 0.717363 -0.000188
v 0.663017 0.336921 0.043291
v 0.663017 0.663014 0.043291
v 0.152136 0.847801 -0.000189
v 0.847803 0.847801 -0.000189
v 0.282574 0.717363 -0.000188
v 0.336923 0.663015 0.043291
v 0.336923 0.336921 0.043291
v 0.119527 0.119525 0.097640
v 0.119527 0.880410 0.097640
v 0.880412 0.880410 0.097640
v 0.880412 0.119525 0.097640
v 0.108657 0.108654 0.956354
v 0.141267 0.141263 0.923744
v 0.858673 0.141263 0.923744
v 0.891282 0.108654 0.956354
v 0.858673 0.858670 0.923744
v 0.891282 0.891279 0.956354
v 0.141267 0.858670 0.923744
v 0.108657 0.891279 0.956354
v 0.847803 0.847800 0.999833
v 0.152136 0.847800 0.999833
v 0.282574 0.717362 0.999833
v 0.717365 0.717362 0.999833
v 0.717365 0.282571 0.999833
v 0.663016 0.663013 0.956354
v 0.663016 0.336920 0.956354
v 0.152136 0.152133 0.999833
v 0.847803 0.152133 0.999833
v 0.282574 0.282571 0.999833
v 0.336923 0.336920 0.956354
v 0.336923 0.663013 0.956354
v 0.119527 0.880410 0.902004
v 0.119527 0.119525 0.902004
v 0.880412 0.119524 0.902004
v 0.880412 0.880410 0.902004
v 0.108657 0.956498 0.891134
v 0.141267 0.923889 0.858525
v 0.858673 0.923889 0.858525
v 0.891282 0.956498 0.891134
v 0.858673 0.923889 0.141119
v 0.891282 0.956498 0.108510
v 0.141267 0.923889 0.141119
v 0.108657 0.956498 0.108510
v 0.847803 0.999977 0.151989
v 0.152136 0.999977 0.151989
v 0.282574 0.999977 0.282426
v 0.717365 0.999977 0.282426
v 0.717365 0.999977 0.717218
v 0.663016 0.956498 0.336775
v 0.663016 0.956498 0.662869
v 0.152136 0.999977 0.847655
v 0.847803 0.999977 0.847655
v 0.282574 0.999977 0.717218
v 0.336923 0.956498 0.662869
v 0.336923 0.956498 0.336775
v 0.119527 0.902149 0.119379
v 0.119527 0.902149 0.880265
v 0.880412 0.902149 0.880265
v 0.880412 0.902149 0.119379
v 0.108657 0.043435 0.108509
v 0.141267 0.076044 0.141118
v 0.858673 0.076044 0.141118
v 0.891282 0.043435 0.108508
v 0.858673 0.076044 0.858524
v 0.891282 0.043435 0.891133
v 0.141267 0.076045 0.858524
v 0.108657 0.043435 0.891133
v 0.847803 -0.000044 0.847654
v 0.152136 -0.000044 0.847654
v 0.282574 -0.000044 0.717217
v 0.717366 -0.000044 0.717217
v 0.717366 -0.000044 0.282425
v 0.663016 0.043435 0.662868
v 0.663016 0.043435 0.336774
v 0.152136 -0.000044 0.151988
v 0.847803 -0.000044 0.151988
v 0.282574 -0.000044 0.282425
v 0.336923 0.043435 0.336774
v 0.336923 0.043435 0.662868
v 0.119527 0.097784 0.880264
v 0.119527 0.097784 0.119378
v 0.880412 0.097784 0.119378
v 0.880412 0.097784 0.880264
v 0.934761 0.913019 0.086770
v 0.913022 0.913019 0.065030
v 0.913022 0.934759 0.086770
v 0.086918 0.934759 0.086770
v 0.086918 0.913019 0.065030
v 0.065178 0.913019 0.086770
v 0.086918 0.934759 0.912874
v 0.065178 0.913019 0.912874
v 0.086918 0.913019 0.934614
v 0.913022 0.086915 0.934614
v 0.913022 0.065176 0.912874
v 0.934761 0.086915 0.912874
v 0.086918 0.065176 0.912874
v 0.086918 0.086915 0.934614
v 0.065178 0.086915 0.912874
v 0.065178 0.086915 0.086770
v 0.086918 0.086915 0.065030
v 0.086918 0.065175 0.086770
v 0.934761 0.086915 0.086770
v 0.913022 0.065175 0.086770
v 0.913022 0.086915 0.065031
v 0.913022 0.934759 0.912874
v 0.934761 0.913019 0.912874
v 0.913022 0.913019 0.934614
vt 0.1407 0.2364
vt 0.1640 0.2616
vt 0.7384 0.2616
vt 0.7636 0.2364
vt 0.7384 0.8361
vt 0.7636 0.8593
vt 0.1640 0.8361
vt 0.1407 0.8593
vt 0.6958 0.3012
vt 0.6958 0.7951
vt 0.5999 0.7019
vt 0.5999 0.3916
vt 0.2957 0.3916
vt 0.5611 0.4304
vt 0.3346 0.4304
vt 0.2082 0.7951
vt 0.2082 0.3012
vt 0.2957 0.7019
vt 0.7264 0.2706
vt 0.1776 0.2706
vt 0.7264 0.8257
vt 0.1776 0.8257
vt 0.3346 0.6631
vt 0.5611 0.6631
vt 0.1269 0.2227
vt 0.1269 0.8770
vt 0.1055 0.8965
vt 0.1055 0.2032
vt 0.7756 0.8770
vt 0.7755 0.2226
vt 0.7949 0.2032
vt 0.7949 0.8965
vt 0.1407 0.2364
vt 0.1640 0.2616
vt 0.7384 0.2616
vt 0.7636 0.2364
vt 0.7384 0.8361
vt 0.7636 0.8593
vt 0.1640 0.8361
vt 0.1407 0.8593
vt 0.6958 0.3012
vt 0.6958 0.7951
vt 0.5999 0.7019
vt 0.5999 0.3916
vt 0.2957 0.3916
vt 0.5611 0.4304
vt 0.3346 0.4304
vt 0.2082 0.7951
vt 0.2082 0.3012
vt 0.2957 0.7019
vt 0.7264 0.2706
vt 0.1776 0.2706
vt 0.7264 0.8257
vt 0.1776 0.8257
vt 0.3346 0.6631
vt 0.5611 0.6631
vt 0.1269 0.2227
vt 0.1269 0.8770
vt 0.1055 0.8965
vt 0.1055 0.2032
vt 0.7756 0.8770
vt 0.7755 0.2226
vt 0.7949 0.2032
vt 0.7949 0.8965
vt 0.1407 0.2364
vt 0.1640 0.2616
vt 0.7384 0.2616
vt 0.7636 0.2364
vt 0.7384 0.8361
vt 0.7636 0.8593
vt 0.1640 0.8361
vt 0.1407 0.8593
vt 0.6958 0.3012
vt 0.6958 0.7951
vt 0.5999 0.7019
vt 0.5999 0.3916
vt 0.2957 0.3916
vt 0.5611 0.4304
vt 0.3346 0.4304
vt 0.2082 0.7951
vt 0.2082 0.3012
vt 0.2957 0.7019
vt 0.7264 0.2706
vt 0.1776 0.2706
vt 0.7264 0.8257
vt 0.1776 0.8257
vt 0.3346 0.6631
vt 0.5611 0.6631
vt 0.9941 0.1072
vt 0.8929 0.1072
vt 0.8929 0.0059
vt 0.9941 0.0059
vt 0.1269 0.2227
vt 0.1269 0.8770
vt 0.1055 0.8965
vt 0.1055 0.2032
vt 0.7756 0.8770
vt 0.7755 0.2226
vt 0.7949 0.2032
vt 0.7949 0.8965
vt 0.1407 0.2364
vt 0.1640 0.2616
vt 0.7384 0.2616
vt 0.7636 0.2364
vt 0.7384 0.8361
vt 0.7636 0.8593
vt 0.1640 0.8361
vt 0.1407 0.8593
vt 0.6958 0.3012
vt 0.6958 0.7951
vt 0.5999 0.7019
vt 0.5999 0.3916
vt 0.2957 0.3916
vt 0.5611 0.4304
vt 0.3346 0.4304
vt 0.2082 0.7951
vt 0.2082 0.3012
vt 0.2957 0.7019
vt 0.7264 0.2706
vt 0.1776 0.2706
vt 0.7264 0.8257
vt 0.1776 0.8257
vt 0.3346 0.6631
vt 0.5611 0.6631
vt 0.1269 0.2227
vt 0.1269 0.8770
vt 0.1055 0.8965
vt 0.1055 0.2032
vt 0.7756 0.8770
vt 0.7755 0.2226
vt 0.7949 0.2032
vt 0.7949 0.8965
vt 0.1407 0.2364
vt 0.1640 0.2616
vt 0.7384 0.2616
vt 0.7636 0.2364
vt 0.7384 0.8361
vt 0.7636 0.8593
vt 0.1640 0.8361
vt 0.1407 0.8593
vt 0.6958 0.3012
vt 0.6958 0.7951
vt 0.5999 0.7019
vt 0.5999 0.3916
vt 0.2957 0.3916
vt 0.5611 0.4304
vt 0.3346 0.4304
vt 0.2082 0.7951
vt 0.2082 0.3012
vt 0.2957 0.7019
vt 0.7264 0.2706
vt 0.1776 0.2706
vt 0.7264 0.8257
vt 0.1776 0.8257
vt 0.3346 0.6631
vt 0.5611 0.6631
vt 0.1269 0.2227
vt 0.1269 0.8770
vt 0.1055 0.8965
vt 0.1055 0.2032
vt 0.7756 0.8770
vt 0.7755 0.2226
vt 0.7949 0.2032
vt 0.7949 0.8965
vt 0.1407 0.2364
vt 0.1640 0.2616
vt 0.7384 0.2616
vt 0.7636 0.2364
vt 0.7384 0.8361
vt 0.7636 0.8593
vt 0.1640 0.8361
vt 0.1407 0.8593
vt 0.6958 0.3012
vt 0.6958 0.7951
vt 0.5999 0.7019
vt 0.5999 0.3916
vt 0.2957 0.3916
vt 0.5611 0.4304
vt 0.3346 0.4304
vt 0.2082 0.7951
vt 0.2082 0.3012
vt 0.2957 0.7019
vt 0.7264 0.2706
vt 0.1776 0.2706
vt 0.7264 0.8257
vt 0.1776 0.8257
vt 0.3346 0.6631
vt 0.5611 0.6631
vt 0.1269 0.2227
vt 0.1269 0.8770
vt 0.1055 0.8965
vt 0.1055 0.2032
vt 0.7756 0.8770
vt 0.7755 0.2226
vt 0.7949 0.2032
vt 0.7949 0.8965
vt 0.8913 0.9711
vt 0.8693 0.9930
vt 0.8693 0.9711
vt 0.0366 0.9711
vt 0.0366 0.9930
vt 0.0146 0.9711
vt 0.0366 0.1327
vt 0.0146 0.1327
vt 0.0366 0.1108
vt 0.8693 0.1108
vt 0.8693 0.1327
vt 0.8913 0.1327
vt 0.0366 0.1327
vt 0.0366 0.1108
vt 0.0146 0.1327
vt 0.0146 0.9711
vt 0.0366 0.9930
vt 0.0366 0.9711
vt 0.8913 0.9711
vt 0.8693 0.9711
vt 0.8693 0.9930
vt 0.8693 0.1327
vt 0.8913 0.1327
vt 0.8693 0.1108
vt 0.8583 0.9381
vt 0.8363 0.9381
vt 0.8363 0.9601
vt 0.0696 0.9381
vt 0.0476 0.9381
vt 0.0696 0.9601
vt 0.0696 0.1657
vt 0.0696 0.1437
vt 0.0476 0.1657
vt 0.8363 0.1437
vt 0.8583 0.1657
vt 0.8363 0.1657
vt 0.0696 0.1657
vt 0.0476 0.1657
vt 0.0696 0.1437
vt 0.0476 0.9381
vt 0.0696 0.9381
vt 0.0696 0.9601
vt 0.8583 0.9381
vt 0.8363 0.9601
vt 0.8363 0.9381
vt 0.8583 0.1657
vt 0.8363 0.1657
vt 0.8363 0.1437
vn -0.7071 0.7071 0.0000
vn -0.7071 -0.0000 0.7071
vn -0.7071 -0.7071 -0.0000
vn -0.7071 0.0000 -0.7071
vn 1.0000 -0.0000 0.0000
vn 0.7809 0.0000 -0.6247
vn 0.7071 -0.0000 0.7071
vn 0.7071 -0.7071 -0.0000
vn 0.7071 0.0000 -0.7071
vn 0.7071 0.7071 0.0000
vn 0.7809 -0.0000 0.6247
vn 0.7809 0.6247 0.0000
vn 0.7809 -0.6247 0.0000
vn -1.0000 0.0000 0.0000
vn -0.7809 0.0000 -0.6247
vn -0.7809 -0.0000 0.6247
vn -0.7809 -0.6247 -0.0000
vn -0.7809 0.6247 0.0000
vn 0.0000 0.7071 0.7071
vn 0.0000 -0.7071 0.7071
vn -0.0000 0.0000 -1.0000
vn -0.6247 0.0000 -0.7809
vn 0.0000 -0.7071 -0.7071
vn 0.0000 0.7071 -0.7071
vn 0.6247 0.0000 -0.7809
vn 0.0000 0.6247 -0.7809
vn -0.0000 -0.6247 -0.7809
vn 0.0000 -0.0000 1.0000
vn -0.6247 -0.0000 0.7809
vn 0.6247 -0.0000 0.7809
vn 0.0000 -0.6247 0.7809
vn 0.0000 0.6247 0.7809
vn -0.0000 1.0000 0.0000
vn -0.6247 0.7809 0.0000
vn 0.6247 0.7809 0.0000
vn 0.0000 0.7809 0.6247
vn 0.0000 0.7809 -0.6247
vn -0.0000 -1.0000 -0.0000
vn -0.6247 -0.7809 -0.0000
vn 0.6247 -0.7809 -0.0000
vn 0.0000 -0.7809 -0.6247
vn 0.0000 -0.7809 0.6247
vn 0.5774 0.5773 -0.5773
vn -0.5774 0.5773 -0.5774
vn -0.5774 0.5773 0.5774
vn 0.5774 -0.5774 0.5773
vn -0.5773 -0.5774 0.5773
vn -0.5774 -0.5773 -0.5774
vn 0.5774 -0.5773 -0.5774
vn 0.5774 0.5773 0.5773
vn -0.5773 -0.5774 0.5774
vn 0.5773 -0.5774 -0.5774
vn 0.5773 0.5773 -0.5774
vn 0.5773 0.5773 0.5774
vn 0.0000 0.7071 0.7072
vn -0.5773 -0.5774 -0.5774
vn 0.4082 -0.8165 0.4082
usemtl None
f 1/1/1 2/2/1 3/3/1 4/4/1
f 4/4/2 3/3/2 5/5/2 6/6/2
f 7/7/3 8/8/3 6/6/3 5/5/3
f 2/2/4 1/1/4 8/8/4 7/7/4
f 9/9/5 10/10/5 11/11/5 12/12/5
f 13/13/6 12/12/6 14/14/6 15/15/6
f 16/16/5 17/17/5 13/13/5 18/18/5
f 17/17/5 9/9/5 12/12/5 13/13/5
f 10/10/5 16/16/5 18/18/5 11/11/5
f 6/19/7 9/9/7 17/17/7 4/20/7
f 8/21/8 10/10/8 9/9/8 6/19/8
f 1/22/9 16/16/9 10/10/9 8/21/9
f 4/20/10 17/17/10 16/16/10 1/22/10
f 11/11/11 18/18/11 19/23/11 20/24/11
f 12/12/12 11/11/12 20/24/12 14/14/12
f 18/18/13 13/13/13 15/15/13 19/23/13
f 20/24/5 19/23/5 15/15/5 14/14/5
f 2/25/9 7/26/9 21/27/9 22/28/9
f 5/29/7 3/30/7 23/31/7 24/32/7
f 3/30/10 2/25/10 22/28/10 23/31/10
f 7/26/8 5/29/8 24/32/8 21/27/8
f 25/33/8 26/34/8 27/35/8 28/36/8
f 28/36/7 27/35/7 29/37/7 30/38/7
f 31/39/10 32/40/10 30/38/10 29/37/10
f 26/34/9 25/33/9 32/40/9 31/39/9
f 33/41/14 34/42/14 35/43/14 36/44/14
f 37/45/15 36/44/15 38/46/15 39/47/15
f 40/48/14 41/49/14 37/45/14 42/50/14
f 41/49/14 33/41/14 36/44/14 37/45/14
f 34/42/14 40/48/14 42/50/14 35/43/14
f 30/51/2 33/41/2 41/49/2 28/52/2
f 32/53/1 34/42/1 33/41/1 30/51/1
f 25/54/4 40/48/4 34/42/4 32/53/4
f 28/52/3 41/49/3 40/48/3 25/54/3
f 35/43/16 42/50/16 43/55/16 44/56/16
f 36/44/17 35/43/17 44/56/17 38/46/17
f 42/50/18 37/45/18 39/47/18 43/55/18
f 44/56/14 43/55/14 39/47/14 38/46/14
f 26/57/4 31/58/4 45/59/4 46/60/4
f 29/61/2 27/62/2 47/63/2 48/64/2
f 27/62/3 26/57/3 46/60/3 47/63/3
f 31/58/1 29/61/1 48/64/1 45/59/1
f 49/65/19 50/66/19 51/67/19 52/68/19
f 52/68/7 51/67/7 53/69/7 54/70/7
f 55/71/20 56/72/20 54/70/20 53/69/20
f 50/66/2 49/65/2 56/72/2 55/71/2
f 57/73/21 58/74/21 59/75/21 60/76/21
f 61/77/22 60/76/22 62/78/22 63/79/22
f 64/80/21 65/81/21 61/77/21 66/82/21
f 65/81/21 57/73/21 60/76/21 61/77/21
f 58/74/21 64/80/21 66/82/21 59/75/21
f 54/83/9 57/73/9 65/81/9 52/84/9
f 56/85/23 58/74/23 57/73/23 54/83/23
f 49/86/4 64/80/4 58/74/4 56/85/4
f 52/84/24 65/81/24 64/80/24 49/86/24
f 59/75/25 66/82/25 67/87/25 68/88/25
f 60/76/26 59/75/26 68/88/26 62/78/26
f 66/82/27 61/77/27 63/79/27 67/87/27
f 68/89/21 67/90/21 63/91/21 62/92/21
f 50/93/4 55/94/4 69/95/4 70/96/4
f 53/97/9 51/98/9 71/99/9 72/100/9
f 51/98/24 50/93/24 70/96/24 71/99/24
f 55/94/23 53/97/23 72/100/23 69/95/23
f 73/101/23 74/102/23 75/103/23 76/104/23
f 76/104/9 75/103/9 77/105/9 78/106/9
f 79/107/24 80/108/24 78/106/24 77/105/24
f 74/102/4 73/101/4 80/108/4 79/107/4
f 81/109/28 82/110/28 83/111/28 84/112/28
f 85/113/29 84/112/29 86/114/29 87/115/29
f 88/116/28 89/117/28 85/113/28 90/118/28
f 89/117/28 81/109/28 84/112/28 85/113/28
f 82/110/28 88/116/28 90/118/28 83/111/28
f 78/119/7 81/109/7 89/117/7 76/120/7
f 80/121/19 82/110/19 81/109/19 78/119/19
f 73/122/2 88/116/2 82/110/2 80/121/2
f 76/120/20 89/117/20 88/116/20 73/122/20
f 83/111/30 90/118/30 91/123/30 92/124/30
f 84/112/31 83/111/31 92/124/31 86/114/31
f 90/118/32 85/113/32 87/115/32 91/123/32
f 92/124/28 91/123/28 87/115/28 86/114/28
f 74/125/2 79/126/2 93/127/2 94/128/2
f 77/129/7 75/130/7 95/131/7 96/132/7
f 75/130/20 74/125/20 94/128/20 95/131/20
f 79/126/19 77/129/19 96/132/19 93/127/19
f 97/133/20 98/134/20 99/135/20 100/136/20
f 100/136/8 99/135/8 101/137/8 102/138/8
f 103/139/23 104/140/23 102/138/23 101/137/23
f 98/134/3 97/133/3 104/140/3 103/139/3
f 105/141/33 106/142/33 107/143/33 108/144/33
f 109/145/34 108/144/34 110/146/34 111/147/34
f 112/148/33 113/149/33 109/145/33 114/150/33
f 113/149/33 105/141/33 108/144/33 109/145/33
f 106/142/33 112/148/33 114/150/33 107/143/33
f 102/151/10 105/141/10 113/149/10 100/152/10
f 104/153/24 106/142/24 105/141/24 102/151/24
f 97/154/1 112/148/1 106/142/1 104/153/1
f 100/152/19 113/149/19 112/148/19 97/154/19
f 107/143/35 114/150/35 115/155/35 116/156/35
f 108/144/36 107/143/36 116/156/36 110/146/36
f 114/150/37 109/145/37 111/147/37 115/155/37
f 116/156/33 115/155/33 111/147/33 110/146/33
f 98/157/1 103/158/1 117/159/1 118/160/1
f 101/161/10 99/162/10 119/163/10 120/164/10
f 99/162/19 98/157/19 118/160/19 119/163/19
f 103/158/24 101/161/24 120/164/24 117/159/24
f 121/165/24 122/166/24 123/167/24 124/168/24
f 124/168/10 123/167/10 125/169/10 126/170/10
f 127/171/19 128/172/19 126/170/19 125/169/19
f 122/166/1 121/165/1 128/172/1 127/171/1
f 129/173/38 130/174/38 131/175/38 132/176/38
f 133/177/39 132/176/39 134/178/39 135/179/39
f 136/180/38 137/181/38 133/177/38 138/182/38
f 137/181/38 129/173/38 132/176/38 133/177/38
f 130/174/38 136/180/38 138/182/38 131/175/38
f 126/183/8 129/173/8 137/181/8 124/184/8
f 128/185/20 130/174/20 129/173/20 126/183/20
f 121/186/3 136/180/3 130/174/3 128/185/3
f 124/184/23 137/181/23 136/180/23 121/186/23
f 131/175/40 138/182/40 139/187/40 140/188/40
f 132/176/41 131/175/41 140/188/41 134/178/41
f 138/182/42 133/177/42 135/179/42 139/187/42
f 140/188/38 139/187/38 135/179/38 134/178/38
f 122/189/3 127/190/3 141/191/3 142/192/3
f 125/193/8 123/194/8 143/195/8 144/196/8
f 123/194/23 122/189/23 142/192/23 143/195/23
f 127/190/20 125/193/20 144/196/20 141/191/20
f 145/197/43 146/198/43 147/199/43
f 148/200/44 149/201/44 150/202/44
f 151/203/45 152/204/45 153/205/45
f 154/206/46 155/207/46 156/208/46
f 157/209/47 158/210/47 159/211/47
f 160/212/48 161/213/48 162/214/48
f 163/215/49 164/216/49 165/217/49
f 150/202/1 152/204/1 151/203/1 148/200/1
f 146/198/24 149/201/24 148/200/24 147/199/24
f 145/197/10 147/199/10 166/218/10 167/219/10
f 151/203/19 153/205/19 168/220/19 166/218/19
f 156/208/8 155/207/8 164/216/8 163/215/8
f 155/207/20 154/206/20 158/210/20 157/209/20
f 160/212/3 162/214/3 157/209/3 159/211/3
f 164/216/23 162/214/23 161/213/23 165/217/23
f 167/219/7 168/220/7 154/206/7 156/208/7
f 159/211/2 158/210/2 153/205/2 152/204/2
f 160/212/4 150/202/4 149/201/4 161/213/4
f 163/215/9 165/217/9 146/198/9 145/197/9
f 168/220/50 167/219/50 166/218/50
f 22/221/51 120/222/51 71/223/51
f 117/224/46 45/225/46 70/226/46
f 118/227/52 93/228/52 48/229/52
f 95/230/44 24/231/44 144/232/44
f 141/233/53 47/234/53 94/235/53
f 46/236/54 142/237/54 69/238/54
f 21/239/45 72/240/45 143/241/45
f 45/225/8 117/224/8 118/227/8 48/229/8
f 71/223/20 120/222/20 117/224/20 70/226/20
f 22/221/3 23/242/3 119/243/3 120/222/3
f 118/227/23 119/243/23 96/244/23 93/228/23
f 24/231/1 21/239/1 143/241/1 144/232/1
f 144/232/24 141/233/24 94/235/24 95/230/24
f 46/236/10 47/234/10 141/233/10 142/237/10
f 143/241/55 72/240/55 69/238/55 142/237/55
f 23/242/4 24/231/4 95/230/4 96/244/4
f 47/234/9 48/229/9 93/228/9 94/235/9
f 46/236/7 69/238/7 70/226/7 45/225/7
f 21/239/2 22/221/2 71/223/2 72/240/2
f 96/244/56 119/243/56 23/242/56
f 96/244/57 23/242/57 167/219/57 168/220/57
f 153/205/20 93/228/20 96/244/20 168/220/20
f 150/202/3 45/225/3 48/229/3 152/204/3
f 146/198/23 71/223/23 70/226/23 149/201/23
f 167/219/8 23/242/8 22/221/8 145/197/8
f 147/199/1 120/222/1 119/243/1 166/218/1
f 165/217/4 72/240/4 71/223/4 146/198/4
f 165/217/24 161/213/24 69/238/24 72/240/24
f 161/213/9 149/201/9 70/226/9 69/238/9
f 160/212/2 46/236/2 45/225/2 150/202/2
f 159/211/1 47/234/1 46/236/1 160/212/1
f 152/204/4 48/229/4 47/234/4 159/211/4
f 158/210/7 94/235/7 93/228/7 153/205/7
f 154/206/19 95/230/19 94/235/19 158/210/19
f 163/215/10 21/239/10 24/231/10 156/208/10
f 145/197/7 22/221/7 21/239/7 163/215/7
f 23/242/9 167/219/9 156/208/9 24/231/9
f 95/230/2 154/206/2 168/220/2 96/244/2
f 166/218/24 119/243/24 118/227/24 151/203/24
f 148/200/10 151/203/10 118/227/10 117/224/10
f 147/199/19 148/200/19 117/224/19 120/222/19
f 157/209/23 141/233/23 144/232/23 155/207/23
f 162/214/8 142/237/8 141/233/8 157/209/8
f 164/216/20 143/241/20 142/237/20 162/214/20
f 155/207/3 144/232/3 143/241/3 164/216/3
