# Blender v2.78 (sub 0) OBJ File: 'AA_001.blend'
# www.blender.org
mtllib energy_extractor.mtl
o Cube.002
v 0.920000 0.860000 0.140000
v 0.920000 0.140001 0.140000
v 0.920000 0.860000 0.860000
v 0.920000 0.140000 0.860000
v 0.890000 0.830001 0.830000
v 0.890000 0.830001 0.170000
v 0.890000 0.170001 0.170000
v 0.890000 0.170000 0.830000
v 0.920000 0.860000 0.140000
v 0.920000 0.140001 0.140000
v 0.920000 0.860000 0.860000
v 0.920000 0.140000 0.860000
v 0.960000 0.820001 0.180000
v 0.960000 0.820001 0.820000
v 0.960000 0.180001 0.180000
v 0.960000 0.180001 0.820000
v 0.960000 0.700001 0.300000
v 0.960000 0.700001 0.700000
v 0.960000 0.300000 0.300000
v 0.960000 0.300000 0.700000
v 0.920000 0.650001 0.350000
v 0.920000 0.650001 0.650000
v 0.920000 0.350001 0.350000
v 0.920000 0.350001 0.650000
v 0.890000 0.830001 0.830000
v 0.890000 0.830001 0.170000
v 0.890000 0.170001 0.170000
v 0.890000 0.170000 0.830000
v 0.870000 0.850001 0.850000
v 0.870000 0.850001 0.150000
v 0.870000 0.150001 0.150000
v 0.870000 0.150000 0.850000
v 0.079999 0.140000 0.140000
v 0.080000 0.859999 0.140000
v 0.080000 0.139999 0.860000
v 0.080000 0.860000 0.860000
v 0.109999 0.169999 0.830000
v 0.109999 0.169999 0.170000
v 0.109999 0.829999 0.170000
v 0.109999 0.830000 0.830000
v 0.079999 0.140000 0.140000
v 0.080000 0.859999 0.140000
v 0.080000 0.139999 0.860000
v 0.080000 0.860000 0.860000
v 0.039999 0.179999 0.180000
v 0.039999 0.179999 0.820000
v 0.039999 0.819999 0.180000
v 0.040000 0.819999 0.820000
v 0.040000 0.299999 0.300000
v 0.040000 0.299999 0.700000
v 0.039999 0.700000 0.300000
v 0.040000 0.700000 0.700000
v 0.080000 0.349999 0.350000
v 0.080000 0.349999 0.650000
v 0.080000 0.649999 0.350000
v 0.080000 0.649999 0.650000
v 0.109999 0.169999 0.830000
v 0.109999 0.169999 0.170000
v 0.109999 0.829999 0.170000
v 0.109999 0.830000 0.830000
v 0.129999 0.149999 0.850000
v 0.129999 0.149999 0.150000
v 0.129999 0.849999 0.150000
v 0.130000 0.850000 0.850000
v 0.140000 0.860000 0.080000
v 0.140000 0.140001 0.080000
v 0.860000 0.860000 0.080000
v 0.860000 0.140000 0.080000
v 0.830000 0.830001 0.110000
v 0.170000 0.830001 0.110000
v 0.170000 0.170001 0.110000
v 0.830000 0.170000 0.110000
v 0.140000 0.860000 0.080000
v 0.140000 0.140001 0.080000
v 0.860000 0.860000 0.080000
v 0.860000 0.140000 0.080000
v 0.180000 0.820001 0.040000
v 0.820000 0.820001 0.040000
v 0.180000 0.180001 0.040000
v 0.820000 0.180000 0.040000
v 0.300000 0.700001 0.040000
v 0.700000 0.700001 0.040000
v 0.300000 0.300000 0.040000
v 0.700000 0.300000 0.040000
v 0.350000 0.650001 0.080000
v 0.650000 0.650001 0.080000
v 0.350000 0.350001 0.080000
v 0.650000 0.350001 0.080000
v 0.830000 0.830001 0.110000
v 0.170000 0.830001 0.110000
v 0.170000 0.170001 0.110000
v 0.830000 0.170000 0.110000
v 0.850000 0.850001 0.130000
v 0.150000 0.850001 0.130000
v 0.150000 0.150001 0.130000
v 0.850000 0.150000 0.130000
v 0.140000 0.140000 0.920001
v 0.140000 0.860000 0.920000
v 0.860000 0.139999 0.920000
v 0.860000 0.860000 0.920000
v 0.830000 0.169999 0.890001
v 0.170000 0.169999 0.890001
v 0.170000 0.830000 0.890001
v 0.830000 0.830000 0.890001
v 0.140000 0.140000 0.920001
v 0.140000 0.860000 0.920000
v 0.860000 0.139999 0.920000
v 0.860000 0.860000 0.920000
v 0.180000 0.179999 0.960001
v 0.820000 0.179999 0.960001
v 0.180000 0.820000 0.960001
v 0.820000 0.819999 0.960001
v 0.300000 0.299999 0.960000
v 0.700000 0.299999 0.960000
v 0.300000 0.700000 0.960001
v 0.700000 0.700000 0.960001
v 0.350000 0.349999 0.920000
v 0.650000 0.349999 0.920000
v 0.350000 0.649999 0.920000
v 0.650000 0.649999 0.920000
v 0.830000 0.169999 0.890001
v 0.170000 0.169999 0.890001
v 0.170000 0.830000 0.890001
v 0.830000 0.830000 0.890001
v 0.850000 0.149999 0.870001
v 0.150000 0.149999 0.870001
v 0.150000 0.849999 0.870000
v 0.850000 0.849999 0.870000
v 0.140000 0.920000 0.860000
v 0.140000 0.920000 0.140000
v 0.860000 0.920000 0.860000
v 0.860000 0.920000 0.140000
v 0.830000 0.890000 0.830000
v 0.170000 0.890000 0.830000
v 0.170000 0.890000 0.170000
v 0.830000 0.890000 0.170000
v 0.140000 0.920000 0.860000
v 0.140000 0.920000 0.140000
v 0.860000 0.920000 0.860000
v 0.860000 0.920000 0.140000
v 0.180000 0.960000 0.820000
v 0.820000 0.960000 0.820000
v 0.180000 0.960000 0.180000
v 0.820000 0.960000 0.180000
v 0.300000 0.960000 0.700000
v 0.700000 0.960000 0.700000
v 0.300000 0.960000 0.300000
v 0.700000 0.960000 0.300000
v 0.350000 0.920000 0.650000
v 0.650000 0.920000 0.650000
v 0.350000 0.920000 0.350000
v 0.650000 0.920000 0.350000
v 0.830000 0.890000 0.830000
v 0.170000 0.890000 0.830000
v 0.170000 0.890000 0.170000
v 0.830000 0.890000 0.170000
v 0.850000 0.870000 0.850000
v 0.150000 0.870000 0.850000
v 0.150000 0.870000 0.150000
v 0.850000 0.870000 0.150000
v 0.140000 0.079999 0.139999
v 0.140000 0.079999 0.859999
v 0.860000 0.079999 0.139999
v 0.860000 0.079999 0.859999
v 0.830000 0.109999 0.169999
v 0.170000 0.109999 0.169999
v 0.170000 0.109999 0.829999
v 0.830000 0.109999 0.829999
v 0.140000 0.079999 0.139999
v 0.140000 0.079999 0.859999
v 0.860000 0.079999 0.139999
v 0.860000 0.079999 0.859999
v 0.180000 0.039999 0.179999
v 0.820000 0.039999 0.179999
v 0.180000 0.039999 0.819999
v 0.820000 0.039999 0.819999
v 0.300000 0.039999 0.299999
v 0.700000 0.039999 0.299999
v 0.300000 0.039999 0.699999
v 0.700000 0.039999 0.699999
v 0.350000 0.079999 0.349999
v 0.650000 0.079999 0.349999
v 0.350000 0.079999 0.649999
v 0.650000 0.079999 0.649999
v 0.830000 0.109999 0.169999
v 0.170000 0.109999 0.169999
v 0.170000 0.109999 0.829999
v 0.830000 0.109999 0.829999
v 0.850000 0.129999 0.149999
v 0.150000 0.129999 0.149999
v 0.150000 0.129999 0.849999
v 0.850000 0.129999 0.849999
v 0.583409 0.590614 0.990000
v 0.120000 0.120000 0.100000
v 0.120000 0.880000 0.100000
v 0.880000 0.880000 0.100000
v 0.100000 0.880000 0.880000
v 0.100000 0.120000 0.880000
v 0.100000 0.120000 0.120000
v 0.100000 0.880000 0.120000
v 0.900000 0.120000 0.880000
v 0.900000 0.880000 0.880000
v 0.900000 0.880000 0.120000
v 0.900000 0.120000 0.120000
v 0.880000 0.900000 0.880000
v 0.120000 0.900000 0.880000
v 0.120000 0.900000 0.120000
v 0.880000 0.900000 0.120000
v 0.120000 0.100000 0.880000
v 0.880000 0.100000 0.880000
v 0.880000 0.100000 0.120000
v 0.120000 0.100000 0.120000
v 0.880000 0.120000 0.100000
v 0.120000 0.880000 0.900000
v 0.880000 0.880000 0.900000
v 0.880000 0.120000 0.900000
v 0.120000 0.120000 0.900000
v 0.150000 0.150000 0.130000
v 0.150000 0.850000 0.130000
v 0.850000 0.850000 0.130000
v 0.130000 0.850000 0.850000
v 0.130000 0.150000 0.850000
v 0.130000 0.150000 0.150000
v 0.130000 0.850000 0.150000
v 0.870000 0.150000 0.850000
v 0.870000 0.850000 0.850000
v 0.870000 0.850000 0.150000
v 0.870000 0.150000 0.150000
v 0.850000 0.870000 0.850000
v 0.150000 0.870000 0.850000
v 0.150000 0.870000 0.150000
v 0.850000 0.870000 0.150000
v 0.150000 0.130000 0.850000
v 0.850000 0.130000 0.850000
v 0.850000 0.130000 0.150000
v 0.150000 0.130000 0.150000
v 0.850000 0.150000 0.130000
v 0.150000 0.850000 0.870000
v 0.850000 0.850000 0.870000
v 0.850000 0.150000 0.870000
v 0.150000 0.150000 0.870000
vt 0.6064 0.1064
vt 0.6201 0.1201
vt 0.8779 0.1201
vt 0.8916 0.1064
vt 0.8779 0.3760
vt 0.8916 0.3896
vt 0.6201 0.3760
vt 0.6064 0.3896
vt 0.4238 0.5791
vt 0.4238 0.9219
vt 0.3564 0.8564
vt 0.3564 0.6426
vt 0.1426 0.6426
vt 0.3291 0.6699
vt 0.1699 0.6699
vt 0.0811 0.9219
vt 0.0811 0.5791
vt 0.1426 0.8564
vt 0.4453 0.5576
vt 0.0596 0.5576
vt 0.4453 0.9434
vt 0.0596 0.9434
vt 0.1699 0.8291
vt 0.3291 0.8291
vt 0.6006 0.1006
vt 0.6006 0.3965
vt 0.5908 0.4062
vt 0.5908 0.0908
vt 0.8965 0.3965
vt 0.8965 0.1006
vt 0.9062 0.0908
vt 0.9062 0.4062
vt 0.6064 0.1064
vt 0.6201 0.1201
vt 0.8779 0.1201
vt 0.8916 0.1064
vt 0.8779 0.3760
vt 0.8916 0.3896
vt 0.6201 0.3760
vt 0.6064 0.3896
vt 0.4238 0.5791
vt 0.4238 0.9219
vt 0.3564 0.8564
vt 0.3564 0.6426
vt 0.1426 0.6426
vt 0.3291 0.6699
vt 0.1699 0.6699
vt 0.0811 0.9219
vt 0.0811 0.5791
vt 0.1426 0.8564
vt 0.4453 0.5576
vt 0.0596 0.5576
vt 0.4453 0.9434
vt 0.0596 0.9434
vt 0.1699 0.8291
vt 0.3291 0.8291
vt 0.6006 0.1006
vt 0.6006 0.3965
vt 0.5908 0.4062
vt 0.5908 0.0908
vt 0.8965 0.3965
vt 0.8965 0.1006
vt 0.9062 0.0908
vt 0.9062 0.4062
vt 0.9500 0.4400
vt 0.9400 0.4500
vt 0.9400 0.4400
vt 0.5600 0.4400
vt 0.5600 0.4500
vt 0.5500 0.4400
vt 0.5600 0.0600
vt 0.5500 0.0600
vt 0.5600 0.0500
vt 0.9400 0.0500
vt 0.9400 0.0600
vt 0.9500 0.0600
vt 0.5600 0.0600
vt 0.5600 0.0500
vt 0.5500 0.0600
vt 0.5500 0.4400
vt 0.5600 0.4500
vt 0.5600 0.4400
vt 0.9500 0.4400
vt 0.9400 0.4400
vt 0.9400 0.4500
vt 0.9400 0.0600
vt 0.9500 0.0600
vt 0.9400 0.0500
vt 0.9350 0.4250
vt 0.9250 0.4250
vt 0.9250 0.4350
vt 0.5750 0.4250
vt 0.5650 0.4250
vt 0.5750 0.4350
vt 0.5750 0.0750
vt 0.5750 0.0650
vt 0.5650 0.0750
vt 0.9250 0.0650
vt 0.9350 0.0750
vt 0.9250 0.0750
vt 0.5750 0.0750
vt 0.5650 0.0750
vt 0.5750 0.0650
vt 0.5650 0.4250
vt 0.5750 0.4250
vt 0.5750 0.4350
vt 0.9350 0.4250
vt 0.9250 0.4350
vt 0.9250 0.4250
vt 0.9350 0.0750
vt 0.9250 0.0750
vt 0.9250 0.0650
vt 0.6064 0.1064
vt 0.6201 0.1201
vt 0.8779 0.1201
vt 0.8916 0.1064
vt 0.8779 0.3760
vt 0.8916 0.3896
vt 0.6201 0.3760
vt 0.6064 0.3896
vt 0.4238 0.5791
vt 0.4238 0.9219
vt 0.3564 0.8564
vt 0.3564 0.6426
vt 0.1426 0.6426
vt 0.3291 0.6699
vt 0.1699 0.6699
vt 0.0811 0.9219
vt 0.0811 0.5791
vt 0.1426 0.8564
vt 0.4453 0.5576
vt 0.0596 0.5576
vt 0.4453 0.9434
vt 0.0596 0.9434
vt 0.1699 0.8291
vt 0.3291 0.8291
vt 0.2197 0.5420
vt 0.0605 0.5420
vt 0.0606 0.3828
vt 0.2197 0.3828
vt 0.6006 0.1006
vt 0.6006 0.3965
vt 0.5908 0.4062
vt 0.5908 0.0908
vt 0.8965 0.3965
vt 0.8965 0.1006
vt 0.9062 0.0908
vt 0.9062 0.4062
vt 0.6064 0.1064
vt 0.6201 0.1201
vt 0.8779 0.1201
vt 0.8916 0.1064
vt 0.8779 0.3760
vt 0.8916 0.3896
vt 0.6201 0.3760
vt 0.6064 0.3896
vt 0.4238 0.5791
vt 0.4238 0.9219
vt 0.3564 0.8564
vt 0.3564 0.6426
vt 0.1426 0.6426
vt 0.3291 0.6699
vt 0.1699 0.6699
vt 0.0811 0.9219
vt 0.0811 0.5791
vt 0.1426 0.8564
vt 0.4453 0.5576
vt 0.0596 0.5576
vt 0.4453 0.9434
vt 0.0596 0.9434
vt 0.1699 0.8291
vt 0.3291 0.8291
vt 0.6006 0.1006
vt 0.6006 0.3965
vt 0.5908 0.4062
vt 0.5908 0.0908
vt 0.8965 0.3965
vt 0.8965 0.1006
vt 0.9062 0.0908
vt 0.9062 0.4062
vt 0.6064 0.1064
vt 0.6201 0.1201
vt 0.8779 0.1201
vt 0.8916 0.1064
vt 0.8779 0.3760
vt 0.8916 0.3896
vt 0.6201 0.3760
vt 0.6064 0.3896
vt 0.4238 0.5791
vt 0.4238 0.9219
vt 0.3564 0.8564
vt 0.3564 0.6426
vt 0.1426 0.6426
vt 0.3291 0.6699
vt 0.1699 0.6699
vt 0.0811 0.9219
vt 0.0811 0.5791
vt 0.1426 0.8564
vt 0.4453 0.5576
vt 0.0596 0.5576
vt 0.4453 0.9434
vt 0.0596 0.9434
vt 0.1699 0.8291
vt 0.3291 0.8291
vt 0.6006 0.1006
vt 0.6006 0.3965
vt 0.5908 0.4062
vt 0.5908 0.0908
vt 0.8965 0.3965
vt 0.8965 0.1006
vt 0.9062 0.0908
vt 0.9062 0.4062
vt 0.6064 0.1064
vt 0.6201 0.1201
vt 0.8779 0.1201
vt 0.8916 0.1064
vt 0.8779 0.3760
vt 0.8916 0.3896
vt 0.6201 0.3760
vt 0.6064 0.3896
vt 0.4238 0.5791
vt 0.4238 0.9219
vt 0.3564 0.8564
vt 0.3564 0.6426
vt 0.1426 0.6426
vt 0.3291 0.6699
vt 0.1699 0.6699
vt 0.0811 0.9219
vt 0.0811 0.5791
vt 0.1426 0.8564
vt 0.4453 0.5576
vt 0.0596 0.5576
vt 0.4453 0.9434
vt 0.0596 0.9434
vt 0.1699 0.8291
vt 0.3291 0.8291
vt 0.6006 0.1006
vt 0.6006 0.3965
vt 0.5908 0.4062
vt 0.5908 0.0908
vt 0.8965 0.3965
vt 0.8965 0.1006
vt 0.9062 0.0908
vt 0.9062 0.4062
vn -0.0000 -0.7071 0.7071
vn 0.7071 -0.7071 0.0000
vn -0.0000 -0.7071 -0.7071
vn -0.7071 -0.7071 -0.0000
vn 0.0000 1.0000 0.0000
vn -0.6247 0.7809 -0.0000
vn 0.7071 0.7071 0.0000
vn -0.0000 0.7071 -0.7071
vn -0.7071 0.7071 -0.0000
vn 0.0000 0.7071 0.7071
vn 0.6247 0.7809 0.0000
vn 0.0000 0.7809 0.6247
vn 0.0000 0.7809 -0.6247
vn -0.0000 -1.0000 -0.0000
vn -0.6247 -0.7809 0.0000
vn 0.6247 -0.7809 0.0000
vn -0.0000 -0.7809 -0.6247
vn -0.0000 -0.7809 0.6247
vn 0.5774 0.5774 -0.5774
vn -0.5773 0.5774 -0.5774
vn -0.5774 0.5774 0.5774
vn 0.5774 -0.5774 0.5773
vn -0.5774 -0.5773 0.5774
vn -0.5774 -0.5774 -0.5773
vn 0.5773 -0.5773 -0.5774
vn 0.7071 0.0000 0.7071
vn -0.7071 0.0000 0.7071
vn -0.7071 -0.0000 -0.7071
vn 0.7071 0.0000 -0.7071
vn 0.5774 0.5773 0.5773
vn -0.5773 -0.5774 0.5774
vn 0.5773 -0.5774 0.5773
vn 0.5774 -0.5773 -0.5773
vn -0.5774 0.5773 -0.5774
vn 0.5774 0.5773 -0.5773
vn 0.5773 0.5773 0.5774
vn -0.5774 0.5773 0.5774
vn -0.5773 -0.5774 -0.5773
vn 0.4082 -0.8165 0.4082
vn 0.0000 0.0000 -1.0000
vn -0.6247 0.0000 -0.7809
vn 0.6247 0.0000 -0.7809
vn 0.0000 0.6247 -0.7809
vn 0.0000 -0.6247 -0.7809
vn 0.0000 0.0000 1.0000
vn -0.6247 0.0000 0.7809
vn 0.6247 -0.0000 0.7809
vn -0.0000 -0.6247 0.7809
vn -0.0000 0.6247 0.7809
vn 1.0000 -0.0000 0.0000
vn 0.7809 0.0000 -0.6247
vn 0.7809 0.0000 0.6247
vn 0.7809 0.6247 0.0000
vn 0.7809 -0.6247 -0.0000
vn -1.0000 -0.0000 0.0000
vn -0.7809 0.0000 -0.6247
vn -0.7809 -0.0000 0.6247
vn -0.7809 -0.6247 0.0000
vn -0.7809 0.6247 0.0000
usemtl None
s off
f 129/1/1 134/2/1 133/3/1 131/4/1
f 131/4/2 133/3/2 136/5/2 132/6/2
f 135/7/3 130/8/3 132/6/3 136/5/3
f 134/2/4 129/1/4 130/8/4 135/7/4
f 144/9/5 143/10/5 147/11/5 148/12/5
f 146/13/6 148/12/6 152/14/6 150/15/6
f 141/16/5 142/17/5 146/13/5 145/18/5
f 142/17/5 144/9/5 148/12/5 146/13/5
f 143/10/5 141/16/5 145/18/5 147/11/5
f 140/19/7 144/9/7 142/17/7 139/20/7
f 138/21/8 143/10/8 144/9/8 140/19/8
f 137/22/9 141/16/9 143/10/9 138/21/9
f 139/20/10 142/17/10 141/16/10 137/22/10
f 147/11/11 145/18/11 149/23/11 151/24/11
f 148/12/12 147/11/12 151/24/12 152/14/12
f 145/18/13 146/13/13 150/15/13 149/23/13
f 151/24/5 149/23/5 150/15/5 152/14/5
f 154/25/9 155/26/9 159/27/9 158/28/9
f 156/29/7 153/30/7 157/31/7 160/32/7
f 153/30/10 154/25/10 158/28/10 157/31/10
f 155/26/8 156/29/8 160/32/8 159/27/8
f 161/33/8 166/34/8 165/35/8 163/36/8
f 163/36/7 165/35/7 168/37/7 164/38/7
f 167/39/10 162/40/10 164/38/10 168/37/10
f 166/34/9 161/33/9 162/40/9 167/39/9
f 176/41/14 175/42/14 179/43/14 180/44/14
f 178/45/15 180/44/15 184/46/15 182/47/15
f 173/48/14 174/49/14 178/45/14 177/50/14
f 174/49/14 176/41/14 180/44/14 178/45/14
f 175/42/14 173/48/14 177/50/14 179/43/14
f 172/51/2 176/41/2 174/49/2 171/52/2
f 170/53/1 175/42/1 176/41/1 172/51/1
f 169/54/4 173/48/4 175/42/4 170/53/4
f 171/52/3 174/49/3 173/48/3 169/54/3
f 179/43/16 177/50/16 181/55/16 183/56/16
f 180/44/17 179/43/17 183/56/17 184/46/17
f 177/50/18 178/45/18 182/47/18 181/55/18
f 183/56/14 181/55/14 182/47/14 184/46/14
f 186/57/4 187/58/4 191/59/4 190/60/4
f 188/61/2 185/62/2 189/63/2 192/64/2
f 185/62/3 186/57/3 190/60/3 189/63/3
f 187/58/1 188/61/1 192/64/1 191/59/1
f 203/65/19 196/66/19 208/67/19
f 207/68/20 195/69/20 200/70/20
f 206/71/21 197/72/21 214/73/21
f 216/74/22 210/75/22 201/76/22
f 209/77/23 217/78/23 198/79/23
f 199/80/24 194/81/24 212/82/24
f 204/83/25 211/84/25 213/85/25
f 200/70/9 197/72/9 206/71/9 207/68/9
f 196/66/8 195/69/8 207/68/8 208/67/8
f 203/65/7 208/67/7 205/86/7 202/87/7
f 206/71/10 214/73/10 215/88/10 205/86/10
f 201/76/2 210/75/2 211/84/2 204/83/2
f 210/75/1 216/74/1 217/78/1 209/77/1
f 199/80/4 212/82/4 209/77/4 198/79/4
f 211/84/3 212/82/3 194/81/3 213/85/3
f 202/87/26 215/88/26 216/74/26 201/76/26
f 198/79/27 217/78/27 214/73/27 197/72/27
f 199/80/28 200/70/28 195/69/28 194/81/28
f 204/83/29 213/85/29 196/66/29 203/65/29
f 215/88/30 202/87/30 205/86/30
f 227/89/31 232/90/31 220/91/31
f 231/92/32 224/93/32 219/94/32
f 230/95/33 238/96/33 221/97/33
f 240/98/34 225/99/34 234/100/34
f 233/101/35 222/102/35 241/103/35
f 223/104/36 236/105/36 218/106/36
f 228/107/37 237/108/37 235/109/37
f 224/93/2 231/92/2 230/95/2 221/97/2
f 220/91/1 232/90/1 231/92/1 219/94/1
f 227/89/4 226/110/4 229/111/4 232/90/4
f 230/95/3 229/111/3 239/112/3 238/96/3
f 225/99/9 228/107/9 235/109/9 234/100/9
f 234/100/8 233/101/8 241/103/8 240/98/8
f 223/104/7 222/102/7 233/101/7 236/105/7
f 235/109/10 237/108/10 218/106/10 236/105/10
f 226/110/28 225/99/28 240/98/28 239/112/28
f 222/102/29 221/97/29 238/96/29 241/103/29
f 223/104/26 218/106/26 219/94/26 224/93/26
f 228/107/27 227/89/27 220/91/27 237/108/27
f 239/112/38 229/111/38 226/110/38
f 239/112/39 226/110/39 202/87/39 215/88/39
f 214/73/1 238/96/1 239/112/1 215/88/1
f 200/70/4 224/93/4 221/97/4 197/72/4
f 196/66/3 220/91/3 219/94/3 195/69/3
f 202/87/2 226/110/2 227/89/2 203/65/2
f 208/67/9 232/90/9 229/111/9 205/86/9
f 213/85/28 237/108/28 220/91/28 196/66/28
f 213/85/8 194/81/8 218/106/8 237/108/8
f 194/81/29 195/69/29 219/94/29 218/106/29
f 199/80/27 223/104/27 224/93/27 200/70/27
f 198/79/9 222/102/9 223/104/9 199/80/9
f 197/72/28 221/97/28 222/102/28 198/79/28
f 217/78/26 241/103/26 238/96/26 214/73/26
f 216/74/10 240/98/10 241/103/10 217/78/10
f 204/83/7 228/107/7 225/99/7 201/76/7
f 203/65/26 227/89/26 228/107/26 204/83/26
f 226/110/29 202/87/29 201/76/29 225/99/29
f 240/98/27 216/74/27 215/88/27 239/112/27
f 205/86/8 229/111/8 230/95/8 206/71/8
f 207/68/7 206/71/7 230/95/7 231/92/7
f 208/67/10 207/68/10 231/92/10 232/90/10
f 209/77/3 233/101/3 234/100/3 210/75/3
f 212/82/2 236/105/2 233/101/2 209/77/2
f 211/84/1 235/109/1 236/105/1 212/82/1
f 210/75/4 234/100/4 235/109/4 211/84/4
usemtl None_energy_extractor.png
f 65/113/10 70/114/10 69/115/10 67/116/10
f 67/116/26 69/115/26 72/117/26 68/118/26
f 71/119/1 66/120/1 68/118/1 72/117/1
f 70/114/27 65/113/27 66/120/27 71/119/27
f 80/121/40 79/122/40 83/123/40 84/124/40
f 82/125/41 84/124/41 88/126/41 86/127/41
f 77/128/40 78/129/40 82/125/40 81/130/40
f 78/129/40 80/121/40 84/124/40 82/125/40
f 79/122/40 77/128/40 81/130/40 83/123/40
f 76/131/29 80/121/29 78/129/29 75/132/29
f 74/133/3 79/122/3 80/121/3 76/131/3
f 73/134/28 77/128/28 79/122/28 74/133/28
f 75/132/8 78/129/8 77/128/8 73/134/8
f 83/123/42 81/130/42 85/135/42 87/136/42
f 84/124/43 83/123/43 87/136/43 88/126/43
f 81/130/44 82/125/44 86/127/44 85/135/44
f 87/137/40 85/138/40 86/139/40 88/140/40
f 90/141/28 91/142/28 95/143/28 94/144/28
f 92/145/29 89/146/29 93/147/29 96/148/29
f 89/146/8 90/141/8 94/144/8 93/147/8
f 91/142/3 92/145/3 96/148/3 95/143/3
f 97/149/3 102/150/3 101/151/3 99/152/3
f 99/152/29 101/151/29 104/153/29 100/154/29
f 103/155/8 98/156/8 100/154/8 104/153/8
f 102/150/28 97/149/28 98/156/28 103/155/28
f 112/157/45 111/158/45 115/159/45 116/160/45
f 114/161/46 116/160/46 120/162/46 118/163/46
f 109/164/45 110/165/45 114/161/45 113/166/45
f 110/165/45 112/157/45 116/160/45 114/161/45
f 111/158/45 109/164/45 113/166/45 115/159/45
f 108/167/26 112/157/26 110/165/26 107/168/26
f 106/169/10 111/158/10 112/157/10 108/167/10
f 105/170/27 109/164/27 111/158/27 106/169/27
f 107/168/1 110/165/1 109/164/1 105/170/1
f 115/159/47 113/166/47 117/171/47 119/172/47
f 116/160/48 115/159/48 119/172/48 120/162/48
f 113/166/49 114/161/49 118/163/49 117/171/49
f 119/172/45 117/171/45 118/163/45 120/162/45
f 122/173/27 123/174/27 127/175/27 126/176/27
f 124/177/26 121/178/26 125/179/26 128/180/26
f 121/178/1 122/173/1 126/176/1 125/179/1
f 123/174/10 124/177/10 128/180/10 127/175/10
usemtl None_NONE
f 1/181/9 6/182/9 5/183/9 3/184/9
f 3/184/27 5/183/27 8/185/27 4/186/27
f 7/187/4 2/188/4 4/186/4 8/185/4
f 6/182/28 1/181/28 2/188/28 7/187/28
f 16/189/50 15/190/50 19/191/50 20/192/50
f 18/193/51 20/192/51 24/194/51 22/195/51
f 13/196/50 14/197/50 18/193/50 17/198/50
f 14/197/50 16/189/50 20/192/50 18/193/50
f 15/190/50 13/196/50 17/198/50 19/191/50
f 12/199/26 16/189/26 14/197/26 11/200/26
f 10/201/2 15/190/2 16/189/2 12/199/2
f 9/202/29 13/196/29 15/190/29 10/201/29
f 11/200/7 14/197/7 13/196/7 9/202/7
f 19/191/52 17/198/52 21/203/52 23/204/52
f 20/192/53 19/191/53 23/204/53 24/194/53
f 17/198/54 18/193/54 22/195/54 21/203/54
f 23/204/50 21/203/50 22/195/50 24/194/50
f 26/205/29 27/206/29 31/207/29 30/208/29
f 28/209/26 25/210/26 29/211/26 32/212/26
f 25/210/7 26/205/7 30/208/7 29/211/7
f 27/206/2 28/209/2 32/212/2 31/207/2
f 33/213/2 38/214/2 37/215/2 35/216/2
f 35/216/26 37/215/26 40/217/26 36/218/26
f 39/219/7 34/220/7 36/218/7 40/217/7
f 38/214/29 33/213/29 34/220/29 39/219/29
f 48/221/55 47/222/55 51/223/55 52/224/55
f 50/225/56 52/224/56 56/226/56 54/227/56
f 45/228/55 46/229/55 50/225/55 49/230/55
f 46/229/55 48/221/55 52/224/55 50/225/55
f 47/222/55 45/228/55 49/230/55 51/223/55
f 44/231/27 48/221/27 46/229/27 43/232/27
f 42/233/9 47/222/9 48/221/9 44/231/9
f 41/234/28 45/228/28 47/222/28 42/233/28
f 43/232/4 46/229/4 45/228/4 41/234/4
f 51/223/57 49/230/57 53/235/57 55/236/57
f 52/224/58 51/223/58 55/236/58 56/226/58
f 49/230/59 50/225/59 54/227/59 53/235/59
f 55/236/55 53/235/55 54/227/55 56/226/55
f 58/237/28 59/238/28 63/239/28 62/240/28
f 60/241/27 57/242/27 61/243/27 64/244/27
f 57/242/4 58/237/4 62/240/4 61/243/4
f 59/238/9 60/241/9 64/244/9 63/239/9
