# Blender v2.78 (sub 0) OBJ File: 'hyper_1.blend'
# www.blender.org
mtllib hyper_energy_receiver.mtl
o Cube
v 0.000000 0.500000 1.000000
v 0.000000 0.500000 0.000000
v 0.500000 0.000000 0.000000
v 0.500000 1.000000 0.000000
v 1.000000 0.500000 0.000000
v 1.000000 0.500000 1.000000
v 0.500000 0.000000 1.000000
v 0.500000 1.000000 1.000000
v 0.000000 0.000000 0.750000
v 0.000000 0.750000 1.000000
v 0.000000 1.000000 0.250000
v 0.000000 0.250000 0.000000
v 0.250000 0.000000 0.000000
v 0.750000 1.000000 0.000000
v 1.000000 0.250000 0.000000
v 1.000000 0.000000 0.250000
v 1.000000 1.000000 0.750000
v 1.000000 0.250000 1.000000
v 0.750000 0.000000 1.000000
v 0.250000 1.000000 1.000000
v 0.000000 0.000000 0.250000
v 0.000000 0.250000 1.000000
v 0.000000 1.000000 0.750000
v 0.000000 0.750000 0.000000
v 0.750000 0.000000 0.000000
v 0.250000 1.000000 0.000000
v 1.000000 0.750000 0.000000
v 1.000000 0.000000 0.750000
v 1.000000 1.000000 0.250000
v 1.000000 0.750000 1.000000
v 0.250000 0.000000 1.000000
v 0.750000 1.000000 1.000000
v 0.250000 0.500000 1.000000
v 0.750000 0.500000 1.000000
v 0.500000 0.250000 1.000000
v 0.500000 0.750000 1.000000
v 0.750000 0.500000 0.000000
v 0.250000 0.500000 0.000000
v 0.500000 0.250000 0.000000
v 0.500000 0.750000 0.000000
v 0.250000 0.750000 0.000000
v 0.250000 0.250000 0.000000
v 0.750000 0.250000 0.000000
v 0.750000 0.750000 1.000000
v 0.750000 0.250000 1.000000
v 0.250000 0.250000 1.000000
v 0.250000 0.750000 1.000000
v 0.750000 0.750000 0.000000
v 0.300000 0.500000 0.900000
v 0.700000 0.500000 0.900000
v 0.500000 0.300000 0.900000
v 0.500000 0.700000 0.900000
v 0.700000 0.500000 0.100000
v 0.300000 0.500000 0.100000
v 0.500000 0.300000 0.100000
v 0.500000 0.700000 0.100000
v 0.000000 1.000000 0.500000
v 0.000000 0.000000 0.500000
v 1.000000 0.000000 0.500000
v 1.000000 1.000000 0.500000
v 0.250000 1.000000 0.500000
v 0.750000 1.000000 0.500000
v 0.500000 1.000000 0.750000
v 0.500000 1.000000 0.250000
v 0.750000 0.000000 0.500000
v 0.250000 0.000000 0.500000
v 0.500000 0.000000 0.750000
v 0.500000 0.000000 0.250000
v 0.250000 0.000000 0.250000
v 0.250000 0.000000 0.750000
v 0.750000 0.000000 0.750000
v 0.750000 1.000000 0.250000
v 0.750000 1.000000 0.750000
v 0.250000 1.000000 0.750000
v 0.250000 1.000000 0.250000
v 0.750000 0.000000 0.250000
v 0.300000 0.900000 0.500000
v 0.700000 0.900000 0.500000
v 0.500000 0.900000 0.700000
v 0.500000 0.900000 0.300000
v 0.700000 0.100000 0.500000
v 0.300000 0.100000 0.500000
v 0.500000 0.100000 0.700000
v 0.500000 0.100000 0.300000
v 1.000000 0.500000 0.250000
v 1.000000 0.500000 0.750000
v 1.000000 0.750000 0.500000
v 1.000000 0.250000 0.500000
v 0.000000 0.500000 0.750000
v 0.000000 0.500000 0.250000
v 0.000000 0.750000 0.500000
v 0.000000 0.250000 0.500000
v 0.000000 0.250000 0.250000
v 0.000000 0.750000 0.250000
v 0.000000 0.750000 0.750000
v 1.000000 0.250000 0.750000
v 1.000000 0.750000 0.750000
v 1.000000 0.750000 0.250000
v 1.000000 0.250000 0.250000
v 0.000000 0.250000 0.750000
v 0.900000 0.500000 0.300000
v 0.900000 0.500000 0.700000
v 0.900000 0.700000 0.500000
v 0.900000 0.300000 0.500000
v 0.100000 0.500000 0.700000
v 0.100000 0.500000 0.300000
v 0.100000 0.700000 0.500000
v 0.100000 0.300000 0.500000
v 0.899309 0.899309 0.749309
v 0.749309 0.899309 0.899309
v 0.899309 0.749309 0.899309
v 0.899309 0.899309 0.250691
v 0.899309 0.749309 0.100691
v 0.749309 0.899309 0.100691
v 0.751888 0.073113 0.073113
v 0.926888 0.073113 0.248112
v 0.926888 0.248112 0.073113
v 0.250691 0.899309 0.100691
v 0.100691 0.749309 0.100691
v 0.100691 0.899309 0.250691
v 0.100691 0.749309 0.899309
v 0.100691 0.899309 0.749309
v 0.250691 0.899309 0.899309
v 0.248112 0.073113 0.926888
v 0.073113 0.248112 0.926888
v 0.073113 0.073113 0.751888
v 0.073113 0.073113 0.248112
v 0.248112 0.073113 0.073113
v 0.073113 0.248112 0.073113
v 0.926888 0.073113 0.751888
v 0.751888 0.073113 0.926888
v 0.926888 0.248112 0.926888
vt 0.4235 0.3308
vt 0.3429 0.4113
vt 0.3429 0.4113
vt 0.4235 0.3308
vt 0.4237 0.4121
vt 0.4237 0.4927
vt 0.3431 0.4927
vt 0.3431 0.4121
vt 0.5848 0.5732
vt 0.5848 0.6538
vt 0.5042 0.6538
vt 0.5042 0.5732
vt 0.5848 0.4121
vt 0.5848 0.4927
vt 0.6653 0.4927
vt 0.6653 0.4121
vt 0.4237 0.5732
vt 0.4237 0.6538
vt 0.5042 0.6538
vt 0.5042 0.5732
vt 0.3431 0.4927
vt 0.3431 0.5732
vt 0.4237 0.4927
vt 0.4237 0.3316
vt 0.4237 0.4121
vt 0.5042 0.4121
vt 0.5042 0.3316
vt 0.3431 0.4121
vt 0.5848 0.3316
vt 0.6653 0.5732
vt 0.6653 0.5732
vt 0.5848 0.6538
vt 0.6653 0.4927
vt 0.5848 0.4927
vt 0.5848 0.3316
vt 0.5848 0.4121
vt 0.5042 0.4121
vt 0.5042 0.3316
vt 0.6653 0.4121
vt 0.4237 0.3316
vt 0.4237 0.5732
vt 0.3431 0.5732
vt 0.4237 0.6538
vt 0.5848 0.5732
vt 0.6653 0.5732
vt 0.5848 0.6538
vt 0.3431 0.5732
vt 0.4237 0.6538
vt 0.3431 0.5732
vt 0.6653 0.5732
vt 0.6653 0.5732
vt 0.5848 0.6538
vt 0.5848 0.6538
vt 0.6653 0.5732
vt 0.6653 0.5732
vt 0.5848 0.6538
vt 0.3424 0.4110
vt 0.4229 0.3304
vt 0.4229 0.3304
vt 0.3424 0.4110
vt 0.4237 0.6538
vt 0.3431 0.5732
vt 0.3431 0.5732
vt 0.4237 0.6538
vt 0.6653 0.4121
vt 0.5848 0.3316
vt 0.5042 0.4282
vt 0.4398 0.4927
vt 0.5687 0.4927
vt 0.5042 0.5571
vt 0.5042 0.5571
vt 0.4398 0.4927
vt 0.5042 0.4282
vt 0.5687 0.4927
vt 0.4237 0.4121
vt 0.4237 0.4927
vt 0.3431 0.4927
vt 0.3431 0.4121
vt 0.5848 0.5732
vt 0.5042 0.5732
vt 0.5848 0.4121
vt 0.5848 0.4927
vt 0.6653 0.4927
vt 0.6653 0.4121
vt 0.4237 0.5732
vt 0.4237 0.6538
vt 0.5042 0.6538
vt 0.5042 0.5732
vt 0.3431 0.4927
vt 0.3431 0.5732
vt 0.4237 0.4927
vt 0.4237 0.4121
vt 0.5042 0.4121
vt 0.3431 0.4121
vt 0.6653 0.4927
vt 0.5848 0.4927
vt 0.5848 0.3316
vt 0.5848 0.4121
vt 0.5042 0.4121
vt 0.5042 0.3316
vt 0.6653 0.4121
vt 0.4237 0.3316
vt 0.4237 0.5732
vt 0.5848 0.5732
vt 0.6653 0.5732
vt 0.5848 0.6538
vt 0.5042 0.4282
vt 0.4398 0.4927
vt 0.5687 0.4927
vt 0.5042 0.5571
vt 0.5042 0.5571
vt 0.4398 0.4927
vt 0.5042 0.4282
vt 0.5687 0.4927
vt 0.4237 0.4121
vt 0.4237 0.4927
vt 0.3431 0.4927
vt 0.3431 0.4121
vt 0.5848 0.5732
vt 0.5042 0.6538
vt 0.5042 0.5732
vt 0.5848 0.4121
vt 0.5848 0.4927
vt 0.6653 0.4927
vt 0.6653 0.4121
vt 0.4237 0.5732
vt 0.5042 0.6538
vt 0.5042 0.5732
vt 0.4237 0.4927
vt 0.4237 0.3316
vt 0.4237 0.4121
vt 0.5042 0.4121
vt 0.5042 0.3316
vt 0.3431 0.4121
vt 0.5848 0.3316
vt 0.5848 0.4927
vt 0.5848 0.3316
vt 0.5848 0.4121
vt 0.5042 0.4121
vt 0.5042 0.3316
vt 0.6653 0.4121
vt 0.4237 0.3316
vt 0.4237 0.5732
vt 0.3431 0.5732
vt 0.4237 0.6538
vt 0.5848 0.5732
vt 0.6653 0.5732
vt 0.5848 0.6538
vt 0.5042 0.4282
vt 0.4398 0.4927
vt 0.5687 0.4927
vt 0.5042 0.5571
vt 0.5042 0.5571
vt 0.4398 0.4927
vt 0.5042 0.4282
vt 0.5687 0.4927
vt 0.2013 0.2819
vt 0.2819 0.2013
vt 0.2819 0.2819
vt 0.5848 0.3316
vt 0.6653 0.4121
vt 0.5848 0.3316
vt 0.6653 0.4121
vt 0.1920 0.2809
vt 0.1920 0.2004
vt 0.1114 0.2809
vt 0.6653 0.5732
vt 0.4230 0.3310
vt 0.3425 0.4115
vt 0.3425 0.4115
vt 0.4230 0.3310
vt 0.1116 0.1107
vt 0.1922 0.1913
vt 0.1922 0.1107
vt 0.4237 0.6538
vt 0.3431 0.5732
vt 0.5848 0.6538
vt 0.6653 0.5732
vt 0.1901 0.1033
vt 0.1096 0.0228
vt 0.1096 0.1033
vt 0.3420 0.4111
vt 0.4225 0.3306
vt 0.4225 0.3306
vt 0.3420 0.4111
vt 0.3431 0.5732
vt 0.2005 0.1043
vt 0.2005 0.0237
vt 0.2811 0.1043
vt 0.4237 0.6538
vt 0.3431 0.5732
vt 0.6653 0.4121
vt 0.5848 0.3316
vt 0.2845 0.2937
vt 0.2040 0.3743
vt 0.2040 0.2937
vt 0.5848 0.6538
vt 0.6653 0.5732
vt 0.4227 0.3306
vt 0.3422 0.4111
vt 0.3422 0.4111
vt 0.4227 0.3306
vt 0.1099 0.2932
vt 0.1099 0.3737
vt 0.1904 0.2932
vt 0.3424 0.4115
vt 0.4229 0.3310
vt 0.4229 0.3310
vt 0.3424 0.4115
vt 0.3431 0.5732
vt 0.4237 0.6538
vt 0.2817 0.1112
vt 0.2817 0.1918
vt 0.2012 0.1112
vt 0.5848 0.3316
vt 0.6653 0.4121
vt 0.6653 0.4121
vn -0.5760 -0.5800 0.5760
vn 0.0000 0.0000 1.0000
vn 0.0000 0.0000 -1.0000
vn 0.5760 0.5760 -0.5800
vn -0.5760 -0.5800 -0.5760
vn 0.5760 -0.5800 -0.5760
vn -0.5673 -0.5823 0.5823
vn -0.5823 0.5673 0.5823
vn 0.5673 -0.5823 -0.5823
vn 0.5823 -0.5823 0.5673
vn 0.6667 0.6667 0.3333
vn -0.6667 0.6667 0.3333
vn -0.6667 -0.6667 0.3333
vn 0.6667 -0.6667 0.3333
vn 0.6667 -0.6667 -0.3333
vn 0.6667 0.6667 -0.3333
vn -0.6667 -0.6667 -0.3333
vn -0.6667 0.6667 -0.3333
vn 0.0000 1.0000 0.0000
vn 0.0000 -1.0000 0.0000
vn 0.6667 0.3333 -0.6667
vn -0.6667 0.3333 -0.6667
vn -0.6667 0.3333 0.6667
vn 0.6667 0.3333 0.6667
vn 0.6667 -0.3333 0.6667
vn 0.6667 -0.3333 -0.6667
vn -0.6667 -0.3333 0.6667
vn -0.6667 -0.3333 -0.6667
vn 1.0000 0.0000 0.0000
vn -1.0000 0.0000 -0.0000
vn 0.3333 -0.6667 0.6667
vn 0.3333 -0.6667 -0.6667
vn 0.3333 0.6667 -0.6667
vn 0.3333 0.6667 0.6667
vn -0.3333 0.6667 0.6667
vn -0.3333 -0.6667 0.6667
vn -0.3333 0.6667 -0.6667
vn -0.3333 -0.6667 -0.6667
vn 0.5774 0.5774 0.5774
vn -0.5800 0.5760 0.5760
vn 0.5760 -0.5800 0.5760
vn 0.5773 0.5774 -0.5774
vn 0.5760 0.5760 0.5800
vn -0.5800 0.5760 -0.5760
vn 0.5774 -0.5774 -0.5774
vn -0.5673 -0.5823 -0.5823
vn 0.5823 0.5673 -0.5823
vn -0.5774 0.5774 -0.5774
vn 0.5800 0.5760 -0.5760
vn -0.5760 0.5760 0.5800
vn -0.5774 0.5773 0.5774
vn -0.5760 0.5760 -0.5800
vn 0.5800 0.5760 0.5760
vn -0.5774 -0.5774 0.5774
vn 0.5673 -0.5823 0.5823
vn -0.5823 -0.5823 -0.5673
vn -0.5774 -0.5774 -0.5774
vn -0.5823 -0.5823 0.5673
vn -0.5823 0.5673 -0.5823
vn 0.5774 -0.5774 0.5774
vn 0.5823 -0.5823 -0.5673
vn 0.5823 0.5673 0.5823
usemtl None
s off
f 20/1/1 23/2/1 122/3/1 123/4/1
f 46/5/2 33/6/2 1/7/2 22/8/2
f 44/9/2 32/10/2 8/11/2 36/12/2
f 43/13/3 37/14/3 5/15/3 15/16/3
f 41/17/3 26/18/3 4/19/3 40/20/3
f 2/21/3 24/22/3 41/17/3 38/23/3
f 13/24/3 42/25/3 39/26/3 3/27/3
f 12/28/3 2/21/3 38/23/3 42/25/3
f 3/27/3 39/26/3 43/13/3 25/29/3
f 32/10/4 30/30/4 111/31/4 110/32/4
f 6/33/2 30/30/2 44/9/2 34/34/2
f 19/35/2 45/36/2 35/37/2 7/38/2
f 18/39/2 6/33/2 34/34/2 45/36/2
f 7/38/2 35/37/2 46/5/2 31/40/2
f 35/37/2 45/36/2 34/34/2
f 33/6/2 47/41/2 10/42/2 1/7/2
f 36/12/2 8/11/2 20/43/2 47/41/2
f 37/14/3 48/44/3 27/45/3 5/15/3
f 40/20/3 4/19/3 14/46/3 48/44/3
f 11/47/5 26/18/5 118/48/5 120/49/5
f 14/46/6 29/50/6 112/51/6 114/52/6
f 28/53/7 18/54/7 132/55/7 130/56/7
f 9/57/8 31/58/8 124/59/8 126/60/8
f 21/61/9 12/62/9 129/63/9 127/64/9
f 25/29/10 15/16/10 117/65/10 115/66/10
f 48/44/3 14/46/3 27/45/3
f 30/30/2 32/10/2 44/9/2
f 10/42/2 47/41/2 20/43/2
f 24/22/3 26/18/3 41/17/3
f 15/16/3 25/29/3 43/13/3
f 12/28/3 42/25/3 13/24/3
f 22/8/2 31/40/2 46/5/2
f 18/39/2 45/36/2 19/35/2
f 36/12/2 34/34/2 44/9/2
f 47/41/2 33/6/2 36/12/2
f 46/5/2 35/37/2 33/6/2
f 42/25/3 38/23/3 39/26/3
f 43/13/3 39/26/3 37/14/3
f 40/20/3 38/23/3 41/17/3
f 48/44/3 37/14/3 40/20/3
f 33/6/11 35/37/11 51/67/11 49/68/11
f 35/37/12 34/34/12 50/69/12 51/67/12
f 34/34/13 36/12/13 52/70/13 50/69/13
f 36/12/14 33/6/14 49/68/14 52/70/14
f 38/23/15 40/20/15 56/71/15 54/72/15
f 39/26/16 38/23/16 54/72/16 55/73/16
f 40/20/17 37/14/17 53/74/17 56/71/17
f 37/14/18 39/26/18 55/73/18 53/74/18
f 55/73/3 54/72/3 56/71/3 53/74/3
f 51/67/2 50/69/2 52/70/2 49/68/2
f 74/75/19 61/76/19 57/77/19 23/78/19
f 72/79/19 14/46/19 4/19/19 64/80/19
f 71/81/20 65/82/20 59/83/20 28/84/20
f 69/85/20 13/86/20 3/87/20 68/88/20
f 58/89/20 21/90/20 69/85/20 66/91/20
f 31/40/20 70/92/20 67/93/20 7/38/20
f 9/94/20 58/89/20 66/91/20 70/92/20
f 7/38/20 67/93/20 71/81/20 19/35/20
f 60/95/19 29/50/19 72/79/19 62/96/19
f 32/97/19 73/98/19 63/99/19 8/100/19
f 17/101/19 60/95/19 62/96/19 73/98/19
f 8/100/19 63/99/19 74/75/19 20/102/19
f 63/99/19 73/98/19 62/96/19
f 61/76/19 75/103/19 11/47/19 57/77/19
f 64/80/19 4/19/19 26/18/19 75/103/19
f 65/82/20 76/104/20 16/105/20 59/83/20
f 68/88/20 3/87/20 25/106/20 76/104/20
f 76/104/20 25/106/20 16/105/20
f 29/50/19 14/46/19 72/79/19
f 11/47/19 75/103/19 26/18/19
f 21/90/20 13/86/20 69/85/20
f 28/84/20 19/35/20 71/81/20
f 9/94/20 70/92/20 31/40/20
f 23/78/19 20/102/19 74/75/19
f 17/101/19 73/98/19 32/97/19
f 64/80/19 62/96/19 72/79/19
f 75/103/19 61/76/19 64/80/19
f 74/75/19 63/99/19 61/76/19
f 70/92/20 66/91/20 67/93/20
f 71/81/20 67/93/20 65/82/20
f 68/88/20 66/91/20 69/85/20
f 76/104/20 65/82/20 68/88/20
f 61/76/21 63/99/21 79/107/21 77/108/21
f 63/99/22 62/96/22 78/109/22 79/107/22
f 62/96/23 64/80/23 80/110/23 78/109/23
f 64/80/24 61/76/24 77/108/24 80/110/24
f 66/91/25 68/88/25 84/111/25 82/112/25
f 67/93/26 66/91/26 82/112/26 83/113/26
f 68/88/27 65/82/27 81/114/27 84/111/27
f 65/82/28 67/93/28 83/113/28 81/114/28
f 83/113/20 82/112/20 84/111/20 81/114/20
f 79/107/19 78/109/19 80/110/19 77/108/19
f 98/115/29 85/116/29 5/117/29 27/118/29
f 96/119/29 28/53/29 59/120/29 88/121/29
f 95/122/30 89/123/30 1/124/30 10/125/30
f 93/126/30 21/61/30 58/127/30 92/128/30
f 2/21/30 12/62/30 93/126/30 90/129/30
f 11/130/30 94/131/30 91/132/30 57/133/30
f 24/134/30 2/21/30 90/129/30 94/131/30
f 57/133/30 91/132/30 95/122/30 23/135/30
f 6/33/29 18/54/29 96/119/29 86/136/29
f 17/137/29 97/138/29 87/139/29 60/140/29
f 30/141/29 6/33/29 86/136/29 97/138/29
f 60/140/29 87/139/29 98/115/29 29/142/29
f 87/139/29 97/138/29 86/136/29
f 85/116/29 99/143/29 15/144/29 5/117/29
f 88/121/29 59/120/29 16/145/29 99/143/29
f 89/123/30 100/146/30 22/147/30 1/124/30
f 92/128/30 58/127/30 9/148/30 100/146/30
f 100/146/30 9/148/30 22/147/30
f 18/54/29 28/53/29 96/119/29
f 15/144/29 99/143/29 16/145/29
f 12/62/30 21/61/30 93/126/30
f 10/125/30 23/135/30 95/122/30
f 24/134/30 94/131/30 11/130/30
f 27/118/29 29/142/29 98/115/29
f 30/141/29 97/138/29 17/137/29
f 88/121/29 86/136/29 96/119/29
f 99/143/29 85/116/29 88/121/29
f 98/115/29 87/139/29 85/116/29
f 94/131/30 90/129/30 91/132/30
f 95/122/30 91/132/30 89/123/30
f 92/128/30 90/129/30 93/126/30
f 100/146/30 89/123/30 92/128/30
f 85/116/31 87/139/31 103/149/31 101/150/31
f 87/139/32 86/136/32 102/151/32 103/149/32
f 86/136/33 88/121/33 104/152/33 102/151/33
f 88/121/34 85/116/34 101/150/34 104/152/34
f 90/129/35 92/128/35 108/153/35 106/154/35
f 91/132/36 90/129/36 106/154/36 107/155/36
f 92/128/37 89/123/37 105/156/37 108/153/37
f 89/123/38 91/132/38 107/155/38 105/156/38
f 107/155/30 106/154/30 108/153/30 105/156/30
f 103/149/29 102/151/29 104/152/29 101/150/29
f 110/157/39 111/158/39 109/159/39
f 30/141/40 17/137/40 109/160/40 111/161/40
f 17/101/41 32/97/41 110/162/41 109/163/41
f 112/164/42 113/165/42 114/166/42
f 27/45/43 14/46/43 114/52/43 113/167/43
f 29/168/44 27/169/44 113/170/44 112/171/44
f 115/172/45 117/173/45 116/174/45
f 15/144/46 16/145/46 116/175/46 117/176/46
f 16/105/47 25/106/47 115/177/47 116/178/47
f 118/179/48 119/180/48 120/181/48
f 24/182/49 11/183/49 120/184/49 119/185/49
f 26/18/50 24/22/50 119/186/50 118/48/50
f 122/187/51 121/188/51 123/189/51
f 10/42/52 20/43/52 123/190/52 121/191/52
f 23/135/53 10/125/53 121/192/53 122/193/53
f 124/194/54 125/195/54 126/196/54
f 22/147/55 9/148/55 126/197/55 125/198/55
f 31/199/56 22/200/56 125/201/56 124/202/56
f 127/203/57 129/204/57 128/205/57
f 12/206/58 13/207/58 128/208/58 129/209/58
f 13/86/59 21/90/59 127/210/59 128/211/59
f 130/212/60 132/213/60 131/214/60
f 18/39/61 19/35/61 131/215/61 132/216/61
f 19/35/62 28/84/62 130/217/62 131/215/62
