# Blender v2.78 (sub 0) OBJ File: 'hyper_block.blend'
# www.blender.org
mtllib hyper_item_receiver.mtl
o Cube
v 0.250000 1.000000 1.000000
v 0.000000 1.000000 0.750000
v 0.100691 0.899309 0.749309
v 0.250691 0.899309 0.899309
v 0.250000 0.250000 1.000000
v 0.250000 0.500000 1.000000
v 0.000000 0.500000 1.000000
v 0.000000 0.250000 1.000000
v 0.750000 0.750000 1.000000
v 0.750000 1.000000 1.000000
v 0.500000 1.000000 1.000000
v 0.500000 0.750000 1.000000
v 0.750000 0.250000 0.000000
v 0.750000 0.500000 0.000000
v 1.000000 0.500000 0.000000
v 1.000000 0.250000 0.000000
v 0.250000 0.750000 0.000000
v 0.250000 1.000000 0.000000
v 0.500000 1.000000 0.000000
v 0.500000 0.750000 0.000000
v 0.000000 0.500000 0.000000
v 0.000000 0.750000 0.000000
v 0.250000 0.500000 0.000000
v 0.250000 0.000000 0.000000
v 0.250000 0.250000 0.000000
v 0.500000 0.250000 0.000000
v 0.500000 0.000000 0.000000
v 0.000000 0.250000 0.000000
v 0.750000 0.000000 0.000000
v 1.000000 0.750000 1.000000
v 0.899309 0.749309 0.899309
v 0.749309 0.899309 0.899309
v 1.000000 0.500000 1.000000
v 0.750000 0.500000 1.000000
v 0.750000 -0.000000 1.000000
v 0.750000 0.250000 1.000000
v 0.500000 0.250000 1.000000
v 0.500000 -0.000000 1.000000
v 1.000000 0.250000 1.000000
v 0.250000 -0.000000 1.000000
v 0.250000 0.750000 1.000000
v 0.000000 0.750000 1.000000
v 0.750000 0.750000 0.000000
v 1.000000 0.750000 0.000000
v 0.750000 1.000000 0.000000
v 0.000000 1.000000 0.250000
v 0.250691 0.899309 0.100691
v 0.100691 0.899309 0.250691
v 1.000000 1.000000 0.250000
v 0.899309 0.899309 0.250691
v 0.749309 0.899309 0.100691
v 1.000000 -0.000000 0.750000
v 0.926888 0.248112 0.926888
v 0.926888 0.073113 0.751888
v 0.000000 -0.000000 0.750000
v 0.248112 0.073113 0.926888
v 0.073113 0.073113 0.751888
v 0.000000 -0.000000 0.250000
v 0.073113 0.248112 0.073113
v 0.073113 0.073113 0.248112
v 0.926888 0.248112 0.073113
v 0.751888 0.073113 0.073113
v 0.500000 0.300000 0.900000
v 0.300000 0.500000 0.900000
v 0.700000 0.500000 0.900000
v 0.500000 0.700000 0.900000
v 0.500000 0.700000 0.100000
v 0.300000 0.500000 0.100000
v 0.500000 0.300000 0.100000
v 0.700000 0.500000 0.100000
v 0.250000 1.000000 0.750000
v 0.250000 1.000000 0.500000
v 0.000000 1.000000 0.500000
v 0.750000 1.000000 0.250000
v 0.500000 1.000000 0.250000
v 0.750000 -0.000000 0.750000
v 0.750000 -0.000000 0.500000
v 1.000000 -0.000000 0.500000
v 0.250000 -0.000000 0.250000
v 0.500000 -0.000000 0.250000
v 0.000000 -0.000000 0.500000
v 0.250000 -0.000000 0.500000
v 0.250000 -0.000000 0.750000
v 0.500000 -0.000000 0.750000
v 1.000000 1.000000 0.500000
v 0.750000 1.000000 0.500000
v 0.750000 1.000000 0.750000
v 0.500000 1.000000 0.750000
v 1.000000 1.000000 0.750000
v 0.250000 1.000000 0.250000
v 0.750000 -0.000000 0.250000
v 1.000000 -0.000000 0.250000
v 0.500000 0.900000 0.700000
v 0.300000 0.900000 0.500000
v 0.700000 0.900000 0.500000
v 0.500000 0.900000 0.300000
v 0.500000 0.100000 0.300000
v 0.300000 0.100000 0.500000
v 0.500000 0.100000 0.700000
v 0.700000 0.100000 0.500000
v 1.000000 0.750000 0.250000
v 1.000000 0.500000 0.250000
v 1.000000 0.250000 0.750000
v 1.000000 0.250000 0.500000
v 0.000000 0.750000 0.750000
v 0.000000 0.500000 0.750000
v 0.000000 0.250000 0.250000
v 0.000000 0.250000 0.500000
v 0.000000 0.500000 0.250000
v 0.000000 0.750000 0.250000
v 0.000000 0.750000 0.500000
v 1.000000 0.500000 0.750000
v 1.000000 0.750000 0.750000
v 1.000000 0.750000 0.500000
v 1.000000 0.250000 0.250000
v 0.000000 0.250000 0.750000
v 0.900000 0.700000 0.500000
v 0.900000 0.500000 0.300000
v 0.900000 0.500000 0.700000
v 0.900000 0.300000 0.500000
v 0.100000 0.300000 0.500000
v 0.100000 0.500000 0.300000
v 0.100000 0.700000 0.500000
v 0.100000 0.500000 0.700000
v 0.899309 0.899309 0.749309
v 0.899309 0.749309 0.100691
v 0.926888 0.073113 0.248112
v 0.100691 0.749309 0.100691
v 0.100691 0.749309 0.899309
v 0.073113 0.248112 0.926888
v 0.248112 0.073113 0.073113
v 0.751888 0.073113 0.926888
vt 0.1882 0.2228
vt 0.0858 0.3251
vt 0.0858 0.3251
vt 0.1882 0.2228
vt 0.2318 0.3602
vt 0.2586 0.5155
vt 0.0690 0.5152
vt 0.0690 0.3602
vt 0.5511 0.6794
vt 0.5511 0.8392
vt 0.3914 0.8392
vt 0.3938 0.6517
vt 0.5494 0.3602
vt 0.5299 0.5161
vt 0.7137 0.5162
vt 0.7137 0.3602
vt 0.2318 0.6748
vt 0.2318 0.8392
vt 0.3914 0.8392
vt 0.3938 0.6517
vt 0.0690 0.5152
vt 0.0690 0.6763
vt 0.2586 0.5155
vt 0.2326 0.1958
vt 0.2318 0.3602
vt 0.3928 0.3802
vt 0.3929 0.1957
vt 0.0690 0.3602
vt 0.5492 0.1956
vt 0.5947 0.8146
vt 0.6893 0.7201
vt 0.6893 0.7201
vt 0.5947 0.8146
vt 0.7137 0.5162
vt 0.7137 0.6782
vt 0.5299 0.5161
vt 0.5492 0.1956
vt 0.5494 0.3602
vt 0.3928 0.3802
vt 0.3929 0.1957
vt 0.7137 0.3602
vt 0.2326 0.1958
vt 0.2318 0.6748
vt 0.0690 0.6763
vt 0.2318 0.8392
vt 0.5511 0.6794
vt 0.7137 0.6782
vt 0.5511 0.8392
vt 0.0899 0.7185
vt 0.1884 0.8172
vt 0.1884 0.8172
vt 0.0899 0.7185
vt 0.6867 0.7244
vt 0.5951 0.8160
vt 0.5951 0.8160
vt 0.6867 0.7244
vt 0.5959 0.8204
vt 0.6910 0.7252
vt 0.6910 0.7252
vt 0.5959 0.8204
vt 0.0903 0.3169
vt 0.1777 0.2295
vt 0.1777 0.2295
vt 0.0903 0.3169
vt 0.1775 0.8116
vt 0.0984 0.7326
vt 0.0984 0.7326
vt 0.1775 0.8116
vt 0.6108 0.2331
vt 0.6809 0.3033
vt 0.6809 0.3033
vt 0.6108 0.2331
vt 0.3928 0.3897
vt 0.2673 0.5155
vt 0.5224 0.5163
vt 0.3938 0.6432
vt 0.3938 0.6432
vt 0.2673 0.5155
vt 0.3928 0.3897
vt 0.5224 0.5163
vt 0.2318 0.3602
vt 0.2586 0.5155
vt 0.0690 0.5152
vt 0.0690 0.3602
vt 0.5511 0.6794
vt 0.3938 0.6517
vt 0.5494 0.3602
vt 0.5299 0.5161
vt 0.7137 0.5162
vt 0.7137 0.3602
vt 0.2318 0.6748
vt 0.2318 0.8392
vt 0.3914 0.8392
vt 0.3938 0.6517
vt 0.0690 0.5152
vt 0.0690 0.6763
vt 0.2586 0.5155
vt 0.2318 0.3602
vt 0.3928 0.3802
vt 0.0690 0.3602
vt 0.7137 0.5162
vt 0.7137 0.6782
vt 0.5299 0.5161
vt 0.5492 0.1956
vt 0.5494 0.3602
vt 0.3928 0.3802
vt 0.3929 0.1957
vt 0.7137 0.3602
vt 0.2326 0.1958
vt 0.2318 0.6748
vt 0.0690 0.6763
vt 0.5511 0.6794
vt 0.7137 0.6782
vt 0.5511 0.8392
vt 0.3928 0.3897
vt 0.2673 0.5155
vt 0.5224 0.5163
vt 0.3938 0.6432
vt 0.3938 0.6432
vt 0.2673 0.5155
vt 0.3928 0.3897
vt 0.5224 0.5163
vt 0.2318 0.3602
vt 0.2586 0.5155
vt 0.0690 0.5152
vt 0.0690 0.3602
vt 0.5511 0.6794
vt 0.5511 0.8392
vt 0.3914 0.8392
vt 0.3938 0.6517
vt 0.5494 0.3602
vt 0.5299 0.5161
vt 0.7137 0.5162
vt 0.7137 0.3602
vt 0.2318 0.6748
vt 0.2318 0.8392
vt 0.3914 0.8392
vt 0.3938 0.6517
vt 0.0690 0.6763
vt 0.2586 0.5155
vt 0.2326 0.1958
vt 0.2318 0.3602
vt 0.3928 0.3802
vt 0.3929 0.1957
vt 0.0690 0.3602
vt 0.5492 0.1956
vt 0.7137 0.6782
vt 0.5299 0.5161
vt 0.5492 0.1956
vt 0.5494 0.3602
vt 0.3928 0.3802
vt 0.3929 0.1957
vt 0.7137 0.3602
vt 0.2326 0.1958
vt 0.2318 0.6748
vt 0.0690 0.6763
vt 0.2318 0.8392
vt 0.5511 0.6794
vt 0.7137 0.6782
vt 0.5511 0.8392
vt 0.3928 0.3897
vt 0.2673 0.5155
vt 0.5224 0.5163
vt 0.3938 0.6432
vt 0.3938 0.6432
vt 0.2673 0.5155
vt 0.3928 0.3897
vt 0.5224 0.5163
vt 0.7764 0.6916
vt 0.9376 0.5304
vt 0.9376 0.6916
vt 0.6861 0.3173
vt 0.5985 0.2299
vt 0.5985 0.2299
vt 0.6861 0.3173
vt 0.6906 0.3181
vt 0.5983 0.2258
vt 0.5983 0.2258
vt 0.6906 0.3181
vt 0.9376 0.6914
vt 0.9376 0.5304
vt 0.7764 0.6914
vt 0.6893 0.7228
vt 0.5844 0.8277
vt 0.5844 0.8277
vt 0.6893 0.7228
vt 0.1922 0.2186
vt 0.0873 0.3235
vt 0.0873 0.3235
vt 0.1922 0.2186
vt 0.7770 0.3524
vt 0.9379 0.5133
vt 0.9379 0.3524
vt 0.0909 0.7274
vt 0.1761 0.8124
vt 0.1761 0.8124
vt 0.0909 0.7274
vt 0.6837 0.7393
vt 0.6110 0.8120
vt 0.6110 0.8120
vt 0.6837 0.7393
vt 0.9387 0.3359
vt 0.7777 0.1749
vt 0.7777 0.3359
vt 0.0830 0.3233
vt 0.1896 0.2167
vt 0.1896 0.2167
vt 0.0830 0.3233
vt 0.1862 0.8235
vt 0.0868 0.7240
vt 0.0868 0.7240
vt 0.1862 0.8235
vt 0.7780 0.3361
vt 0.7780 0.1749
vt 0.9392 0.3361
vt 0.0868 0.7153
vt 0.1904 0.8192
vt 0.1904 0.8192
vt 0.0868 0.7153
vt 0.5939 0.2192
vt 0.6930 0.3183
vt 0.6930 0.3183
vt 0.5939 0.2192
vt 0.9430 0.7180
vt 0.7837 0.8775
vt 0.7837 0.7180
vt 0.6944 0.7151
vt 0.5925 0.8170
vt 0.5925 0.8170
vt 0.6944 0.7151
vt 0.1835 0.2218
vt 0.0895 0.3158
vt 0.0895 0.3158
vt 0.1835 0.2218
vt 0.7840 0.7180
vt 0.7840 0.8773
vt 0.9433 0.7180
vt 0.1020 0.3027
vt 0.1684 0.2363
vt 0.1684 0.2363
vt 0.1020 0.3027
vt 0.1924 0.8217
vt 0.0860 0.7151
vt 0.0860 0.7151
vt 0.1924 0.8217
vt 0.9381 0.3523
vt 0.9381 0.5132
vt 0.7774 0.3523
vt 0.6932 0.3128
vt 0.5995 0.2188
vt 0.5995 0.2188
vt 0.6932 0.3128
vt 0.6023 0.2178
vt 0.6944 0.3100
vt 0.6944 0.3100
vt 0.6023 0.2178
vn -0.5760 -0.5800 0.5760
vn 0.0000 -0.0000 1.0000
vn 0.0000 0.0000 -1.0000
vn 0.5760 0.5760 -0.5800
vn -0.5760 -0.5800 -0.5760
vn 0.5760 -0.5800 -0.5760
vn -0.5673 -0.5823 0.5823
vn -0.5823 0.5673 0.5823
vn 0.5673 -0.5823 -0.5823
vn 0.5823 -0.5823 0.5673
vn 0.6667 0.6667 0.3333
vn -0.6667 0.6667 0.3333
vn -0.6667 -0.6667 0.3333
vn 0.6667 -0.6667 0.3333
vn 0.6667 -0.6667 -0.3333
vn 0.6667 0.6667 -0.3333
vn -0.6667 -0.6667 -0.3333
vn -0.6667 0.6667 -0.3333
vn 0.0000 1.0000 0.0000
vn 0.0000 -1.0000 -0.0000
vn 0.6667 0.3333 -0.6667
vn -0.6667 0.3333 -0.6667
vn -0.6667 0.3333 0.6667
vn 0.6667 0.3333 0.6667
vn 0.6667 -0.3333 0.6667
vn 0.6667 -0.3333 -0.6667
vn -0.6667 -0.3333 0.6667
vn -0.6667 -0.3333 -0.6667
vn 1.0000 -0.0000 0.0000
vn -1.0000 0.0000 0.0000
vn 0.3333 -0.6667 0.6667
vn 0.3333 -0.6667 -0.6667
vn 0.3333 0.6667 -0.6667
vn 0.3333 0.6667 0.6667
vn -0.3333 0.6667 0.6667
vn -0.3333 -0.6667 0.6667
vn -0.3333 0.6667 -0.6667
vn -0.3333 -0.6667 -0.6667
vn 0.5774 0.5774 0.5774
vn -0.5800 0.5760 0.5760
vn 0.5760 -0.5800 0.5760
vn 0.5774 0.5774 -0.5774
vn 0.5760 0.5760 0.5800
vn -0.5800 0.5760 -0.5760
vn 0.5773 -0.5774 -0.5774
vn -0.5673 -0.5823 -0.5823
vn 0.5823 0.5673 -0.5823
vn -0.5774 0.5774 -0.5773
vn 0.5800 0.5760 -0.5760
vn -0.5760 0.5760 0.5800
vn -0.5773 0.5774 0.5774
vn -0.5760 0.5760 -0.5800
vn 0.5800 0.5760 0.5760
vn -0.5774 -0.5774 0.5773
vn 0.5673 -0.5823 0.5823
vn -0.5823 -0.5823 -0.5673
vn -0.5774 -0.5774 -0.5774
vn -0.5823 -0.5823 0.5673
vn -0.5823 0.5673 -0.5823
vn 0.5773 -0.5774 0.5773
vn 0.5823 -0.5823 -0.5673
vn 0.5823 0.5673 0.5823
usemtl None
s 1
f 1/1/1 2/2/1 3/3/1 4/4/1
f 5/5/2 6/6/2 7/7/2 8/8/2
f 9/9/2 10/10/2 11/11/2 12/12/2
f 13/13/3 14/14/3 15/15/3 16/16/3
f 17/17/3 18/18/3 19/19/3 20/20/3
f 21/21/3 22/22/3 17/17/3 23/23/3
f 24/24/3 25/25/3 26/26/3 27/27/3
f 28/28/3 21/21/3 23/23/3 25/25/3
f 27/27/3 26/26/3 13/13/3 29/29/3
f 10/30/4 30/31/4 31/32/4 32/33/4
f 33/34/2 30/35/2 9/9/2 34/36/2
f 35/37/2 36/38/2 37/39/2 38/40/2
f 39/41/2 33/34/2 34/36/2 36/38/2
f 38/40/2 37/39/2 5/5/2 40/42/2
f 37/39/2 36/38/2 34/36/2
f 6/6/2 41/43/2 42/44/2 7/7/2
f 12/12/2 11/11/2 1/45/2 41/43/2
f 14/14/3 43/46/3 44/47/3 15/15/3
f 20/20/3 19/19/3 45/48/3 43/46/3
f 46/49/5 18/50/5 47/51/5 48/52/5
f 45/53/6 49/54/6 50/55/6 51/56/6
f 52/57/7 39/58/7 53/59/7 54/60/7
f 55/61/8 40/62/8 56/63/8 57/64/8
f 58/65/9 28/66/9 59/67/9 60/68/9
f 29/69/10 16/70/10 61/71/10 62/72/10
f 43/46/3 45/48/3 44/47/3
f 30/35/2 10/10/2 9/9/2
f 42/44/2 41/43/2 1/45/2
f 22/22/3 18/18/3 17/17/3
f 16/16/3 29/29/3 13/13/3
f 28/28/3 25/25/3 24/24/3
f 8/8/2 40/42/2 5/5/2
f 39/41/2 36/38/2 35/37/2
f 12/12/2 34/36/2 9/9/2
f 41/43/2 6/6/2 12/12/2
f 5/5/2 37/39/2 6/6/2
f 25/25/3 23/23/3 26/26/3
f 13/13/3 26/26/3 14/14/3
f 20/20/3 23/23/3 17/17/3
f 43/46/3 14/14/3 20/20/3
f 6/6/11 37/39/11 63/73/11 64/74/11
f 37/39/12 34/36/12 65/75/12 63/73/12
f 34/36/13 12/12/13 66/76/13 65/75/13
f 12/12/14 6/6/14 64/74/14 66/76/14
f 23/23/15 20/20/15 67/77/15 68/78/15
f 26/26/16 23/23/16 68/78/16 69/79/16
f 20/20/17 14/14/17 70/80/17 67/77/17
f 14/14/18 26/26/18 69/79/18 70/80/18
f 69/79/3 68/78/3 67/77/3 70/80/3
f 63/73/2 65/75/2 66/76/2 64/74/2
f 71/81/19 72/82/19 73/83/19 2/84/19
f 74/85/19 45/48/19 19/19/19 75/86/19
f 76/87/20 77/88/20 78/89/20 52/90/20
f 79/91/20 24/92/20 27/93/20 80/94/20
f 81/95/20 58/96/20 79/91/20 82/97/20
f 40/42/20 83/98/20 84/99/20 38/40/20
f 55/100/20 81/95/20 82/97/20 83/98/20
f 38/40/20 84/99/20 76/87/20 35/37/20
f 85/101/19 49/102/19 74/85/19 86/103/19
f 10/104/19 87/105/19 88/106/19 11/107/19
f 89/108/19 85/101/19 86/103/19 87/105/19
f 11/107/19 88/106/19 71/81/19 1/109/19
f 88/106/19 87/105/19 86/103/19
f 72/82/19 90/110/19 46/111/19 73/83/19
f 75/86/19 19/19/19 18/18/19 90/110/19
f 77/88/20 91/112/20 92/113/20 78/89/20
f 80/94/20 27/93/20 29/114/20 91/112/20
f 91/112/20 29/114/20 92/113/20
f 49/102/19 45/48/19 74/85/19
f 46/111/19 90/110/19 18/18/19
f 58/96/20 24/92/20 79/91/20
f 52/90/20 35/37/20 76/87/20
f 55/100/20 83/98/20 40/42/20
f 2/84/19 1/109/19 71/81/19
f 89/108/19 87/105/19 10/104/19
f 75/86/19 86/103/19 74/85/19
f 90/110/19 72/82/19 75/86/19
f 71/81/19 88/106/19 72/82/19
f 83/98/20 82/97/20 84/99/20
f 76/87/20 84/99/20 77/88/20
f 80/94/20 82/97/20 79/91/20
f 91/112/20 77/88/20 80/94/20
f 72/82/21 88/106/21 93/115/21 94/116/21
f 88/106/22 86/103/22 95/117/22 93/115/22
f 86/103/23 75/86/23 96/118/23 95/117/23
f 75/86/24 72/82/24 94/116/24 96/118/24
f 82/97/25 80/94/25 97/119/25 98/120/25
f 84/99/26 82/97/26 98/120/26 99/121/26
f 80/94/27 77/88/27 100/122/27 97/119/27
f 77/88/28 84/99/28 99/121/28 100/122/28
f 99/121/20 98/120/20 97/119/20 100/122/20
f 93/115/19 95/117/19 96/118/19 94/116/19
f 101/123/29 102/124/29 15/125/29 44/126/29
f 103/127/29 52/128/29 78/129/29 104/130/29
f 105/131/30 106/132/30 7/133/30 42/134/30
f 107/135/30 58/136/30 81/137/30 108/138/30
f 21/21/30 28/139/30 107/135/30 109/140/30
f 46/141/30 110/142/30 111/143/30 73/144/30
f 22/145/30 21/21/30 109/140/30 110/142/30
f 73/144/30 111/143/30 105/131/30 2/146/30
f 33/34/29 39/147/29 103/127/29 112/148/29
f 89/149/29 113/150/29 114/151/29 85/152/29
f 30/153/29 33/34/29 112/148/29 113/150/29
f 85/152/29 114/151/29 101/123/29 49/154/29
f 114/151/29 113/150/29 112/148/29
f 102/124/29 115/155/29 16/156/29 15/125/29
f 104/130/29 78/129/29 92/157/29 115/155/29
f 106/132/30 116/158/30 8/159/30 7/133/30
f 108/138/30 81/137/30 55/160/30 116/158/30
f 116/158/30 55/160/30 8/159/30
f 39/147/29 52/128/29 103/127/29
f 16/156/29 115/155/29 92/157/29
f 28/139/30 58/136/30 107/135/30
f 42/134/30 2/146/30 105/131/30
f 22/145/30 110/142/30 46/141/30
f 44/126/29 49/154/29 101/123/29
f 30/153/29 113/150/29 89/149/29
f 104/130/29 112/148/29 103/127/29
f 115/155/29 102/124/29 104/130/29
f 101/123/29 114/151/29 102/124/29
f 110/142/30 109/140/30 111/143/30
f 105/131/30 111/143/30 106/132/30
f 108/138/30 109/140/30 107/135/30
f 116/158/30 106/132/30 108/138/30
f 102/124/31 114/151/31 117/161/31 118/162/31
f 114/151/32 112/148/32 119/163/32 117/161/32
f 112/148/33 104/130/33 120/164/33 119/163/33
f 104/130/34 102/124/34 118/162/34 120/164/34
f 109/140/35 108/138/35 121/165/35 122/166/35
f 111/143/36 109/140/36 122/166/36 123/167/36
f 108/138/37 106/132/37 124/168/37 121/165/37
f 106/132/38 111/143/38 123/167/38 124/168/38
f 123/167/30 122/166/30 121/165/30 124/168/30
f 117/161/29 119/163/29 120/164/29 118/162/29
f 32/169/39 31/170/39 125/171/39
f 30/172/40 89/173/40 125/174/40 31/175/40
f 89/176/41 10/177/41 32/178/41 125/179/41
f 50/180/42 126/181/42 51/182/42
f 44/183/43 45/184/43 51/185/43 126/186/43
f 49/187/44 44/188/44 126/189/44 50/190/44
f 62/191/45 61/192/45 127/193/45
f 16/194/46 92/195/46 127/196/46 61/197/46
f 92/198/47 29/199/47 62/200/47 127/201/47
f 47/202/48 128/203/48 48/204/48
f 22/205/49 46/206/49 48/207/49 128/208/49
f 18/209/50 22/210/50 128/211/50 47/212/50
f 3/213/51 129/214/51 4/215/51
f 42/216/52 1/217/52 4/218/52 129/219/52
f 2/220/53 42/221/53 129/222/53 3/223/53
f 56/224/54 130/225/54 57/226/54
f 8/227/55 55/228/55 57/229/55 130/230/55
f 40/231/56 8/232/56 130/233/56 56/234/56
f 60/235/57 59/236/57 131/237/57
f 28/238/58 24/239/58 131/240/58 59/241/58
f 24/242/59 58/243/59 60/244/59 131/245/59
f 54/246/60 53/247/60 132/248/60
f 39/249/61 35/250/61 132/251/61 53/252/61
f 35/253/62 52/254/62 54/255/62 132/256/62
