# Blender v2.78 (sub 0) OBJ File: 'hyper_1.blend'
# www.blender.org
mtllib hyper_energy_sender.mtl
o Cube
v 0.000000 0.500000 1.000000
v 0.000000 0.500000 0.000000
v 0.500000 0.000000 0.000000
v 0.500000 1.000000 0.000000
v 1.000000 0.500000 0.000000
v 1.000000 0.500000 1.000000
v 0.500000 0.000000 1.000000
v 0.500000 1.000000 1.000000
v 0.000000 0.000000 0.750000
v 0.000000 0.750000 1.000000
v 0.000000 1.000000 0.250000
v 0.000000 0.250000 0.000000
v 0.250000 0.000000 0.000000
v 0.750000 1.000000 0.000000
v 1.000000 0.250000 0.000000
v 1.000000 0.000000 0.250000
v 1.000000 1.000000 0.750000
v 1.000000 0.250000 1.000000
v 0.750000 0.000000 1.000000
v 0.250000 1.000000 1.000000
v 0.000000 0.000000 0.250000
v 0.000000 0.250000 1.000000
v 0.000000 1.000000 0.750000
v 0.000000 0.750000 0.000000
v 0.750000 0.000000 0.000000
v 0.250000 1.000000 0.000000
v 1.000000 0.750000 0.000000
v 1.000000 0.000000 0.750000
v 1.000000 1.000000 0.250000
v 1.000000 0.750000 1.000000
v 0.250000 0.000000 1.000000
v 0.750000 1.000000 1.000000
v 0.250000 0.500000 1.000000
v 0.750000 0.500000 1.000000
v 0.500000 0.250000 1.000000
v 0.500000 0.750000 1.000000
v 0.750000 0.500000 0.000000
v 0.250000 0.500000 0.000000
v 0.500000 0.250000 0.000000
v 0.500000 0.750000 0.000000
v 0.250000 0.750000 0.000000
v 0.250000 0.250000 0.000000
v 0.750000 0.250000 0.000000
v 0.750000 0.750000 1.000000
v 0.750000 0.250000 1.000000
v 0.250000 0.250000 1.000000
v 0.250000 0.750000 1.000000
v 0.750000 0.750000 0.000000
v 0.300000 0.500000 0.900000
v 0.700000 0.500000 0.900000
v 0.500000 0.300000 0.900000
v 0.500000 0.700000 0.900000
v 0.700000 0.500000 0.100000
v 0.300000 0.500000 0.100000
v 0.500000 0.300000 0.100000
v 0.500000 0.700000 0.100000
v 0.000000 1.000000 0.500000
v 0.000000 0.000000 0.500000
v 1.000000 0.000000 0.500000
v 1.000000 1.000000 0.500000
v 0.250000 1.000000 0.500000
v 0.750000 1.000000 0.500000
v 0.500000 1.000000 0.750000
v 0.500000 1.000000 0.250000
v 0.750000 0.000000 0.500000
v 0.250000 0.000000 0.500000
v 0.500000 0.000000 0.750000
v 0.500000 0.000000 0.250000
v 0.250000 0.000000 0.250000
v 0.250000 0.000000 0.750000
v 0.750000 0.000000 0.750000
v 0.750000 1.000000 0.250000
v 0.750000 1.000000 0.750000
v 0.250000 1.000000 0.750000
v 0.250000 1.000000 0.250000
v 0.750000 0.000000 0.250000
v 0.300000 0.900000 0.500000
v 0.700000 0.900000 0.500000
v 0.500000 0.900000 0.700000
v 0.500000 0.900000 0.300000
v 0.700000 0.100000 0.500000
v 0.300000 0.100000 0.500000
v 0.500000 0.100000 0.700000
v 0.500000 0.100000 0.300000
v 1.000000 0.500000 0.250000
v 1.000000 0.500000 0.750000
v 1.000000 0.750000 0.500000
v 1.000000 0.250000 0.500000
v 0.000000 0.500000 0.750000
v 0.000000 0.500000 0.250000
v 0.000000 0.750000 0.500000
v 0.000000 0.250000 0.500000
v 0.000000 0.250000 0.250000
v 0.000000 0.750000 0.250000
v 0.000000 0.750000 0.750000
v 1.000000 0.250000 0.750000
v 1.000000 0.750000 0.750000
v 1.000000 0.750000 0.250000
v 1.000000 0.250000 0.250000
v 0.000000 0.250000 0.750000
v 0.900000 0.500000 0.300000
v 0.900000 0.500000 0.700000
v 0.900000 0.700000 0.500000
v 0.900000 0.300000 0.500000
v 0.100000 0.500000 0.700000
v 0.100000 0.500000 0.300000
v 0.100000 0.700000 0.500000
v 0.100000 0.300000 0.500000
v 0.899309 0.899309 0.749309
v 0.749309 0.899309 0.899309
v 0.899309 0.749309 0.899309
v 0.899309 0.899309 0.250691
v 0.899309 0.749309 0.100691
v 0.749309 0.899309 0.100691
v 0.751888 0.073113 0.073113
v 0.926888 0.073113 0.248112
v 0.926888 0.248112 0.073113
v 0.250691 0.899309 0.100691
v 0.100691 0.749309 0.100691
v 0.100691 0.899309 0.250691
v 0.100691 0.749309 0.899309
v 0.100691 0.899309 0.749309
v 0.250691 0.899309 0.899309
v 0.248112 0.073113 0.926888
v 0.073113 0.248112 0.926888
v 0.073113 0.073113 0.751888
v 0.073113 0.073113 0.248112
v 0.248112 0.073113 0.073113
v 0.073113 0.248112 0.073113
v 0.926888 0.073113 0.751888
v 0.751888 0.073113 0.926888
v 0.926888 0.248112 0.926888
vt 0.4017 0.3428
vt 0.3500 0.3944
vt 0.3500 0.3944
vt 0.4017 0.3428
vt 0.4237 0.4121
vt 0.4395 0.4913
vt 0.3431 0.4927
vt 0.3431 0.4121
vt 0.5848 0.5732
vt 0.5848 0.6538
vt 0.5042 0.6538
vt 0.5048 0.5570
vt 0.5848 0.4121
vt 0.5707 0.4916
vt 0.6653 0.4927
vt 0.6653 0.4121
vt 0.4237 0.5732
vt 0.4237 0.6538
vt 0.5042 0.6538
vt 0.5048 0.5570
vt 0.3431 0.4927
vt 0.3431 0.5732
vt 0.4395 0.4913
vt 0.4237 0.3316
vt 0.4237 0.4121
vt 0.5044 0.4258
vt 0.5042 0.3316
vt 0.3431 0.4121
vt 0.5848 0.3316
vt 0.6653 0.5732
vt 0.6653 0.5732
vt 0.5848 0.6538
vt 0.6653 0.4927
vt 0.5707 0.4916
vt 0.5848 0.3316
vt 0.5848 0.4121
vt 0.5044 0.4258
vt 0.5042 0.3316
vt 0.6653 0.4121
vt 0.4237 0.3316
vt 0.4237 0.5732
vt 0.3431 0.5732
vt 0.4237 0.6538
vt 0.5848 0.5732
vt 0.6653 0.5732
vt 0.5848 0.6538
vt 0.3521 0.5929
vt 0.4018 0.6427
vt 0.4018 0.6427
vt 0.3521 0.5929
vt 0.6532 0.5959
vt 0.6070 0.6421
vt 0.6070 0.6421
vt 0.6532 0.5959
vt 0.6074 0.6443
vt 0.6554 0.5963
vt 0.6554 0.5963
vt 0.6074 0.6443
vt 0.3523 0.3903
vt 0.3964 0.3462
vt 0.3964 0.3462
vt 0.3523 0.3903
vt 0.3963 0.6399
vt 0.3564 0.6000
vt 0.3564 0.6000
vt 0.3963 0.6399
vt 0.6149 0.3480
vt 0.6503 0.3834
vt 0.6503 0.3834
vt 0.6149 0.3480
vt 0.5046 0.4413
vt 0.4546 0.4908
vt 0.5568 0.4918
vt 0.5058 0.5431
vt 0.5058 0.5431
vt 0.4546 0.4908
vt 0.5046 0.4413
vt 0.5568 0.4918
vt 0.4237 0.4121
vt 0.4395 0.4913
vt 0.3431 0.4927
vt 0.3431 0.4121
vt 0.5848 0.5732
vt 0.5048 0.5570
vt 0.5848 0.4121
vt 0.5707 0.4916
vt 0.6653 0.4927
vt 0.6653 0.4121
vt 0.4237 0.5732
vt 0.4237 0.6538
vt 0.5042 0.6538
vt 0.5048 0.5570
vt 0.3431 0.4927
vt 0.3431 0.5732
vt 0.4395 0.4913
vt 0.4237 0.4121
vt 0.5044 0.4258
vt 0.3431 0.4121
vt 0.6653 0.4927
vt 0.6653 0.5732
vt 0.5707 0.4916
vt 0.5848 0.3316
vt 0.5848 0.4121
vt 0.5044 0.4258
vt 0.5042 0.3316
vt 0.6653 0.4121
vt 0.4237 0.3316
vt 0.4237 0.5732
vt 0.3431 0.5732
vt 0.5848 0.5732
vt 0.6653 0.5732
vt 0.5848 0.6538
vt 0.5046 0.4413
vt 0.4546 0.4908
vt 0.5568 0.4918
vt 0.5058 0.5431
vt 0.5058 0.5431
vt 0.4546 0.4908
vt 0.5046 0.4413
vt 0.5568 0.4918
vt 0.4237 0.4121
vt 0.4395 0.4913
vt 0.3431 0.4927
vt 0.3431 0.4121
vt 0.5848 0.5732
vt 0.5848 0.6538
vt 0.5042 0.6538
vt 0.5048 0.5570
vt 0.5848 0.4121
vt 0.5707 0.4916
vt 0.6653 0.4927
vt 0.6653 0.4121
vt 0.4237 0.5732
vt 0.4237 0.6538
vt 0.5042 0.6538
vt 0.5048 0.5570
vt 0.3431 0.5732
vt 0.4395 0.4913
vt 0.4237 0.3316
vt 0.4237 0.4121
vt 0.5044 0.4258
vt 0.5042 0.3316
vt 0.3431 0.4121
vt 0.5848 0.3316
vt 0.6653 0.5732
vt 0.5707 0.4916
vt 0.5848 0.3316
vt 0.5848 0.4121
vt 0.5044 0.4258
vt 0.5042 0.3316
vt 0.6653 0.4121
vt 0.4237 0.3316
vt 0.4237 0.5732
vt 0.3431 0.5732
vt 0.4237 0.6538
vt 0.5848 0.5732
vt 0.6653 0.5732
vt 0.5848 0.6538
vt 0.5046 0.4413
vt 0.4546 0.4908
vt 0.5568 0.4918
vt 0.5058 0.5431
vt 0.5058 0.5431
vt 0.4546 0.4908
vt 0.5046 0.4413
vt 0.5568 0.4918
vt 0.2013 0.2819
vt 0.2819 0.2013
vt 0.2819 0.2819
vt 0.6657 0.4111
vt 0.5852 0.3306
vt 0.5852 0.3306
vt 0.6657 0.4111
vt 0.6552 0.3909
vt 0.6086 0.3443
vt 0.6086 0.3443
vt 0.6552 0.3909
vt 0.1920 0.2809
vt 0.1920 0.2004
vt 0.1114 0.2809
vt 0.6545 0.5951
vt 0.6016 0.6480
vt 0.6016 0.6480
vt 0.6545 0.5951
vt 0.4954 0.4360
vt 0.4425 0.4889
vt 0.4425 0.4889
vt 0.4954 0.4360
vt 0.1116 0.1107
vt 0.1922 0.1913
vt 0.1922 0.1107
vt 0.3526 0.5974
vt 0.3956 0.6403
vt 0.3956 0.6403
vt 0.3526 0.5974
vt 0.6517 0.6034
vt 0.6150 0.6401
vt 0.6150 0.6401
vt 0.6517 0.6034
vt 0.1901 0.1033
vt 0.1096 0.0228
vt 0.1096 0.1033
vt 0.3486 0.3935
vt 0.4024 0.3397
vt 0.4024 0.3397
vt 0.3486 0.3935
vt 0.4007 0.6459
vt 0.3505 0.5957
vt 0.3505 0.5957
vt 0.4007 0.6459
vt 0.2005 0.1043
vt 0.2005 0.0237
vt 0.2811 0.1043
vt 0.3505 0.5913
vt 0.4028 0.6437
vt 0.4028 0.6437
vt 0.3505 0.5913
vt 0.6064 0.3410
vt 0.6564 0.3910
vt 0.6564 0.3910
vt 0.6064 0.3410
vt 0.2845 0.2937
vt 0.2040 0.3743
vt 0.2040 0.2937
vt 0.6571 0.5912
vt 0.6057 0.6426
vt 0.6057 0.6426
vt 0.6571 0.5912
vt 0.3993 0.3423
vt 0.3519 0.3897
vt 0.3519 0.3897
vt 0.3993 0.3423
vt 0.1099 0.2932
vt 0.1099 0.3737
vt 0.1904 0.2932
vt 0.3582 0.3831
vt 0.3917 0.3496
vt 0.3917 0.3496
vt 0.3582 0.3831
vt 0.4038 0.6450
vt 0.3501 0.5912
vt 0.3501 0.5912
vt 0.4038 0.6450
vt 0.2817 0.1112
vt 0.2817 0.1918
vt 0.2012 0.1112
vt 0.6565 0.3882
vt 0.6092 0.3408
vt 0.6092 0.3408
vt 0.6565 0.3882
vt 0.6106 0.3403
vt 0.6571 0.3868
vt 0.6571 0.3868
vt 0.6106 0.3403
vn -0.5760 -0.5800 0.5760
vn 0.0000 0.0000 1.0000
vn 0.0000 0.0000 -1.0000
vn 0.5760 0.5760 -0.5800
vn -0.5760 -0.5800 -0.5760
vn 0.5760 -0.5800 -0.5760
vn -0.5673 -0.5823 0.5823
vn -0.5823 0.5673 0.5823
vn 0.5673 -0.5823 -0.5823
vn 0.5823 -0.5823 0.5673
vn 0.6667 0.6667 0.3333
vn -0.6667 0.6667 0.3333
vn -0.6667 -0.6667 0.3333
vn 0.6667 -0.6667 0.3333
vn 0.6667 -0.6667 -0.3333
vn 0.6667 0.6667 -0.3333
vn -0.6667 -0.6667 -0.3333
vn -0.6667 0.6667 -0.3333
vn 0.0000 1.0000 0.0000
vn 0.0000 -1.0000 0.0000
vn 0.6667 0.3333 -0.6667
vn -0.6667 0.3333 -0.6667
vn -0.6667 0.3333 0.6667
vn 0.6667 0.3333 0.6667
vn 0.6667 -0.3333 0.6667
vn 0.6667 -0.3333 -0.6667
vn -0.6667 -0.3333 0.6667
vn -0.6667 -0.3333 -0.6667
vn 1.0000 0.0000 0.0000
vn -1.0000 0.0000 -0.0000
vn 0.3333 -0.6667 0.6667
vn 0.3333 -0.6667 -0.6667
vn 0.3333 0.6667 -0.6667
vn 0.3333 0.6667 0.6667
vn -0.3333 0.6667 0.6667
vn -0.3333 -0.6667 0.6667
vn -0.3333 0.6667 -0.6667
vn -0.3333 -0.6667 -0.6667
vn 0.5774 0.5774 0.5774
vn -0.5800 0.5760 0.5760
vn 0.5760 -0.5800 0.5760
vn 0.5773 0.5774 -0.5774
vn 0.5760 0.5760 0.5800
vn -0.5800 0.5760 -0.5760
vn 0.5774 -0.5774 -0.5774
vn -0.5673 -0.5823 -0.5823
vn 0.5823 0.5673 -0.5823
vn -0.5774 0.5774 -0.5774
vn 0.5800 0.5760 -0.5760
vn -0.5760 0.5760 0.5800
vn -0.5774 0.5773 0.5774
vn -0.5760 0.5760 -0.5800
vn 0.5800 0.5760 0.5760
vn -0.5774 -0.5774 0.5774
vn 0.5673 -0.5823 0.5823
vn -0.5823 -0.5823 -0.5673
vn -0.5774 -0.5774 -0.5774
vn -0.5823 -0.5823 0.5673
vn -0.5823 0.5673 -0.5823
vn 0.5774 -0.5774 0.5774
vn 0.5823 -0.5823 -0.5673
vn 0.5823 0.5673 0.5823
usemtl None
s off
f 20/1/1 23/2/1 122/3/1 123/4/1
f 46/5/2 33/6/2 1/7/2 22/8/2
f 44/9/2 32/10/2 8/11/2 36/12/2
f 43/13/3 37/14/3 5/15/3 15/16/3
f 41/17/3 26/18/3 4/19/3 40/20/3
f 2/21/3 24/22/3 41/17/3 38/23/3
f 13/24/3 42/25/3 39/26/3 3/27/3
f 12/28/3 2/21/3 38/23/3 42/25/3
f 3/27/3 39/26/3 43/13/3 25/29/3
f 32/10/4 30/30/4 111/31/4 110/32/4
f 6/33/2 30/30/2 44/9/2 34/34/2
f 19/35/2 45/36/2 35/37/2 7/38/2
f 18/39/2 6/33/2 34/34/2 45/36/2
f 7/38/2 35/37/2 46/5/2 31/40/2
f 35/37/2 45/36/2 34/34/2
f 33/6/2 47/41/2 10/42/2 1/7/2
f 36/12/2 8/11/2 20/43/2 47/41/2
f 37/14/3 48/44/3 27/45/3 5/15/3
f 40/20/3 4/19/3 14/46/3 48/44/3
f 11/47/5 26/48/5 118/49/5 120/50/5
f 14/51/6 29/52/6 112/53/6 114/54/6
f 28/55/7 18/56/7 132/57/7 130/58/7
f 9/59/8 31/60/8 124/61/8 126/62/8
f 21/63/9 12/64/9 129/65/9 127/66/9
f 25/67/10 15/68/10 117/69/10 115/70/10
f 48/44/3 14/46/3 27/45/3
f 30/30/2 32/10/2 44/9/2
f 10/42/2 47/41/2 20/43/2
f 24/22/3 26/18/3 41/17/3
f 15/16/3 25/29/3 43/13/3
f 12/28/3 42/25/3 13/24/3
f 22/8/2 31/40/2 46/5/2
f 18/39/2 45/36/2 19/35/2
f 36/12/2 34/34/2 44/9/2
f 47/41/2 33/6/2 36/12/2
f 46/5/2 35/37/2 33/6/2
f 42/25/3 38/23/3 39/26/3
f 43/13/3 39/26/3 37/14/3
f 40/20/3 38/23/3 41/17/3
f 48/44/3 37/14/3 40/20/3
f 33/6/11 35/37/11 51/71/11 49/72/11
f 35/37/12 34/34/12 50/73/12 51/71/12
f 34/34/13 36/12/13 52/74/13 50/73/13
f 36/12/14 33/6/14 49/72/14 52/74/14
f 38/23/15 40/20/15 56/75/15 54/76/15
f 39/26/16 38/23/16 54/76/16 55/77/16
f 40/20/17 37/14/17 53/78/17 56/75/17
f 37/14/18 39/26/18 55/77/18 53/78/18
f 55/77/3 54/76/3 56/75/3 53/78/3
f 51/71/2 50/73/2 52/74/2 49/72/2
f 74/79/19 61/80/19 57/81/19 23/82/19
f 72/83/19 14/46/19 4/19/19 64/84/19
f 71/85/20 65/86/20 59/87/20 28/88/20
f 69/89/20 13/90/20 3/91/20 68/92/20
f 58/93/20 21/94/20 69/89/20 66/95/20
f 31/40/20 70/96/20 67/97/20 7/38/20
f 9/98/20 58/93/20 66/95/20 70/96/20
f 7/38/20 67/97/20 71/85/20 19/35/20
f 60/99/19 29/100/19 72/83/19 62/101/19
f 32/102/19 73/103/19 63/104/19 8/105/19
f 17/106/19 60/99/19 62/101/19 73/103/19
f 8/105/19 63/104/19 74/79/19 20/107/19
f 63/104/19 73/103/19 62/101/19
f 61/80/19 75/108/19 11/109/19 57/81/19
f 64/84/19 4/19/19 26/18/19 75/108/19
f 65/86/20 76/110/20 16/111/20 59/87/20
f 68/92/20 3/91/20 25/112/20 76/110/20
f 76/110/20 25/112/20 16/111/20
f 29/100/19 14/46/19 72/83/19
f 11/109/19 75/108/19 26/18/19
f 21/94/20 13/90/20 69/89/20
f 28/88/20 19/35/20 71/85/20
f 9/98/20 70/96/20 31/40/20
f 23/82/19 20/107/19 74/79/19
f 17/106/19 73/103/19 32/102/19
f 64/84/19 62/101/19 72/83/19
f 75/108/19 61/80/19 64/84/19
f 74/79/19 63/104/19 61/80/19
f 70/96/20 66/95/20 67/97/20
f 71/85/20 67/97/20 65/86/20
f 68/92/20 66/95/20 69/89/20
f 76/110/20 65/86/20 68/92/20
f 61/80/21 63/104/21 79/113/21 77/114/21
f 63/104/22 62/101/22 78/115/22 79/113/22
f 62/101/23 64/84/23 80/116/23 78/115/23
f 64/84/24 61/80/24 77/114/24 80/116/24
f 66/95/25 68/92/25 84/117/25 82/118/25
f 67/97/26 66/95/26 82/118/26 83/119/26
f 68/92/27 65/86/27 81/120/27 84/117/27
f 65/86/28 67/97/28 83/119/28 81/120/28
f 83/119/20 82/118/20 84/117/20 81/120/20
f 79/113/19 78/115/19 80/116/19 77/114/19
f 98/121/29 85/122/29 5/123/29 27/124/29
f 96/125/29 28/126/29 59/127/29 88/128/29
f 95/129/30 89/130/30 1/131/30 10/132/30
f 93/133/30 21/134/30 58/135/30 92/136/30
f 2/21/30 12/137/30 93/133/30 90/138/30
f 11/139/30 94/140/30 91/141/30 57/142/30
f 24/143/30 2/21/30 90/138/30 94/140/30
f 57/142/30 91/141/30 95/129/30 23/144/30
f 6/33/29 18/145/29 96/125/29 86/146/29
f 17/147/29 97/148/29 87/149/29 60/150/29
f 30/151/29 6/33/29 86/146/29 97/148/29
f 60/150/29 87/149/29 98/121/29 29/152/29
f 87/149/29 97/148/29 86/146/29
f 85/122/29 99/153/29 15/154/29 5/123/29
f 88/128/29 59/127/29 16/155/29 99/153/29
f 89/130/30 100/156/30 22/157/30 1/131/30
f 92/136/30 58/135/30 9/158/30 100/156/30
f 100/156/30 9/158/30 22/157/30
f 18/145/29 28/126/29 96/125/29
f 15/154/29 99/153/29 16/155/29
f 12/137/30 21/134/30 93/133/30
f 10/132/30 23/144/30 95/129/30
f 24/143/30 94/140/30 11/139/30
f 27/124/29 29/152/29 98/121/29
f 30/151/29 97/148/29 17/147/29
f 88/128/29 86/146/29 96/125/29
f 99/153/29 85/122/29 88/128/29
f 98/121/29 87/149/29 85/122/29
f 94/140/30 90/138/30 91/141/30
f 95/129/30 91/141/30 89/130/30
f 92/136/30 90/138/30 93/133/30
f 100/156/30 89/130/30 92/136/30
f 85/122/31 87/149/31 103/159/31 101/160/31
f 87/149/32 86/146/32 102/161/32 103/159/32
f 86/146/33 88/128/33 104/162/33 102/161/33
f 88/128/34 85/122/34 101/160/34 104/162/34
f 90/138/35 92/136/35 108/163/35 106/164/35
f 91/141/36 90/138/36 106/164/36 107/165/36
f 92/136/37 89/130/37 105/166/37 108/163/37
f 89/130/38 91/141/38 107/165/38 105/166/38
f 107/165/30 106/164/30 108/163/30 105/166/30
f 103/159/29 102/161/29 104/162/29 101/160/29
f 110/167/39 111/168/39 109/169/39
f 30/170/40 17/171/40 109/172/40 111/173/40
f 17/174/41 32/175/41 110/176/41 109/177/41
f 112/178/42 113/179/42 114/180/42
f 27/181/43 14/182/43 114/183/43 113/184/43
f 29/185/44 27/186/44 113/187/44 112/188/44
f 115/189/45 117/190/45 116/191/45
f 15/192/46 16/193/46 116/194/46 117/195/46
f 16/196/47 25/197/47 115/198/47 116/199/47
f 118/200/48 119/201/48 120/202/48
f 24/203/49 11/204/49 120/205/49 119/206/49
f 26/207/50 24/208/50 119/209/50 118/210/50
f 122/211/51 121/212/51 123/213/51
f 10/214/52 20/215/52 123/216/52 121/217/52
f 23/218/53 10/219/53 121/220/53 122/221/53
f 124/222/54 125/223/54 126/224/54
f 22/225/55 9/226/55 126/227/55 125/228/55
f 31/229/56 22/230/56 125/231/56 124/232/56
f 127/233/57 129/234/57 128/235/57
f 12/236/58 13/237/58 128/238/58 129/239/58
f 13/240/59 21/241/59 127/242/59 128/243/59
f 130/244/60 132/245/60 131/246/60
f 18/247/61 19/248/61 131/249/61 132/250/61
f 19/251/62 28/252/62 130/253/62 131/254/62
