# Blender v2.78 (sub 0) OBJ File: 'infinite_barrel.blend'
# www.blender.org
mtllib infinite_capacitor.mtl
o Cube.002
v 0.950000 0.950000 1.000000
v 1.000000 -0.000000 1.000000
v 0.950000 0.050000 1.000000
v 0.950000 0.050000 0.950000
v 1.000000 1.000000 1.000000
v 0.050000 0.950000 1.000000
v 0.000000 0.000000 1.000000
v 0.000000 1.000000 1.000000
v 0.050000 0.050000 1.000000
v 0.050000 0.050000 0.950000
v 0.050000 0.950000 0.950000
v 0.950000 0.950000 1.000000
v 0.950000 0.950000 0.950000
v 0.900000 0.100000 0.950000
v 0.900000 0.900000 0.950000
v 0.100000 0.900000 0.950000
v 0.750000 0.750000 0.800000
v 0.250000 0.250000 0.800000
v 0.250000 0.750000 0.800000
v 0.750000 0.250000 0.800000
v 0.100000 0.100000 0.950000
v 0.950000 0.950000 0.000000
v 0.950000 0.050000 -0.000000
v 0.950000 0.950000 0.050000
v 1.000000 0.000000 -0.000000
v -0.000000 1.000000 0.000000
v 0.050000 0.950000 -0.000000
v 0.050000 0.050000 -0.000000
v 0.050000 0.950000 0.050000
v 0.050000 0.050000 0.050000
v 0.000000 0.000000 -0.000000
v 0.950000 0.050000 0.050000
v 1.000000 1.000000 -0.000000
v 0.900000 0.900000 0.050000
v 0.900000 0.100000 0.050000
v 0.100000 0.100000 0.050000
v 0.750000 0.250000 0.200000
v 0.250000 0.750000 0.200000
v 0.250000 0.250000 0.200000
v 0.750000 0.750000 0.200000
v 0.100000 0.900000 0.050000
v 0.950000 1.000000 0.950000
v 0.950000 1.000000 0.050000
v 0.050000 1.000000 0.050000
v 0.050000 1.000000 0.950000
v 0.900000 0.950000 0.900000
v 0.900000 0.950000 0.100000
v 0.100000 0.950000 0.100000
v 0.750000 0.800000 0.250000
v 0.250000 0.800000 0.750000
v 0.250000 0.800000 0.250000
v 0.750000 0.800000 0.750000
v 0.100000 0.950000 0.900000
v 0.050000 0.000000 0.050000
v 0.050000 0.000000 0.950000
v 0.950000 0.000000 0.950000
v 0.950000 0.000000 0.050000
v 0.900000 0.050000 0.100000
v 0.900000 0.050000 0.900000
v 0.100000 0.050000 0.900000
v 0.750000 0.200000 0.750000
v 0.250000 0.200000 0.250000
v 0.250000 0.200000 0.750000
v 0.750000 0.200000 0.250000
v 0.100000 0.050000 0.100000
v 0.000000 0.050000 0.950000
v 0.000000 0.050000 0.050000
v -0.000000 0.950000 0.050000
v -0.000000 0.950000 0.950000
v 0.050000 0.100000 0.100000
v 0.050000 0.100000 0.900000
v 0.050000 0.900000 0.900000
v 0.200000 0.250000 0.750000
v 0.200000 0.750000 0.250000
v 0.200000 0.750000 0.750000
v 0.200000 0.250000 0.250000
v 0.050000 0.900000 0.100000
v 1.000062 0.050000 0.049875
v 1.000062 0.950000 0.049875
v 1.000062 0.050000 0.049875
v 1.000000 0.050000 0.950000
v 1.000000 0.950000 0.950000
v 1.000062 0.950000 0.049875
v 1.000062 0.050000 0.049875
v 0.950063 0.100000 0.099875
v 0.950063 0.900000 0.099875
v 0.950000 0.900000 0.900000
v 0.800063 0.750000 0.249875
v 0.800000 0.250000 0.750000
v 0.800063 0.750000 0.749875
v 0.800063 0.250000 0.249875
v 0.950000 0.100000 0.900000
vt 0.0625 0.9249
vt 0.0625 0.6999
vt 0.0750 0.6999
vt 0.0751 0.9249
vt 0.3126 0.9249
vt 0.3126 0.6999
vt 0.3251 0.6874
vt 0.3251 0.9374
vt 0.3114 0.6989
vt 0.3114 0.9239
vt 0.2989 0.9239
vt 0.2989 0.6989
vt 0.0750 0.6874
vt 0.3000 0.6874
vt 0.3000 0.6999
vt 0.0750 0.6999
vt 0.3000 0.6873
vt 0.0750 0.6873
vt 0.0625 0.6748
vt 0.3125 0.6748
vt 0.3000 0.9374
vt 0.0750 0.9374
vt 0.0750 0.9249
vt 0.3000 0.9249
vt 0.3125 0.9499
vt 0.0625 0.9499
vt 0.0753 0.9238
vt 0.0754 0.7004
vt 0.0879 0.7129
vt 0.0878 0.9113
vt 0.2862 0.9112
vt 0.2862 0.7128
vt 0.2987 0.7003
vt 0.2987 0.9237
vt 0.2875 0.9124
vt 0.0875 0.9124
vt 0.1250 0.8749
vt 0.2500 0.8749
vt 0.0875 0.7124
vt 0.1250 0.7499
vt 0.2875 0.7124
vt 0.2500 0.7499
vt 0.2862 0.7129
vt 0.0878 0.7129
vt 0.0753 0.7004
vt 0.2987 0.7004
vt 0.1250 0.8749
vt 0.1250 0.7499
vt 0.2500 0.7499
vt 0.2500 0.8749
vt 0.0500 0.9374
vt 0.0500 0.6874
vt 0.3000 0.6999
vt 0.0750 0.6873
vt 0.0500 0.9374
vt 0.0500 0.6874
vt 0.0625 0.6999
vt 0.0625 0.9249
vt 0.3114 0.6989
vt 0.3114 0.9239
vt 0.2989 0.9239
vt 0.2989 0.6989
vt 0.0753 0.9238
vt 0.0754 0.7004
vt 0.0879 0.7129
vt 0.0878 0.9113
vt 0.2862 0.9112
vt 0.2862 0.7128
vt 0.2987 0.7003
vt 0.2987 0.9237
vt 0.2875 0.9124
vt 0.0875 0.9124
vt 0.1250 0.8749
vt 0.2500 0.8749
vt 0.0875 0.7124
vt 0.1250 0.7499
vt 0.2875 0.7124
vt 0.2500 0.7499
vt 0.2862 0.7129
vt 0.0878 0.7129
vt 0.0753 0.7004
vt 0.2987 0.7004
vt 0.3000 0.9249
vt 0.0750 0.9249
vt 0.3126 0.9249
vt 0.3126 0.6999
vt 0.3251 0.6874
vt 0.3251 0.9374
vt 0.0750 0.6874
vt 0.3000 0.6874
vt 0.3000 0.6999
vt 0.0750 0.6999
vt 0.3000 0.6873
vt 0.0750 0.6873
vt 0.0625 0.6748
vt 0.3125 0.6748
vt 0.0750 0.6999
vt 0.0751 0.9249
vt 0.3000 0.9374
vt 0.0750 0.9374
vt 0.3125 0.9499
vt 0.0625 0.9499
vt 0.3114 0.6989
vt 0.3114 0.9239
vt 0.2989 0.9239
vt 0.2989 0.6989
vt 0.3125 0.9499
vt 0.0625 0.9499
vt 0.0750 0.9374
vt 0.3000 0.9374
vt 0.0753 0.9238
vt 0.0754 0.7004
vt 0.0879 0.7129
vt 0.0878 0.9113
vt 0.2862 0.9112
vt 0.2862 0.7128
vt 0.2987 0.7003
vt 0.2987 0.9237
vt 0.2875 0.9124
vt 0.0875 0.9124
vt 0.1250 0.8749
vt 0.2500 0.8749
vt 0.0875 0.7124
vt 0.1250 0.7499
vt 0.2875 0.7124
vt 0.2500 0.7499
vt 0.2862 0.7129
vt 0.0878 0.7129
vt 0.0753 0.7004
vt 0.2987 0.7004
vt 0.3000 0.9249
vt 0.0750 0.9249
vt 0.0500 0.9374
vt 0.0500 0.6874
vt 0.0625 0.6999
vt 0.0625 0.9249
vt 0.3126 0.9249
vt 0.3126 0.6999
vt 0.3251 0.6874
vt 0.3251 0.9374
vt 0.0750 0.6874
vt 0.3000 0.6874
vt 0.3000 0.6999
vt 0.0750 0.6999
vt 0.3000 0.6873
vt 0.0750 0.6873
vt 0.0625 0.6748
vt 0.3125 0.6748
vt 0.0750 0.6999
vt 0.0751 0.9249
vt 0.3114 0.6989
vt 0.3114 0.9239
vt 0.2989 0.9239
vt 0.2989 0.6989
vt 0.0750 0.6874
vt 0.3000 0.6874
vt 0.3000 0.6999
vt 0.0750 0.6999
vt 0.3000 0.6873
vt 0.0750 0.6873
vt 0.0625 0.6748
vt 0.3125 0.6748
vt 0.3000 0.9374
vt 0.0750 0.9374
vt 0.0750 0.9249
vt 0.3000 0.9249
vt 0.3125 0.9499
vt 0.0625 0.9499
vt 0.0753 0.9238
vt 0.0754 0.7004
vt 0.0879 0.7129
vt 0.0878 0.9113
vt 0.2862 0.9112
vt 0.2862 0.7128
vt 0.2987 0.7003
vt 0.2987 0.9237
vt 0.2875 0.9124
vt 0.0875 0.9124
vt 0.1250 0.8749
vt 0.2500 0.8749
vt 0.0875 0.7124
vt 0.1250 0.7499
vt 0.2875 0.7124
vt 0.2500 0.7499
vt 0.2862 0.7129
vt 0.0878 0.7129
vt 0.0753 0.7004
vt 0.2987 0.7004
vt 0.2500 0.8749
vt 0.1250 0.8749
vt 0.1250 0.7499
vt 0.2500 0.7499
vt 0.0500 0.9374
vt 0.0500 0.6874
vt 0.0625 0.6999
vt 0.0625 0.9249
vt 0.0750 0.6999
vt 0.0751 0.9249
vt 0.3126 0.9249
vt 0.3126 0.6999
vt 0.3251 0.6874
vt 0.3251 0.9374
vt 0.0625 0.9249
vt 0.0625 0.6999
vt 0.0750 0.6999
vt 0.0751 0.9249
vt 0.2989 0.9239
vt 0.2989 0.6989
vt 0.0753 0.9238
vt 0.0754 0.7004
vt 0.0879 0.7129
vt 0.0878 0.9113
vt 0.2862 0.9112
vt 0.2862 0.7128
vt 0.2875 0.9124
vt 0.0875 0.9124
vt 0.1250 0.8749
vt 0.2500 0.8749
vt 0.0875 0.7124
vt 0.1250 0.7499
vt 0.2875 0.7124
vt 0.2500 0.7499
vt 0.2862 0.7129
vt 0.0878 0.7129
vt 0.0753 0.7004
vt 0.0750 0.9249
vt 0.2500 0.8749
vt 0.1250 0.8749
vt 0.1250 0.7499
vt 0.2500 0.7499
vt 0.0500 0.9374
vt 0.0500 0.6874
vt 0.3126 0.9249
vt 0.3126 0.6999
vt 0.3000 0.6874
vt 0.3000 0.6999
vt 0.0750 0.6999
vt 0.3000 0.6873
vt 0.0750 0.6873
vt 0.0625 0.6748
vt 0.3000 0.9374
vt 0.0750 0.9374
vt 0.0625 0.9499
vt 0.0625 0.6999
vt 0.0625 0.9249
vt 0.0625 0.9249
vt 0.0750 0.6874
vt 0.3000 0.6999
vt 0.0750 0.6999
vt 0.3000 0.6873
vt 0.0750 0.6873
vt 0.3125 0.6748
vt 0.3000 0.9374
vt 0.0750 0.9374
vt 0.3000 0.9249
vt 0.3125 0.9499
vt 0.0879 0.7129
vt 0.0878 0.9113
vt 0.2862 0.9112
vt 0.2862 0.7128
vt 0.2987 0.7003
vt 0.2987 0.9237
vt 0.2875 0.9124
vt 0.0875 0.9124
vt 0.1250 0.8749
vt 0.2500 0.8749
vt 0.0875 0.7124
vt 0.1250 0.7499
vt 0.2875 0.7124
vt 0.2500 0.7499
vt 0.2862 0.7129
vt 0.0878 0.7129
vt 0.2987 0.7004
vt 0.1250 0.8749
vt 0.1250 0.7499
vt 0.2500 0.7499
vt 0.2500 0.8749
vt 0.0625 0.9249
vt 0.3126 0.9249
vt 0.3126 0.6999
vt 0.3251 0.6874
vt 0.3251 0.9374
vt 0.3114 0.6989
vt 0.3114 0.9239
vt 0.2989 0.9239
vt 0.2989 0.6989
vt 0.3000 0.6999
vt 0.0750 0.6873
vt 0.0750 0.9374
vn -1.0000 0.0000 -0.0000
vn 0.0000 0.0000 1.0000
vn 1.0000 -0.0000 -0.0000
vn 0.0000 -1.0000 -0.0000
vn 0.0000 1.0000 0.0000
vn -0.0000 0.7071 0.7071
vn -0.7071 0.0000 0.7071
vn -0.0000 -0.7071 0.7071
vn 0.7071 -0.0000 0.7071
vn -0.0000 0.0000 -1.0000
vn -0.0000 -0.7071 -0.7071
vn -0.7071 0.0000 -0.7071
vn -0.0000 0.7071 -0.7071
vn 0.7071 0.0000 -0.7071
vn -0.7071 0.7071 0.0000
vn 0.7071 0.7071 0.0000
vn -0.7071 -0.7071 0.0000
vn 0.7071 -0.7071 0.0000
vn 1.0000 -0.0000 -0.0013
vn 0.0025 -0.0000 1.0000
vn 1.0000 0.0006 0.0000
vn 1.0000 -0.0006 0.0000
vn 0.7071 0.7071 0.0001
vn 0.7072 -0.7070 0.0000
vn 0.7073 -0.0001 -0.7069
vn 1.0000 -0.0001 0.0001
usemtl None
s off
f 3/1/1 1/2/1 13/3/1 4/4/1
f 9/5/2 6/6/2 8/7/2 7/8/2
f 10/9/3 11/10/3 6/11/3 9/12/3
f 11/13/4 13/14/4 12/15/4 6/16/4
f 6/17/2 12/18/2 5/19/2 8/20/2
f 9/21/5 3/22/5 4/23/5 10/24/5
f 7/25/2 2/26/2 3/22/2 9/21/2
f 4/27/2 13/28/2 15/29/2 14/30/2
f 21/31/2 16/32/2 11/33/2 10/34/2
f 21/35/6 14/36/6 20/37/6 18/38/6
f 14/36/7 15/39/7 17/40/7 20/37/7
f 15/39/8 16/41/8 19/42/8 17/40/8
f 16/41/9 21/35/9 18/38/9 19/42/9
f 16/43/2 15/44/2 13/45/2 11/46/2
f 10/24/2 4/23/2 14/36/2 21/35/2
f 19/47/2 18/48/2 20/49/2 17/50/2
f 2/51/2 5/52/2 1/2/2 3/1/2
f 11/13/4 13/14/4 1/53/4 6/16/4
f 6/17/2 1/54/2 5/19/2 8/20/2
f 33/55/10 25/56/10 23/57/10 22/58/10
f 29/59/3 30/60/3 28/61/3 27/62/3
f 24/63/10 32/64/10 35/65/10 34/66/10
f 41/67/10 36/68/10 30/69/10 29/70/10
f 41/71/11 34/72/11 40/73/11 38/74/11
f 34/72/12 35/75/12 37/76/12 40/73/12
f 35/75/13 36/77/13 39/78/13 37/76/13
f 36/77/14 41/71/14 38/74/14 39/78/14
f 36/79/10 35/80/10 32/81/10 30/82/10
f 29/83/10 24/84/10 34/72/10 41/71/10
f 39/78/10 38/74/10 40/73/10 37/76/10
f 27/85/10 28/86/10 31/87/10 26/88/10
f 30/89/5 32/90/5 23/91/5 28/92/5
f 28/93/10 23/94/10 25/95/10 31/96/10
f 22/58/1 23/57/1 32/97/1 24/98/1
f 27/99/4 22/100/4 24/84/4 29/83/4
f 26/101/10 33/102/10 22/100/10 27/99/10
f 11/103/3 29/104/3 44/105/3 45/106/3
f 8/107/5 5/108/5 42/109/5 45/110/5
f 13/111/5 24/112/5 47/113/5 46/114/5
f 53/115/5 48/116/5 29/117/5 11/118/5
f 53/119/13 46/120/13 52/121/13 50/122/13
f 46/120/15 47/123/15 49/124/15 52/121/15
f 47/123/6 48/125/6 51/126/6 49/124/6
f 48/125/16 53/119/16 50/122/16 51/126/16
f 48/127/5 47/128/5 24/129/5 29/130/5
f 11/131/5 13/132/5 46/120/5 53/119/5
f 51/126/5 50/122/5 52/121/5 49/124/5
f 5/133/5 33/134/5 43/135/5 42/136/5
f 45/137/5 44/138/5 26/139/5 8/140/5
f 29/141/2 24/142/2 43/143/2 44/144/2
f 44/145/5 43/146/5 33/147/5 26/148/5
f 42/136/1 43/135/1 24/149/1 13/150/1
f 45/110/10 42/109/10 13/132/10 11/131/10
f 30/151/3 10/152/3 55/153/3 54/154/3
f 10/155/10 4/156/10 56/157/10 55/158/10
f 55/159/4 56/160/4 2/161/4 7/162/4
f 54/163/2 57/164/2 32/165/2 30/166/2
f 31/167/4 25/168/4 57/164/4 54/163/4
f 32/169/4 4/170/4 59/171/4 58/172/4
f 65/173/4 60/174/4 10/175/4 30/176/4
f 65/177/8 58/178/8 64/179/8 62/180/8
f 58/178/17 59/181/17 61/182/17 64/179/17
f 59/181/11 60/183/11 63/184/11 61/182/11
f 60/183/18 65/177/18 62/180/18 63/184/18
f 60/185/4 59/186/4 4/187/4 10/188/4
f 30/166/4 32/165/4 58/178/4 65/177/4
f 63/189/4 62/190/4 64/191/4 61/192/4
f 25/193/4 2/194/4 56/195/4 57/196/4
f 57/196/1 56/195/1 4/197/1 32/198/1
f 54/199/4 55/200/4 7/201/4 31/202/4
f 67/203/5 66/204/5 10/205/5 30/206/5
f 29/59/4 11/10/4 69/207/4 68/208/4
f 30/209/1 10/210/1 71/211/1 70/212/1
f 77/213/1 72/214/1 11/33/1 29/70/1
f 77/215/7 70/216/7 76/217/7 74/218/7
f 70/216/15 71/219/15 73/220/15 76/217/15
f 71/219/12 72/221/12 75/222/12 73/220/12
f 72/221/17 77/215/17 74/218/17 75/222/17
f 72/223/1 71/224/1 10/225/1 11/46/1
f 29/83/1 30/226/1 70/216/1 77/215/1
f 75/227/1 74/228/1 76/229/1 73/230/1
f 31/231/1 7/232/1 66/204/1 67/203/1
f 68/233/1 69/234/1 8/7/1 26/88/1
f 11/13/10 10/235/10 66/236/10 69/237/10
f 69/238/1 66/239/1 7/240/1 8/20/1
f 68/241/2 67/242/2 30/226/2 29/83/2
f 26/101/1 31/243/1 67/242/1 68/241/1
f 25/193/19 33/134/19 79/244/19 78/245/19
f 80/246/20 79/244/20 24/149/20 32/198/20
f 13/247/4 24/142/4 83/248/4 82/249/4
f 82/250/21 83/251/21 33/147/21 5/252/21
f 81/253/5 84/254/5 32/165/5 4/255/5
f 2/256/22 25/168/22 84/254/22 81/253/22
f 32/169/19 24/112/19 86/257/19 85/258/19
f 92/259/3 87/260/3 13/261/3 4/262/3
f 92/263/23 85/264/23 91/265/23 89/266/23
f 85/264/9 86/267/9 88/268/9 91/265/9
f 86/267/24 87/269/24 90/270/24 88/268/24
f 87/269/25 92/263/25 89/266/25 90/270/25
f 87/271/21 86/272/21 24/129/21 13/273/21
f 4/255/22 32/165/22 85/264/22 92/263/22
f 90/274/26 89/275/26 91/276/26 88/277/26
f 25/193/19 33/134/19 79/244/19 84/278/19
f 84/278/20 79/244/20 24/149/20 32/198/20
f 78/245/20 79/244/20 24/149/20 32/198/20
f 81/279/3 82/280/3 5/281/3 2/282/3
f 4/283/10 13/284/10 82/285/10 81/286/10
f 13/247/4 24/142/4 79/287/4 82/249/4
f 82/250/21 79/288/21 33/147/21 5/252/21
f 81/253/5 78/289/5 32/165/5 4/255/5
f 2/256/22 25/168/22 78/289/22 81/253/22
