# Blender v2.78 (sub 0) OBJ File: 'Empty.blend'
# www.blender.org
mtllib infinite_tank.mtl
o Cube.002
v 0.950000 0.050000 1.000000
v 0.950000 0.950000 1.000000
v 0.950000 0.950000 0.950000
v 0.950000 0.050000 0.950000
v 0.050000 0.050000 1.000000
v 0.050000 0.950000 1.000000
v 0.000000 1.000000 1.000000
v 0.000000 -0.000000 1.000000
v 0.050000 0.050000 0.950000
v 0.050000 0.950000 0.950000
v 0.950000 0.950000 1.000000
v 1.000000 1.000000 1.000000
v 1.000000 -0.000000 1.000000
v 0.900000 0.900000 0.950000
v 0.900000 0.100000 0.950000
v 0.100000 0.100000 0.950000
v 0.100000 0.900000 0.950000
v 0.750000 0.250000 0.800000
v 0.250000 0.250000 0.800000
v 0.750000 0.750000 0.800000
v 0.250000 0.750000 0.800000
v 1.000000 1.000000 0.000000
v 1.000000 0.000000 0.000000
v 0.950000 0.050000 0.000000
v 0.950000 0.950000 0.000000
v 0.050000 0.950000 0.050000
v 0.050000 0.050000 0.050000
v 0.050000 0.050000 0.000000
v 0.050000 0.950000 0.000000
v 0.950000 0.950000 0.050000
v 0.950000 0.050000 0.050000
v 0.900000 0.100000 0.050000
v 0.900000 0.900000 0.050000
v 0.100000 0.900000 0.050000
v 0.100000 0.100000 0.050000
v 0.750000 0.750000 0.200000
v 0.250000 0.750000 0.200000
v 0.750000 0.250000 0.200000
v 0.250000 0.250000 0.200000
v 0.000000 0.000000 0.000000
v 0.000000 1.000000 0.000000
v 0.050000 1.000000 0.050000
v 0.050000 1.000000 0.950000
v 0.950000 1.000000 0.950000
v 0.900000 0.950000 0.100000
v 0.900000 0.950000 0.900000
v 0.100000 0.950000 0.900000
v 0.100000 0.950000 0.100000
v 0.750000 0.800000 0.750000
v 0.250000 0.800000 0.750000
v 0.750000 0.800000 0.250000
v 0.250000 0.800000 0.250000
v 0.950000 1.000000 0.050000
v 0.050000 -0.000000 0.950000
v 0.050000 -0.000000 0.050000
v 0.950000 -0.000000 0.950000
v 0.950000 -0.000000 0.050000
v 0.900000 0.050000 0.900000
v 0.900000 0.050000 0.100000
v 0.100000 0.050000 0.100000
v 0.100000 0.050000 0.900000
v 0.750000 0.200000 0.250000
v 0.250000 0.200000 0.250000
v 0.750000 0.200000 0.750000
v 0.250000 0.200000 0.750000
v 0.000000 0.050000 0.050000
v 0.000000 0.050000 0.950000
v 0.000000 0.950000 0.950000
v 0.000000 0.950000 0.050000
v 0.050000 0.100000 0.900000
v 0.050000 0.100000 0.100000
v 0.050000 0.900000 0.100000
v 0.050000 0.900000 0.900000
v 0.200000 0.250000 0.250000
v 0.200000 0.750000 0.250000
v 0.200000 0.250000 0.750000
v 0.200000 0.750000 0.750000
v 1.000062 0.950000 0.049875
v 1.000062 0.050000 0.049875
v 1.000062 0.050000 0.049875
v 1.000062 0.950000 0.049875
v 1.000000 0.950000 0.950000
v 1.000000 0.050000 0.950000
v 1.000062 0.050000 0.049875
v 0.950063 0.900000 0.099875
v 0.950063 0.100000 0.099875
v 0.950000 0.100000 0.900000
v 0.950000 0.900000 0.900000
v 0.800063 0.250000 0.249875
v 0.800000 0.250000 0.750000
v 0.800063 0.750000 0.249875
v 0.800063 0.750000 0.749875
vt 0.0524 0.9020
vt 0.0520 0.0934
vt 0.0970 0.0934
vt 0.0970 0.9020
vt 0.9470 0.9020
vt 0.9470 0.0970
vt 0.9970 0.0509
vt 0.9970 0.9459
vt 0.9470 0.0970
vt 0.9470 0.9020
vt 0.9020 0.9020
vt 0.9020 0.0970
vt 0.0970 0.0520
vt 0.9020 0.0520
vt 0.9020 0.0970
vt 0.0970 0.0970
vt 0.9020 0.0520
vt 0.0970 0.0520
vt 0.0502 0.0020
vt 0.9455 0.0020
vt 0.9056 0.9470
vt 0.0970 0.9470
vt 0.9056 0.9020
vt 0.9520 0.9970
vt 0.0520 0.9970
vt 0.0956 0.9473
vt 0.9056 0.9473
vt 0.0970 0.0970
vt 0.1427 0.1427
vt 0.1427 0.8563
vt 0.8563 0.8563
vt 0.8563 0.1427
vt 0.9020 0.0970
vt 0.9020 0.9020
vt 0.2727 0.7263
vt 0.7299 0.7263
vt 0.2727 0.2691
vt 0.7299 0.2691
vt 0.2727 0.2695
vt 0.2727 0.7263
vt 0.2727 0.2691
vt 0.7299 0.2691
vt 0.7299 0.7263
vt 0.0023 0.9466
vt 0.0020 0.0481
vt 0.0517 0.0934
vt 0.0520 0.9020
vt 0.9020 0.0970
vt 0.0970 0.0520
vt 0.0023 0.9466
vt 0.0020 0.0481
vt 0.0517 0.0934
vt 0.0520 0.9020
vt 0.9470 0.0970
vt 0.9470 0.9020
vt 0.9020 0.9020
vt 0.9020 0.0970
vt 0.0970 0.9020
vt 0.0970 0.0970
vt 0.1427 0.1427
vt 0.1427 0.8563
vt 0.8563 0.8563
vt 0.8563 0.1427
vt 0.9020 0.0970
vt 0.9020 0.9020
vt 0.2727 0.7263
vt 0.7299 0.7263
vt 0.2727 0.2691
vt 0.7299 0.2691
vt 0.2727 0.2695
vt 0.9470 0.9020
vt 0.9470 0.0970
vt 0.9970 0.0509
vt 0.9970 0.9459
vt 0.0970 0.0520
vt 0.9020 0.0520
vt 0.9020 0.0970
vt 0.0970 0.0970
vt 0.9020 0.0520
vt 0.0970 0.0520
vt 0.0502 0.0020
vt 0.9455 0.0020
vt 0.0524 0.9020
vt 0.0520 0.0934
vt 0.0970 0.0934
vt 0.9056 0.9470
vt 0.0970 0.9470
vt 0.9056 0.9020
vt 0.9520 0.9970
vt 0.0520 0.9970
vt 0.0956 0.9473
vt 0.9056 0.9473
vt 0.9470 0.0970
vt 0.9470 0.9020
vt 0.9020 0.9020
vt 0.9020 0.0970
vt 0.9520 0.9970
vt 0.0520 0.9970
vt 0.0956 0.9473
vt 0.9056 0.9473
vt 0.0970 0.9020
vt 0.0970 0.0970
vt 0.1427 0.1427
vt 0.1427 0.8563
vt 0.8563 0.8563
vt 0.8563 0.1427
vt 0.9020 0.0970
vt 0.9020 0.9020
vt 0.2727 0.7263
vt 0.7299 0.7263
vt 0.2727 0.2691
vt 0.7299 0.2691
vt 0.2727 0.2695
vt 0.0023 0.9466
vt 0.0020 0.0481
vt 0.0517 0.0934
vt 0.0520 0.9020
vt 0.9470 0.9020
vt 0.9470 0.0970
vt 0.9970 0.0509
vt 0.9970 0.9459
vt 0.0970 0.0520
vt 0.9020 0.0520
vt 0.9020 0.0970
vt 0.0970 0.0970
vt 0.9020 0.0520
vt 0.0970 0.0520
vt 0.0502 0.0020
vt 0.9455 0.0020
vt 0.0524 0.9020
vt 0.0520 0.0934
vt 0.0970 0.0934
vt 0.9056 0.9470
vt 0.0970 0.9470
vt 0.9056 0.9020
vt 0.9470 0.0970
vt 0.9470 0.9020
vt 0.9020 0.9020
vt 0.9020 0.0970
vt 0.0970 0.0520
vt 0.9020 0.0520
vt 0.9020 0.0970
vt 0.0970 0.0970
vt 0.9020 0.0520
vt 0.0970 0.0520
vt 0.0502 0.0020
vt 0.9455 0.0020
vt 0.9056 0.9470
vt 0.0970 0.9470
vt 0.0970 0.9020
vt 0.9056 0.9020
vt 0.9520 0.9970
vt 0.0520 0.9970
vt 0.0956 0.9473
vt 0.9056 0.9473
vt 0.0970 0.0970
vt 0.1427 0.1427
vt 0.1427 0.8563
vt 0.8563 0.8563
vt 0.8563 0.1427
vt 0.9020 0.0970
vt 0.9020 0.9020
vt 0.2727 0.7263
vt 0.7299 0.7263
vt 0.2727 0.2691
vt 0.7299 0.2691
vt 0.2727 0.2695
vt 0.0023 0.9466
vt 0.0020 0.0481
vt 0.0517 0.0934
vt 0.0520 0.9020
vt 0.0524 0.9020
vt 0.0520 0.0934
vt 0.0970 0.0934
vt 0.9470 0.9020
vt 0.9470 0.0970
vt 0.9970 0.0509
vt 0.9970 0.9459
vt 0.0524 0.9020
vt 0.0520 0.0934
vt 0.0970 0.0934
vt 0.0970 0.9020
vt 0.9020 0.9020
vt 0.9020 0.0970
vt 0.0970 0.0970
vt 0.1427 0.1427
vt 0.1427 0.8563
vt 0.8563 0.8563
vt 0.8563 0.1427
vt 0.2727 0.7263
vt 0.7299 0.7263
vt 0.2727 0.2691
vt 0.7299 0.2691
vt 0.2727 0.2695
vt 0.7299 0.7263
vt 0.2727 0.7263
vt 0.2727 0.2691
vt 0.7299 0.2691
vt 0.0023 0.9466
vt 0.0020 0.0481
vt 0.0517 0.0934
vt 0.0520 0.9020
vt 0.9470 0.9020
vt 0.9470 0.0970
vt 0.9020 0.0520
vt 0.9020 0.0970
vt 0.0970 0.0970
vt 0.9020 0.0520
vt 0.0970 0.0520
vt 0.0502 0.0020
vt 0.9056 0.9470
vt 0.0970 0.9470
vt 0.0520 0.9970
vt 0.0956 0.9473
vt 0.9056 0.9473
vt 0.0517 0.0934
vt 0.0520 0.9020
vt 0.0524 0.9020
vt 0.0520 0.0934
vt 0.0970 0.0520
vt 0.9020 0.0970
vt 0.0970 0.0970
vt 0.9020 0.0520
vt 0.0970 0.0520
vt 0.9455 0.0020
vt 0.9056 0.9470
vt 0.0970 0.9470
vt 0.9056 0.9020
vt 0.9520 0.9970
vt 0.0956 0.9473
vt 0.9056 0.9473
vt 0.1427 0.1427
vt 0.1427 0.8563
vt 0.8563 0.8563
vt 0.8563 0.1427
vt 0.9020 0.0970
vt 0.9020 0.9020
vt 0.2727 0.7263
vt 0.7299 0.7263
vt 0.2727 0.2691
vt 0.7299 0.2691
vt 0.2727 0.2695
vt 0.2727 0.7263
vt 0.2727 0.2691
vt 0.7299 0.2691
vt 0.7299 0.7263
vt 0.0520 0.9020
vt 0.0524 0.9020
vt 0.0524 0.9020
vt 0.9470 0.9020
vt 0.9470 0.0970
vt 0.9970 0.0509
vt 0.9970 0.9459
vt 0.9470 0.0970
vt 0.9470 0.9020
vt 0.9020 0.9020
vt 0.9020 0.0970
vt 0.9020 0.0970
vt 0.0970 0.0520
vt 0.0970 0.9470
vt 0.0956 0.9473
vn -1.0000 0.0000 0.0000
vn 0.0000 -0.0000 1.0000
vn 1.0000 0.0000 0.0000
vn 0.0000 -1.0000 0.0000
vn 0.0000 1.0000 0.0000
vn 0.0000 0.7071 0.7071
vn -0.7071 -0.0000 0.7071
vn 0.0000 -0.7071 0.7071
vn 0.7071 -0.0000 0.7071
vn 0.0000 0.0000 -1.0000
vn 0.0000 -0.7071 -0.7071
vn -0.7071 0.0000 -0.7071
vn 0.0000 0.7071 -0.7071
vn 0.7071 0.0000 -0.7071
vn -0.7071 0.7071 0.0000
vn 0.7071 0.7071 0.0000
vn -0.7071 -0.7071 -0.0000
vn 0.7071 -0.7071 -0.0000
vn 1.0000 -0.0003 -0.0006
vn 1.0000 0.0000 -0.0012
vn 0.0025 -0.0000 1.0000
vn 1.0000 0.0006 0.0000
vn 1.0000 -0.0006 0.0000
vn 1.0000 0.0003 -0.0006
vn 1.0000 -0.0003 0.0000
vn 1.0000 0.0003 0.0000
vn 0.7071 0.7071 0.0001
vn 0.7072 -0.7070 0.0000
vn 0.7073 -0.0001 -0.7069
vn 1.0000 -0.0001 0.0001
usemtl None
s 1
f 1/1/1 2/2/1 3/3/1 4/4/1
f 5/5/2 6/6/2 7/7/2 8/8/2
f 9/9/3 10/10/3 6/11/3 5/12/3
f 10/13/4 3/14/4 11/15/4 6/16/4
f 6/17/2 11/18/2 12/19/2 7/20/2
f 5/21/5 1/22/5 4/4/5 9/23/5
f 8/24/2 13/25/2 1/26/2 5/27/2
f 4/4/2 3/28/2 14/29/2 15/30/2
f 16/31/2 17/32/2 10/33/2 9/34/2
f 16/31/6 15/30/6 18/35/6 19/36/6
f 15/30/7 14/29/7 20/37/7 18/35/7
f 14/29/8 17/32/8 21/38/8 20/39/8
f 17/32/9 16/31/9 19/36/9 21/38/9
f 17/32/2 14/29/2 3/28/2 10/33/2
f 9/34/2 4/4/2 15/30/2 16/31/2
f 21/40/2 19/41/2 18/42/2 20/43/2
f 13/44/2 12/45/2 2/46/2 1/47/2
f 10/13/4 3/14/4 2/48/4 6/16/4
f 6/17/2 2/49/2 12/19/2 7/20/2
f 22/50/10 23/51/10 24/52/10 25/53/10
f 26/54/3 27/55/3 28/56/3 29/57/3
f 30/58/10 31/59/10 32/60/10 33/61/10
f 34/62/10 35/63/10 27/64/10 26/65/10
f 34/62/11 33/61/11 36/66/11 37/67/11
f 33/61/12 32/60/12 38/68/12 36/66/12
f 32/60/13 35/63/13 39/69/13 38/70/13
f 35/63/14 34/62/14 37/67/14 39/69/14
f 35/63/10 32/60/10 31/59/10 27/64/10
f 26/65/10 30/58/10 33/61/10 34/62/10
f 39/69/10 37/67/10 36/66/10 38/68/10
f 29/71/10 28/72/10 40/73/10 41/74/10
f 27/75/5 31/76/5 24/77/5 28/78/5
f 28/79/10 24/80/10 23/81/10 40/82/10
f 25/83/1 24/84/1 31/85/1 30/58/1
f 29/86/4 25/87/4 30/58/4 26/88/4
f 41/89/10 22/90/10 25/91/10 29/92/10
f 10/93/3 26/94/3 42/95/3 43/96/3
f 7/97/5 12/98/5 44/99/5 43/100/5
f 3/101/5 30/102/5 45/103/5 46/104/5
f 47/105/5 48/106/5 26/107/5 10/108/5
f 47/105/13 46/104/13 49/109/13 50/110/13
f 46/104/15 45/103/15 51/111/15 49/109/15
f 45/103/6 48/106/6 52/112/6 51/113/6
f 48/106/16 47/105/16 50/110/16 52/112/16
f 48/106/5 45/103/5 30/102/5 26/107/5
f 10/108/5 3/101/5 46/104/5 47/105/5
f 52/112/5 50/110/5 49/109/5 51/111/5
f 12/114/5 22/115/5 53/116/5 44/117/5
f 43/118/5 42/119/5 41/120/5 7/121/5
f 26/122/2 30/123/2 53/124/2 42/125/2
f 42/126/5 53/127/5 22/128/5 41/129/5
f 44/130/1 53/131/1 30/132/1 3/101/1
f 43/133/10 44/134/10 3/101/10 10/135/10
f 27/136/3 9/137/3 54/138/3 55/139/3
f 9/140/10 4/141/10 56/142/10 54/143/10
f 54/144/4 56/145/4 13/146/4 8/147/4
f 55/148/2 57/149/2 31/150/2 27/151/2
f 40/152/4 23/153/4 57/154/4 55/155/4
f 31/150/4 4/156/4 58/157/4 59/158/4
f 60/159/4 61/160/4 9/161/4 27/162/4
f 60/159/8 59/158/8 62/163/8 63/164/8
f 59/158/17 58/157/17 64/165/17 62/163/17
f 58/157/11 61/160/11 65/166/11 64/167/11
f 61/160/18 60/159/18 63/164/18 65/166/18
f 61/160/4 58/157/4 4/156/4 9/161/4
f 27/162/4 31/150/4 59/158/4 60/159/4
f 65/166/4 63/164/4 62/163/4 64/165/4
f 23/168/4 13/169/4 56/170/4 57/171/4
f 57/172/1 56/173/1 4/174/1 31/150/1
f 55/175/4 54/176/4 8/177/4 40/178/4
f 66/179/5 67/180/5 9/181/5 27/182/5
f 26/54/4 10/10/4 68/183/4 69/184/4
f 27/182/1 9/185/1 70/186/1 71/187/1
f 72/188/1 73/189/1 10/33/1 26/65/1
f 72/188/7 71/187/7 74/190/7 75/191/7
f 71/187/15 70/186/15 76/192/15 74/190/15
f 70/186/12 73/189/12 77/193/12 76/194/12
f 73/189/17 72/188/17 75/191/17 77/193/17
f 73/189/1 70/186/1 9/185/1 10/33/1
f 26/65/1 27/182/1 71/187/1 72/188/1
f 77/195/1 75/196/1 74/197/1 76/198/1
f 40/199/1 8/200/1 67/201/1 66/202/1
f 69/203/1 68/204/1 7/7/1 41/74/1
f 10/13/10 9/205/10 67/206/10 68/207/10
f 68/208/1 67/209/1 8/210/1 7/20/1
f 69/211/2 66/212/2 27/182/2 26/88/2
f 41/89/1 40/213/1 66/214/1 69/215/1
f 23/168/19 22/115/20 78/216/20 79/217/19
f 80/218/21 78/219/21 30/132/21 31/150/21
f 3/220/4 30/123/4 81/221/4 82/222/4
f 82/223/22 81/224/22 22/128/22 12/225/22
f 83/226/5 84/227/5 31/150/5 4/228/5
f 13/229/23 23/153/19 84/230/19 83/231/23
f 31/150/19 30/102/24 85/232/24 86/233/19
f 87/234/25 88/235/26 3/236/26 4/237/25
f 87/234/27 86/233/27 89/238/27 90/239/27
f 86/233/9 85/232/9 91/240/9 89/238/9
f 85/232/28 88/235/28 92/241/28 91/242/28
f 88/235/29 87/234/29 90/239/29 92/241/29
f 88/235/26 85/232/24 30/102/24 3/236/26
f 4/237/25 31/150/19 86/233/19 87/234/25
f 92/243/30 90/244/30 89/245/30 91/246/30
f 23/168/19 22/115/20 78/216/20 84/247/19
f 84/248/21 78/219/21 30/132/21 31/150/21
f 79/249/21 78/219/21 30/132/21 31/150/21
f 83/250/3 82/251/3 12/252/3 13/253/3
f 4/254/10 3/255/10 82/256/10 83/257/10
f 3/220/4 30/123/4 78/258/4 82/222/4
f 82/223/22 78/259/22 22/128/22 12/225/22
f 83/226/5 79/260/5 31/150/5 4/228/5
f 13/229/23 23/153/19 79/261/19 83/231/23
